<svg width="84" height="81" viewBox="0 0 84 81" fill="none" xmlns="http://www.w3.org/2000/svg">
<rect width="84" height="81" rx="8" fill="#5B68A4"/>
<path d="M54.1228 61.6902C50.1288 61.6902 46.6264 60.5923 44.7076 58.7188C44.6313 58.6422 44.5544 58.5655 44.4738 58.4755C44.4736 58.4753 44.4735 58.4752 44.4734 58.475C44.0102 57.9763 43.6844 57.432 43.4932 56.8242C43.3962 56.5509 43.3368 56.2648 43.3097 55.9556V52.4495C45.5161 54.6448 49.4008 56.017 54.1161 56.017C54.1169 56.017 54.1176 56.017 54.1176 56.017C54.1193 56.017 54.12 56.017 54.1209 56.017C57.3393 56.017 60.1728 55.3792 62.3521 54.2785C62.3699 54.2696 62.3896 54.2622 62.4072 54.2532C62.5477 54.1813 62.675 54.1008 62.8099 54.0251C63.6375 53.5612 64.3604 53.0291 64.957 52.4333V55.6207C64.9552 56.4643 64.673 57.2561 64.1645 57.9733C62.5851 60.1969 58.7881 61.6902 54.1228 61.6902ZM43.3097 29.5724C45.9425 32.1889 50.4296 33.0903 54.1237 33.0903C57.865 33.0903 62.3196 32.1431 64.957 29.5109V32.7021C64.957 32.7038 64.9561 32.7052 64.9561 32.7069C64.9561 36.1666 60.2976 38.7755 54.1209 38.7755C48.0208 38.7755 43.4121 36.223 43.3097 32.821V29.5724ZM64.957 47.9753C64.957 47.9786 64.9551 47.9815 64.9551 47.9848C64.9551 48.2008 64.9369 48.4135 64.9013 48.6224C64.8928 48.6719 64.8743 48.719 64.8639 48.768C64.8306 48.9254 64.7964 49.0826 64.7435 49.2354C64.2577 50.6364 62.963 51.8339 61.1203 52.6844C61.1108 52.6889 61.1025 52.6939 61.0929 52.6983C60.9635 52.7576 60.8232 52.8097 60.6885 52.8655C60.5462 52.9244 60.4092 52.987 60.2613 53.042L60.2596 53.0425C58.5362 53.6825 56.4341 54.0488 54.1185 54.049C48.0197 54.0483 43.4121 51.4962 43.3097 48.0946V44.8113C45.5168 47.0083 49.4033 48.3817 54.1209 48.3817C58.853 48.3817 62.7497 47.0024 64.957 44.7975V47.9753H64.957ZM54.1237 19C60.2947 19 64.9474 21.6055 64.9474 25.0763C64.932 28.5231 60.2784 31.1223 54.1237 31.1223C47.9874 31.1223 43.4394 28.6403 43.3087 25.2204C43.3078 25.1878 43.3049 25.0936 43.3001 25.0609C43.3001 21.6055 47.9528 19 54.1237 19ZM54.1209 40.7434C58.853 40.7434 62.7497 39.3642 64.957 37.1593V40.3404C64.957 40.3421 64.9561 40.3434 64.9561 40.3451C64.9561 43.8049 60.2976 46.4137 54.1209 46.4137C48.0208 46.4137 43.4121 43.8612 43.3097 40.4592V37.1731C45.5168 39.37 49.4033 40.7434 54.1209 40.7434ZM30.5181 35.0385C36.5151 35.0385 41.0372 37.5638 41.0372 40.9202C41.0295 44.2704 36.5074 46.7971 30.5181 46.7971C26.0848 46.7971 20.0095 45.0386 20 40.9125C20 37.5638 24.522 35.0385 30.5181 35.0385ZM30.5181 48.7651C34.1048 48.7651 38.4786 47.8342 41.0372 45.3221V48.3847C41.0164 51.7288 36.5052 54.2475 30.5258 54.2475C24.5377 54.2475 20.0207 51.7288 20 48.3847V45.3221C22.5682 47.8516 26.9239 48.7651 30.5181 48.7651ZM30.5258 56.2155C35.0998 56.2155 38.8758 54.8919 41.0372 52.7692V55.8071C41.0285 59.1611 36.5074 61.6902 30.52 61.6902C24.5326 61.6902 20.0115 59.1611 20.0029 55.8095V55.7989H20V52.7669C22.1634 54.8908 25.9446 56.2155 30.5258 56.2155Z" fill="white"/>
</svg>
