<svg width="219" height="211" viewBox="0 0 219 211" fill="none" xmlns="http://www.w3.org/2000/svg">
<path d="M81.2896 160.031H119.467V210.951H81.2896V160.031Z" fill="#855C52"/>
<path d="M77.2181 79.4055C72.0584 67.2566 59.0193 47.5742 47.8923 47.5742C36.6995 47.5742 24.6988 65.8059 19.8524 76.3724C13.7697 89.5929 8.70898 107.38 8.70898 130.013C8.70898 158.712 21.0888 174.57 34.1609 180.933H34.1444L34.2927 180.999C35.562 181.625 36.8643 182.482 37.8039 183.62C38.8919 184.971 39.0073 187.807 39.0073 188.763V201.34C39.0073 201.34 38.8589 206.137 38.4138 207.605C38.1171 208.544 37.128 209.698 37.0621 210.918H55.607V147.948C55.607 142.953 58.2775 136.903 61.97 133.557L85.8064 111.863C84.1909 99.1373 80.9765 88.3071 77.2181 79.4055Z" fill="#855C52"/>
<path d="M34.2926 181.015C34.2926 181.015 42.6996 184.196 50.9418 184.196C50.9418 184.196 59.9093 185.053 67.3273 180.306L90.6362 111.434L78.2564 57.6127L50.4308 41.3262L36.4026 42.7768L9.61548 78.8611C9.61548 78.8611 0.961182 124.012 0.961182 124.638C0.961182 125.248 8.18134 167.728 8.18134 167.728L21.171 176.597L34.2926 181.015Z" fill="#BDCF46"/>
<path d="M212.044 187.658C211.236 187.213 210.098 186.9 209.538 186.092C208.763 184.955 209.522 183.57 209.522 182.334C209.522 176.779 205.747 171.438 200.175 170.3C199.136 170.086 197.966 170.383 196.977 169.938C195.543 169.311 195.741 167.877 195.394 166.575C194.883 164.564 193.911 162.701 192.46 161.201C190.268 158.926 187.317 157.574 184.136 157.574C182.24 157.574 180.46 158.085 178.861 158.942V211H206.554C212.39 211 217.418 206.302 218.143 200.615C218.835 195.455 216.692 190.213 212.044 187.658Z" fill="#BDCF46"/>
<path d="M125.863 150.684H163.431V191.384H125.863V150.684Z" fill="white"/>
<path d="M121.33 96.3846C119.072 94.3405 115.396 94.3405 113.154 96.3846L86.6635 120.501L66.668 138.7C64.4261 140.744 62.5798 144.898 62.5798 147.948V205.429C62.5798 208.462 65.069 210.951 68.1021 210.951H89.4329V173.037C89.4329 170.729 91.3286 168.833 93.6199 168.833H110.45C112.758 168.833 114.654 170.729 114.654 173.037V210.951H166.382C169.432 210.951 171.904 208.462 171.904 205.429V147.948C171.904 144.898 170.058 140.744 167.816 138.7L121.33 96.3846ZM141.144 184.279H135.144C132.342 184.279 130.034 181.988 130.034 179.169V174.026H141.144V184.279ZM141.144 169.163H130.034V162.289C130.034 159.487 132.342 157.195 135.144 157.195H141.144V169.163ZM157.134 179.169C157.134 181.971 154.843 184.279 152.024 184.279H146.007V174.042H157.118V179.169H157.134ZM157.134 169.163H146.024V157.179H152.041C154.843 157.179 157.151 159.47 157.151 162.273V169.163H157.134Z" fill="#FCC21B"/>
<path d="M177.311 146.415H56.6289L117.671 91.1758L177.311 146.415Z" fill="#EF6B00"/>
</svg>
