<svg width="62" height="63" viewBox="0 0 62 63" fill="none" xmlns="http://www.w3.org/2000/svg">
<path d="M25.0986 7.35352C35.1691 7.35352 43.3323 15.5167 43.3323 25.5872C43.3323 29.8037 41.8988 33.6843 39.4996 36.7733L41.9648 39.2384L45.7015 35.5017C45.7928 35.4123 45.9155 35.3623 46.0433 35.3623C46.1711 35.3623 46.2939 35.4123 46.3852 35.5017L48.7724 37.8889C48.8618 37.9802 48.9118 38.103 48.9118 38.2308C48.9118 38.3586 48.8618 38.4813 48.7724 38.5726L45.0357 42.3093L47.7288 45.0024L51.4655 41.2657C51.5568 41.1763 51.6795 41.1263 51.8073 41.1263C51.9351 41.1263 52.0579 41.1763 52.1492 41.2657L54.5364 43.6529C54.6258 43.7442 54.6758 43.8669 54.6758 43.9948C54.6758 44.1226 54.6258 44.2453 54.5364 44.3366L50.7997 48.0733L54.7163 51.99C54.8056 52.0802 54.8557 52.2019 54.8557 52.3288C54.8557 52.4558 54.8056 52.5775 54.7163 52.6677L52.1792 55.2048C51.9933 55.3908 51.6874 55.3908 51.5014 55.2048L36.2907 39.9941C33.0888 42.4777 29.1509 43.8241 25.0986 43.8208C15.0281 43.8208 6.86497 35.6577 6.86497 25.5872C6.86497 15.5167 15.0281 7.35352 25.0986 7.35352ZM15.43 35.2558C18.0091 37.8409 21.4459 39.2624 25.0986 39.2624C28.7514 39.2624 32.1882 37.8409 34.7673 35.2558C37.3524 32.6767 38.7739 29.2399 38.7739 25.5872C38.7739 21.9344 37.3524 18.4976 34.7673 15.9185C32.1882 13.3334 28.7514 11.9119 25.0986 11.9119C21.4459 11.9119 18.0091 13.3334 15.43 15.9185C12.8449 18.4976 11.4234 21.9344 11.4234 25.5872C11.4234 29.2399 12.8449 32.6767 15.43 35.2558Z" fill="white"/>
</svg>
