<svg width="35" height="35" viewBox="0 0 35 35" fill="none" xmlns="http://www.w3.org/2000/svg">
<path d="M8.60883 2.06119C10.6771 1.38962 16.5429 3.77017 17.2943 4.62658C18.0408 5.47861 13.1676 5.8308 10.5218 6.22291C7.7918 6.63361 5.06891 7.12415 4.32461 6.26501C3.58086 5.4179 6.54328 2.73712 8.60883 2.06119Z" fill="#F79423"/>
<path d="M22.844 0.567904C25.2076 -0.122252 31.5459 2.71603 32.3115 3.6829C33.0695 4.66181 27.6193 4.90572 24.6443 5.26501C21.5649 5.63361 18.4805 6.09626 17.722 5.12173C16.9586 4.15486 20.4886 1.25095 22.8457 0.567904" fill="#F79423"/>
<path d="M8.97093 4.48914C10.3912 3.55507 16.5036 4.51046 17.5339 5.09726C18.5741 5.67914 14.6327 6.85765 12.5847 7.66265C10.4787 8.49554 8.41531 9.40882 7.37789 8.81273C6.3339 8.23304 7.55672 5.43249 8.97203 4.48914" fill="#F79423"/>
<path d="M14.7011 0.0496763C16.7688 0.235067 18.9448 3.8521 18.743 4.70905C18.5483 5.56108 14.7246 4.24421 12.4731 3.66944C10.1544 3.07991 7.76233 2.55874 7.96905 1.70671C8.16866 0.845379 12.6284 -0.133527 14.7011 0.0496763Z" fill="#F79423"/>
<path d="M21.7831 4.09476C23.8585 4.27304 26.0324 7.89281 25.83 8.74703C25.6282 9.60398 21.8067 8.28437 19.5552 7.71179C17.243 7.12499 14.8438 6.59671 15.0506 5.7425C15.2463 4.88828 19.7154 3.91429 21.7831 4.0964" fill="#F79423"/>
<path d="M2.5769 28.2382C2.5769 33.3958 9.94769 34.898 17.8325 34.898C25.7168 34.898 33.0903 33.3958 33.0903 28.2382C33.0903 23.0905 25.7174 7.71289 17.8325 7.71289C9.94769 7.71289 2.5769 23.091 2.5769 28.2382Z" fill="#F79423"/>
<path d="M22.5646 8.34742C22.5648 8.60392 22.5143 8.85793 22.4163 9.09493C22.3182 9.33193 22.1743 9.54727 21.993 9.72864C21.8116 9.91002 21.5962 10.0539 21.3592 10.152C21.1222 10.25 20.8682 10.3005 20.6117 10.3003H15.0527C14.5348 10.3003 14.0381 10.0946 13.6718 9.72832C13.3056 9.36209 13.0999 8.86536 13.0999 8.34742C13.0999 7.82948 13.3056 7.33276 13.6718 6.96652C14.0381 6.60028 14.5348 6.39453 15.0527 6.39453H20.6112C20.8677 6.39446 21.1217 6.44492 21.3587 6.54303C21.5957 6.64114 21.811 6.78498 21.9924 6.96633C22.1738 7.14768 22.3177 7.36299 22.4159 7.59996C22.5141 7.83693 22.5646 8.09092 22.5646 8.34742Z" fill="#845939"/>
<path d="M21.4309 22.4041C20.8255 21.7582 19.9899 21.3262 19.1964 20.9674C18.37 20.5912 17.1729 20.2844 16.6468 19.4745C16.2055 18.7963 16.8136 18.0848 17.4332 17.8781C18.4307 17.5429 19.6612 17.9465 20.5368 18.4392C20.9732 18.6831 21.4336 18.4441 21.5999 18.0072C21.7831 17.5237 21.9663 17.0398 22.1468 16.5569C22.2572 16.2632 22.0789 15.8875 21.8164 15.7398C21.0207 15.2985 20.1917 15.0568 19.3161 14.942V13.4632C19.3161 13.0689 18.9875 12.7402 18.5932 12.7402H17.2293C16.8371 12.7402 16.5063 13.0689 16.5063 13.4632V15.1148C15.1566 15.5041 13.9267 16.3731 13.4476 17.7534C12.915 19.2814 13.2387 20.8635 14.3724 22.0207C14.9805 22.643 15.8019 23.0516 16.5818 23.4054C17.4617 23.8024 18.5439 24.0884 19.1121 24.9361C19.7203 25.8423 18.9339 26.7364 18.084 26.9929C16.9432 27.3352 15.5607 26.8217 14.6026 26.2251C14.1826 25.9626 13.6943 26.2322 13.5417 26.6571L13.0134 28.1288C12.9007 28.4432 13.0883 28.7768 13.3464 28.9452C14.2504 29.537 15.2878 29.8301 16.351 29.9526V31.509C16.351 31.7206 16.4286 31.8825 16.5435 31.9973C16.5506 32.005 16.5577 32.0116 16.5621 32.0187C16.5686 32.0255 16.5758 32.0317 16.5834 32.0373C16.6982 32.1548 16.8601 32.232 17.0718 32.232H18.4592C18.6502 32.2302 18.8328 32.1534 18.9677 32.0182C19.1026 31.8829 19.1788 31.7 19.18 31.509V29.7907C20.68 29.3587 21.8394 28.3896 22.424 26.8846C23.0234 25.3495 22.5137 23.5629 21.4271 22.4035" fill="#25333A"/>
<path d="M21.4309 21.4052C20.8255 20.7621 19.9899 20.3301 19.1964 19.9713C18.37 19.5951 17.1729 19.2883 16.6468 18.4762C16.2055 17.8024 16.8136 17.0887 17.4332 16.8798C18.4307 16.5468 19.6612 16.9482 20.5368 17.4409C20.9732 17.6876 21.4336 17.4453 21.5999 17.0089C21.7831 16.5255 21.9663 16.0442 22.1468 15.5608C22.2572 15.2649 22.0789 14.8892 21.8164 14.7437C21.0207 14.3002 20.1917 14.0607 19.3161 13.9437V12.4649C19.3161 12.0728 18.9875 11.7441 18.5932 11.7441H17.2293C16.8371 11.7441 16.5063 12.0728 16.5063 12.4649V14.1165C15.1566 14.5064 13.9267 15.377 13.4476 16.7573C12.915 18.2853 13.2387 19.8674 14.3724 21.0224C14.9805 21.6448 15.8019 22.0555 16.5818 22.4071C17.4617 22.8041 18.5439 23.0902 19.1121 23.9378C19.7203 24.8434 18.9339 25.7381 18.084 25.9962C16.9432 26.3391 15.5607 25.8256 14.6026 25.2268C14.1826 24.9659 13.6943 25.2361 13.5417 25.6588L13.0134 27.1327C12.9007 27.4444 13.0883 27.7807 13.3464 27.9491C14.2504 28.5387 15.2878 28.834 16.351 28.9565V30.5129C16.351 30.7218 16.4286 30.8842 16.5435 31.0012C16.5506 31.0089 16.5577 31.0155 16.5621 31.0226C16.5697 31.0281 16.5768 31.0344 16.5834 31.0412C16.6982 31.156 16.8601 31.2337 17.0718 31.2337H18.4592C18.6497 31.232 18.832 31.1555 18.9668 31.0209C19.1015 30.8862 19.1781 30.704 19.18 30.5134V28.793C20.68 28.3615 21.8394 27.3941 22.424 25.8874C23.0234 24.3529 22.5137 22.5641 21.4271 21.4047" fill="#25333A"/>
</svg>
