<svg width="59" height="60" viewBox="0 0 59 60" fill="none" xmlns="http://www.w3.org/2000/svg">
<path d="M50.9316 17.6734C50.8913 17.2659 50.7483 16.8754 50.5159 16.5383C50.2836 16.2012 49.9695 15.9286 49.603 15.746L30.2077 6.04829C29.8708 5.87975 29.4994 5.79199 29.1227 5.79199C28.7461 5.79199 28.3746 5.87975 28.0378 6.04829L8.64246 15.746C8.27703 15.9296 7.96389 16.2026 7.73207 16.5395C7.50024 16.8764 7.35723 17.2665 7.3163 17.6734C7.28963 17.9328 4.98643 43.7771 28.1396 54.0736C28.449 54.2132 28.7845 54.2854 29.124 54.2854C29.4634 54.2854 29.7989 54.2132 30.1083 54.0736C53.2615 43.7771 50.9583 17.9352 50.9316 17.6734ZM29.124 49.1835C12.7131 41.2508 11.9372 24.3211 12.0706 19.4553L29.124 10.9286L46.1652 19.4505C46.2549 24.2726 45.37 41.3139 29.124 49.1835Z" fill="white"/>
<path d="M26.6996 31.4588L21.1404 25.8996L17.7123 29.3277L26.6996 38.3151L40.5358 24.4789L37.1076 21.0508L26.6996 31.4588Z" fill="white"/>
</svg>
