<svg width="24" height="24" viewBox="0 0 24 24" fill="none" xmlns="http://www.w3.org/2000/svg">
<path d="M0 21.4895V6.75391H23.8983V21.4895C23.8983 22.8402 22.7663 23.9454 21.3827 23.9454H2.51561C1.13203 23.9454 0 22.8402 0 21.4895Z" fill="#CFD8DC"/>
<path d="M23.8983 4.29773V7.98163H0V4.29773C0 2.94697 1.13203 1.8418 2.51561 1.8418H21.3827C22.7663 1.8418 23.8983 2.94697 23.8983 4.29773Z" fill="#F44336"/>
<path d="M17.6094 6.13989C18.6514 6.13989 19.4961 5.31524 19.4961 4.29797C19.4961 3.28071 18.6514 2.45605 17.6094 2.45605C16.5674 2.45605 15.7227 3.28071 15.7227 4.29797C15.7227 5.31524 16.5674 6.13989 17.6094 6.13989Z" fill="#B71C1C"/>
<path d="M6.28905 6.13989C7.33105 6.13989 8.17576 5.31524 8.17576 4.29797C8.17576 3.28071 7.33105 2.45605 6.28905 2.45605C5.24705 2.45605 4.40234 3.28071 4.40234 4.29797C4.40234 5.31524 5.24705 6.13989 6.28905 6.13989Z" fill="#B71C1C"/>
<path d="M17.6094 0C16.9176 0 16.3516 0.552582 16.3516 1.22796V4.29786C16.3516 4.97324 16.9176 5.52582 17.6094 5.52582C18.3012 5.52582 18.8672 4.97324 18.8672 4.29786V1.22796C18.8672 0.552582 18.3012 0 17.6094 0Z" fill="#B0BEC5"/>
<path d="M6.28905 0C5.59726 0 5.03125 0.552582 5.03125 1.22796V4.29786C5.03125 4.97324 5.59726 5.52582 6.28905 5.52582C6.98085 5.52582 7.54686 4.97324 7.54686 4.29786V1.22796C7.54686 0.552582 6.98085 0 6.28905 0Z" fill="#B0BEC5"/>
<path d="M5.03125 10.4375H7.54686V12.8934H5.03125V10.4375Z" fill="#90A4AE"/>
<path d="M8.80469 10.4375H11.3203V12.8934H8.80469V10.4375Z" fill="#90A4AE"/>
<path d="M12.5781 10.4375H15.0937V12.8934H12.5781V10.4375Z" fill="#90A4AE"/>
<path d="M16.3516 10.4375H18.8672V12.8934H16.3516V10.4375Z" fill="#90A4AE"/>
<path d="M5.03125 14.1211H7.54686V16.577H5.03125V14.1211Z" fill="#90A4AE"/>
<path d="M8.80469 14.1211H11.3203V16.577H8.80469V14.1211Z" fill="#90A4AE"/>
<path d="M12.5781 14.1211H15.0937V16.577H12.5781V14.1211Z" fill="#90A4AE"/>
<path d="M16.3516 14.1211H18.8672V16.577H16.3516V14.1211Z" fill="#90A4AE"/>
<path d="M5.03125 17.8057H7.54686V20.2616H5.03125V17.8057Z" fill="#90A4AE"/>
<path d="M8.80469 17.8057H11.3203V20.2616H8.80469V17.8057Z" fill="#90A4AE"/>
<path d="M12.5781 17.8057H15.0937V20.2616H12.5781V17.8057Z" fill="#90A4AE"/>
<path d="M16.3516 17.8057H18.8672V20.2616H16.3516V17.8057Z" fill="#90A4AE"/>
</svg>
