<svg width="98" height="98" viewBox="0 0 98 98" fill="none" xmlns="http://www.w3.org/2000/svg">
<path d="M42.4135 3.73004C21.3067 2.8312 4.02506 22.3791 4.512 42.7233C4.55947 44.7629 6.17647 46.4642 8.24978 46.4642H12.1407C13.11 46.4642 13.8787 46.1533 14.4544 45.6649C15.3165 45.0753 15.9122 44.1076 15.88 42.7233C14.9704 7.19832 69.8566 7.19832 68.9424 42.7233C68.8965 44.7629 70.6896 46.4642 72.6863 46.4642H76.5711C78.649 46.4642 80.2675 44.7629 80.315 42.7233C80.8295 21.0286 63.4743 4.6396 42.4135 3.73004Z" fill="#989897"/>
<path d="M2.73455 96.4692H82.1008C82.7623 96.4692 83.3059 96.0726 83.3059 95.6163V60.7084V40.7409C83.3059 40.28 82.7638 39.8926 82.1008 39.8926H2.74221C2.38236 39.8926 2.10827 39.9783 1.91992 40.1192C1.91992 40.1192 1.90614 40.133 1.90002 40.1452C1.90002 40.1452 1.87246 40.1514 1.86021 40.1743C1.7616 40.232 1.67985 40.3145 1.62315 40.4137C1.56645 40.5128 1.53678 40.6251 1.53711 40.7394V95.6086C1.53711 96.0665 2.0853 96.4631 2.74067 96.4631" fill="#F79421"/>
<path d="M74.9319 72.1058C75.18 75.4271 72.7729 87.1121 68.761 87.4076C64.7491 87.7047 60.6591 76.5005 60.4111 73.1762C60.1707 69.8534 63.3894 69.2822 67.4028 68.9851C71.4146 68.6911 74.6915 68.78 74.9319 72.1058Z" fill="#A7A7AB"/>
<path d="M61.04 65.2466C53.4787 62.7461 66.8894 59.2762 75.5884 61.9177C84.0716 64.4947 64.9646 66.5481 61.0415 65.2466" fill="#A7A7AB"/>
<path d="M80.1802 84.4982C80.1802 87.7705 78.1207 90.4241 75.5788 90.4241C73.04 90.4241 70.9805 87.7705 70.9805 84.4982V36.3159C70.9805 33.0451 73.04 30.3945 75.5788 30.3945C78.1207 30.3945 80.1802 33.0451 80.1802 36.3159V84.4982Z" fill="#A7A7AB"/>
<path d="M75.5789 2.49023C64.0333 2.49023 54.6758 11.8431 54.6758 23.3949C54.6758 34.9451 64.0271 44.298 75.5789 44.298C87.1322 44.2995 96.4682 34.9435 96.4682 23.3949C96.4682 11.8462 87.123 2.49023 75.5789 2.49023ZM76.1485 28.0698C75.2251 28.0702 74.3107 27.8887 73.4574 27.5357C72.6042 27.1827 71.8288 26.6651 71.1756 26.0125C69.8563 24.6944 69.1148 22.9062 69.1139 21.0413C69.1135 20.1179 69.295 19.2035 69.648 18.3503C70.001 17.497 70.5186 16.7216 71.1713 16.0684C71.8239 15.4152 72.5988 14.8969 73.4518 14.5432C74.3047 14.1894 75.219 14.0072 76.1424 14.0068C78.0072 14.006 79.7961 14.746 81.1153 16.0641C82.4345 17.3822 83.1761 19.1703 83.1769 21.0352C83.1777 22.9001 82.4377 24.6889 81.1196 26.0081C79.8015 27.3274 78.0134 28.069 76.1485 28.0698Z" fill="#A7A7AB"/>
<path d="M64.0942 5.88574C61.2005 7.78635 58.825 10.377 57.1819 13.4243C55.5387 16.4717 54.6795 19.8799 54.6816 23.342C54.6816 34.8815 64.033 44.2466 75.5863 44.2466C75.7869 44.2466 75.9936 44.2175 76.1957 44.2145C55.6969 34.0546 60.7607 12.9555 64.1019 5.88727" fill="#CDCCCB"/>
</svg>
