<svg width="104" height="104" viewBox="0 0 104 104" fill="none" xmlns="http://www.w3.org/2000/svg">
<g clip-path="url(#clip0)">
<path d="M72.8008 104L80.5904 104C82.0308 104 83.2008 102.83 83.2008 101.39L83.2008 96.2052C83.1994 95.5138 82.9238 94.8511 82.4344 94.3627C81.945 93.8743 81.2818 93.6 80.5904 93.6L72.8008 93.6C67.814 93.6 60.9812 89.4348 58.35 83.2L47.404 83.2C50.1912 95.2432 62.2448 104 72.8008 104ZM24.446 41.262L34.3156 54.418C35.6676 56.2224 36.4008 58.4168 36.4008 60.6736L36.4008 72.774C36.4008 75.66 38.7408 78 41.6268 78L62.38 78C65.2608 78 67.6008 75.66 67.6008 72.774L67.6008 60.6736C67.6008 58.4168 68.334 56.2224 69.686 54.418L79.5556 41.2568C81.9217 38.1039 83.2008 34.2684 83.2008 30.3264L83.2008 20.8L20.8008 20.8L20.8008 30.3264C20.8008 34.268 22.08 38.1056 24.446 41.262ZM31.2008 15.6L41.6008 15.6L41.6008 -9.09197e-07L31.2008 -4.54598e-07L31.2008 15.6ZM72.8008 15.6L72.8008 -2.27299e-06L62.4008 -1.81839e-06L62.4008 15.6L72.8008 15.6Z" fill="#FF6363"/>
</g>
<defs>
<clipPath id="clip0">
<rect y="104" width="104" height="104" transform="rotate(-90 0 104)" fill="white"/>
</clipPath>
</defs>
</svg>
