<svg width="99" height="99" viewBox="0 0 99 99" fill="none" xmlns="http://www.w3.org/2000/svg">
<path d="M16.7764 35.2093L22.2264 89.2039C22.5283 91.4859 33.547 98.9901 49.5009 99C65.4646 98.9901 76.4833 91.4859 76.7803 89.2039L82.2352 35.2093C73.8994 39.8722 61.4403 42.075 49.5009 42.075C37.5714 42.075 25.1073 39.8722 16.7764 35.2093ZM65.1825 7.4745L60.9304 2.76705C59.287 0.4257 57.505 0 54.0351 0H44.9716C41.5066 0 39.7197 0.4257 38.0812 2.76705L33.8292 7.4745C21.1077 9.69705 11.8809 15.5925 11.8809 19.9435V20.785C11.8809 28.4427 28.7257 34.65 49.5009 34.65C70.281 34.65 87.1258 28.4427 87.1258 20.785V19.9435C87.1258 15.5925 77.904 9.69705 65.1825 7.4745ZM59.7474 21.483L54.4509 14.85H44.5509L39.2643 21.483H30.8493C30.8493 21.483 40.0662 10.489 41.2987 8.9991C42.2392 7.8606 43.1995 7.425 44.4469 7.425H54.5598C55.8121 7.425 56.7724 7.8606 57.7129 8.9991C58.9405 10.489 68.1624 21.483 68.1624 21.483H59.7474Z" fill="#89664C"/>
</svg>
