<svg width="75" height="69" viewBox="0 0 75 69" fill="none" xmlns="http://www.w3.org/2000/svg">
<path d="M61.8665 65.5006V51.334C65.8332 50.7673 68.6665 47.3673 68.6665 42.834C68.6665 38.3007 64.6998 34.334 60.1665 34.334C55.6332 34.334 51.6665 38.3007 51.6665 42.834C51.6665 46.8007 54.4998 50.7673 58.4665 51.334V65.5006H34.6665V0.333984H6.33317V65.5006H0.666504V68.334H74.3332V65.5006H61.8665ZM28.9998 51.334H11.9998V45.6673H28.9998V51.334ZM28.9998 40.0006H11.9998V34.334H28.9998V40.0006ZM28.9998 28.6673H11.9998V23.0007H28.9998V28.6673ZM28.9998 17.334H11.9998V11.6673H28.9998V17.334Z" fill="#FFCC6A"/>
</svg>
