<svg width="50" height="40" viewBox="0 0 50 40" fill="none" xmlns="http://www.w3.org/2000/svg">
<path d="M23.2842 20.7013C22.9434 21.0393 22.7109 21.4712 22.6165 21.9418C22.5221 22.4124 22.57 22.9005 22.7541 23.3439C22.9381 23.7872 23.2501 24.1656 23.6501 24.431C24.0501 24.6963 24.52 24.8366 25 24.8338H25.4592C25.6193 24.8114 25.7745 24.7624 25.9184 24.6888C26.0668 24.6405 26.2058 24.5669 26.3292 24.4713L26.6917 24.1813C26.9182 23.9566 27.098 23.6893 27.2207 23.3948C27.3434 23.1003 27.4066 22.7845 27.4066 22.4654C27.4066 22.1464 27.3434 21.8305 27.2207 21.536C27.098 21.2416 26.9182 20.9743 26.6917 20.7496C26.2453 20.293 25.6364 20.0316 24.9979 20.0226C24.3595 20.0135 23.7434 20.2575 23.2842 20.7013ZM25 27.2504C24.3591 27.2504 23.7444 27.505 23.2912 27.9583C22.838 28.4115 22.5834 29.0262 22.5834 29.6671V36.9171C22.5834 37.558 22.838 38.1727 23.2912 38.6259C23.7444 39.0792 24.3591 39.3338 25 39.3338C25.641 39.3338 26.2557 39.0792 26.7089 38.6259C27.1621 38.1727 27.4167 37.558 27.4167 36.9171V29.6671C27.4167 29.0262 27.1621 28.4115 26.7089 27.9583C26.2557 27.505 25.641 27.2504 25 27.2504ZM40.515 10.8654C39.0384 7.47245 36.49 4.65721 33.2604 2.85111C30.0307 1.04502 26.2979 0.347699 22.634 0.866019C18.9702 1.38434 15.5773 3.0897 12.9753 5.72078C10.3734 8.35186 8.70588 11.7635 8.22837 15.4329C5.92429 15.9847 3.90308 17.3635 2.54857 19.3073C1.19407 21.2512 0.60061 23.6248 0.880894 25.9774C1.16118 28.33 2.29569 30.4977 4.06897 32.0689C5.84225 33.6402 8.13081 34.5054 10.5 34.5004H15.3334C15.9743 34.5004 16.589 34.2458 17.0422 33.7926C17.4954 33.3394 17.75 32.7247 17.75 32.0838C17.75 31.4428 17.4954 30.8281 17.0422 30.3749C16.589 29.9217 15.9743 29.6671 15.3334 29.6671H10.5C9.21816 29.6671 7.98878 29.1579 7.08236 28.2515C6.17593 27.345 5.66671 26.1157 5.66671 24.8338C5.66671 23.5519 6.17593 22.3225 7.08236 21.4161C7.98878 20.5097 9.21816 20.0004 10.5 20.0004C11.141 20.0004 11.7557 19.7458 12.2089 19.2926C12.6621 18.8394 12.9167 18.2247 12.9167 17.5838C12.9229 14.7255 13.9421 11.962 15.7932 9.78418C17.6443 7.60635 20.2075 6.15524 23.0274 5.68863C25.8473 5.22203 28.7414 5.77015 31.1953 7.23563C33.6493 8.7011 35.5043 10.989 36.4309 13.6929C36.569 14.1082 36.8173 14.4782 37.1493 14.7634C37.4813 15.0485 37.8845 15.2382 38.3159 15.3121C39.9934 15.6015 41.5157 16.4719 42.6159 17.771C43.7161 19.07 44.3241 20.7148 44.3334 22.4171C44.3334 24.3399 43.5695 26.184 42.2099 27.5436C40.8503 28.9033 39.0062 29.6671 37.0834 29.6671H34.6667C34.0258 29.6671 33.4111 29.9217 32.9579 30.3749C32.5047 30.8281 32.25 31.4428 32.25 32.0838C32.25 32.7247 32.5047 33.3394 32.9579 33.7926C33.4111 34.2458 34.0258 34.5004 34.6667 34.5004H37.0834C39.9679 34.4738 42.7478 33.4161 44.9205 31.5185C47.0932 29.6209 48.5153 27.0086 48.9298 24.1538C49.3443 21.2991 48.7238 18.3902 47.1805 15.9531C45.6372 13.5159 43.2729 11.7113 40.515 10.8654Z" fill="#05829F"/>
</svg>
