<svg width="49" height="49" viewBox="0 0 49 49" fill="none" xmlns="http://www.w3.org/2000/svg">
<path d="M24.4998 37.9752C32.3177 37.9752 38.6553 31.6375 38.6553 23.8196C38.6553 16.0017 32.3177 9.66406 24.4998 9.66406C16.6819 9.66406 10.3442 16.0017 10.3442 23.8196C10.3442 31.6375 16.6819 37.9752 24.4998 37.9752Z" fill="#FCEA2B"/>
<path d="M15.9501 34.2695C15.0436 36.6678 12.5439 39.9563 10.2083 41.5134C15.0844 41.5134 18.5335 40.0896 21.0971 36.5637" fill="#FCEA2B"/>
<path d="M17.6943 25.8164C18.7682 25.8164 19.6387 24.9459 19.6387 23.8721C19.6387 22.7982 18.7682 21.9277 17.6943 21.9277C16.6205 21.9277 15.75 22.7982 15.75 23.8721C15.75 24.9459 16.6205 25.8164 17.6943 25.8164Z" fill="black"/>
<path d="M24.5 25.8164C25.5738 25.8164 26.4444 24.9459 26.4444 23.8721C26.4444 22.7982 25.5738 21.9277 24.5 21.9277C23.4262 21.9277 22.5557 22.7982 22.5557 23.8721C22.5557 24.9459 23.4262 25.8164 24.5 25.8164Z" fill="black"/>
<path d="M31.3057 25.8164C32.3795 25.8164 33.25 24.9459 33.25 23.8721C33.25 22.7982 32.3795 21.9277 31.3057 21.9277C30.2318 21.9277 29.3613 22.7982 29.3613 23.8721C29.3613 24.9459 30.2318 25.8164 31.3057 25.8164Z" fill="black"/>
<path d="M15.9501 34.2695C15.0436 36.6678 12.5439 39.9563 10.2083 41.5134C15.0844 41.5134 18.5335 40.0896 21.0971 36.5637" stroke="black" stroke-width="2" stroke-miterlimit="10" stroke-linecap="round" stroke-linejoin="round"/>
<path d="M15.9501 34.2695C15.0436 36.6678 12.5439 39.9563 10.2083 41.5134C15.0844 41.5134 18.5335 40.0896 21.0971 36.5637" stroke="black" stroke-width="2" stroke-miterlimit="10" stroke-linecap="round" stroke-linejoin="round"/>
<path d="M13.9378 32.4067C11.9611 29.9821 10.8839 26.9484 10.8889 23.8201C10.8889 16.3027 16.9826 10.209 24.5 10.209C32.0175 10.209 38.1112 16.3027 38.1112 23.8201C38.1112 31.3375 32.0175 37.4312 24.5 37.4312C24.2482 37.4312 23.9978 37.4244 23.7487 37.4108" stroke="black" stroke-width="2" stroke-miterlimit="10" stroke-linecap="round"/>
</svg>
