<svg width="39" height="52" viewBox="0 0 39 52" fill="none" xmlns="http://www.w3.org/2000/svg">
<g clip-path="url(#clip0)">
<path d="M2.63365 51.8996H36.5755C37.9122 51.8996 38.9999 50.8119 38.9999 49.4752V15.5334C38.9999 15.5059 38.987 15.4833 38.9854 15.4574C38.9821 15.4202 38.9725 15.3879 38.9644 15.3523C38.939 15.2401 38.8893 15.1347 38.8189 15.0436C38.8076 15.0291 38.8092 15.0113 38.7979 14.9968L25.8677 0.450246C25.8628 0.445397 25.8563 0.445397 25.8515 0.440548C25.7529 0.337446 25.6284 0.262659 25.4911 0.223967C25.4604 0.214269 25.4329 0.211037 25.4006 0.206188C25.3537 0.198106 25.31 0.178711 25.2616 0.178711H2.63365C1.29698 0.178711 0.209229 1.26647 0.209229 2.60313V49.4752C0.209229 50.8119 1.29698 51.8996 2.63365 51.8996ZM26.0697 3.11226L36.3929 14.7252H26.8778C26.5223 14.7252 26.0697 14.0464 26.0697 13.513V3.11226ZM1.82551 2.60313C1.82551 2.3888 1.91065 2.18324 2.06221 2.03169C2.21376 1.88013 2.41932 1.79499 2.63365 1.79499H24.4534V13.513C24.4534 14.8206 25.5121 16.3415 26.8778 16.3415H37.3836V49.4752C37.3836 49.6896 37.2985 49.8951 37.1469 50.0467C36.9954 50.1982 36.7898 50.2834 36.5755 50.2834H2.63365C2.18109 50.2834 1.82551 49.9278 1.82551 49.4752V2.60313Z" fill="white"/>
<path d="M9.09879 22.8067H30.1104C30.3248 22.8067 30.5303 22.7216 30.6819 22.57C30.8334 22.4185 30.9186 22.2129 30.9186 21.9986C30.9186 21.7842 30.8334 21.5787 30.6819 21.4271C30.5303 21.2756 30.3248 21.1904 30.1104 21.1904H9.09879C8.88446 21.1904 8.6789 21.2756 8.52735 21.4271C8.37579 21.5787 8.29065 21.7842 8.29065 21.9986C8.29065 22.2129 8.37579 22.4185 8.52735 22.57C8.6789 22.7216 8.88446 22.8067 9.09879 22.8067Z" fill="white"/>
<path d="M9.09879 29.2716H30.1104C30.3248 29.2716 30.5303 29.1864 30.6819 29.0349C30.8334 28.8833 30.9186 28.6777 30.9186 28.4634C30.9186 28.2491 30.8334 28.0435 30.6819 27.892C30.5303 27.7404 30.3248 27.6553 30.1104 27.6553H9.09879C8.88446 27.6553 8.6789 27.7404 8.52735 27.892C8.37579 28.0435 8.29065 28.2491 8.29065 28.4634C8.29065 28.6777 8.37579 28.8833 8.52735 29.0349C8.6789 29.1864 8.88446 29.2716 9.09879 29.2716Z" fill="white"/>
<path d="M9.09879 16.3419H18.7965C19.0108 16.3419 19.2163 16.2567 19.3679 16.1052C19.5195 15.9536 19.6046 15.7481 19.6046 15.5337C19.6046 15.3194 19.5195 15.1138 19.3679 14.9623C19.2163 14.8107 19.0108 14.7256 18.7965 14.7256H9.09879C8.88446 14.7256 8.6789 14.8107 8.52735 14.9623C8.37579 15.1138 8.29065 15.3194 8.29065 15.5337C8.29065 15.7481 8.37579 15.9536 8.52735 16.1052C8.6789 16.2567 8.88446 16.3419 9.09879 16.3419Z" fill="white"/>
<path d="M9.09879 35.7364H30.1104C30.3248 35.7364 30.5303 35.6513 30.6819 35.4997C30.8334 35.3481 30.9186 35.1426 30.9186 34.9283C30.9186 34.7139 30.8334 34.5084 30.6819 34.3568C30.5303 34.2053 30.3248 34.1201 30.1104 34.1201H9.09879C8.88446 34.1201 8.6789 34.2053 8.52735 34.3568C8.37579 34.5084 8.29065 34.7139 8.29065 34.9283C8.29065 35.1426 8.37579 35.3481 8.52735 35.4997C8.6789 35.6513 8.88446 35.7364 9.09879 35.7364Z" fill="white"/>
<path d="M9.09879 42.2022H30.1104C30.3248 42.2022 30.5303 42.1171 30.6819 41.9655C30.8334 41.814 30.9186 41.6084 30.9186 41.3941C30.9186 41.1797 30.8334 40.9742 30.6819 40.8226C30.5303 40.6711 30.3248 40.5859 30.1104 40.5859H9.09879C8.88446 40.5859 8.6789 40.6711 8.52735 40.8226C8.37579 40.9742 8.29065 41.1797 8.29065 41.3941C8.29065 41.6084 8.37579 41.814 8.52735 41.9655C8.6789 42.1171 8.88446 42.2022 9.09879 42.2022Z" fill="white"/>
</g>
<defs>
<clipPath id="clip0">
<rect x="0.209229" y="0.178711" width="38.7907" height="51.7209" fill="white"/>
</clipPath>
</defs>
</svg>
