<svg width="71" height="71" viewBox="0 0 71 71" fill="none" xmlns="http://www.w3.org/2000/svg">
<path d="M47.7031 21.6328V18.3047C47.7031 17.9996 47.4535 17.75 47.1484 17.75H20.5234C20.2184 17.75 19.9688 17.9996 19.9688 18.3047V21.6328C19.9688 21.9379 20.2184 22.1875 20.5234 22.1875H47.1484C47.4535 22.1875 47.7031 21.9379 47.7031 21.6328ZM20.5234 27.7344C20.2184 27.7344 19.9688 27.984 19.9688 28.2891V31.6172C19.9688 31.9223 20.2184 32.1719 20.5234 32.1719H33.2812C33.5863 32.1719 33.8359 31.9223 33.8359 31.6172V28.2891C33.8359 27.984 33.5863 27.7344 33.2812 27.7344H20.5234ZM30.5078 59.0742H14.4219V10.2617H53.25V34.1133C53.25 34.4184 53.4996 34.668 53.8047 34.668H57.6875C57.9926 34.668 58.2422 34.4184 58.2422 34.1133V7.48828C58.2422 6.26104 57.2507 5.26953 56.0234 5.26953H11.6484C10.4212 5.26953 9.42969 6.26104 9.42969 7.48828V61.8477C9.42969 63.0749 10.4212 64.0664 11.6484 64.0664H30.5078C30.8129 64.0664 31.0625 63.8168 31.0625 63.5117V59.6289C31.0625 59.3238 30.8129 59.0742 30.5078 59.0742ZM61.4108 62.645L54.9418 56.176C56.488 54.1306 57.4102 51.579 57.4102 48.8125C57.4102 42.073 51.9465 36.6094 45.207 36.6094C38.4676 36.6094 33.0039 42.073 33.0039 48.8125C33.0039 55.552 38.4676 61.0156 45.207 61.0156C47.6893 61.0156 49.9912 60.2737 51.9188 59.0049L58.4849 65.571C58.5958 65.6819 58.7345 65.7305 58.8731 65.7305C59.0118 65.7305 59.1574 65.675 59.2614 65.571L61.4108 63.4216C61.462 63.3707 61.5026 63.3102 61.5303 63.2435C61.558 63.1769 61.5722 63.1055 61.5722 63.0333C61.5722 62.9611 61.558 62.8897 61.5303 62.8231C61.5026 62.7564 61.462 62.6959 61.4108 62.645ZM45.207 56.5781C40.9151 56.5781 37.4414 53.1044 37.4414 48.8125C37.4414 44.5206 40.9151 41.0469 45.207 41.0469C49.4989 41.0469 52.9727 44.5206 52.9727 48.8125C52.9727 53.1044 49.4989 56.5781 45.207 56.5781Z" fill="white"/>
</svg>
