<svg width="54" height="54" viewBox="0 0 54 54" fill="none" xmlns="http://www.w3.org/2000/svg">
<path d="M51.3453 5.09745C51.1094 4.81779 50.7761 4.75509 50.522 4.75509C50.3157 4.75509 50.1623 4.79716 50.1623 4.79716L49.9065 4.90441L50.1648 3.22146L47.9736 4.13883L48.2747 2.07887L46.1084 2.91952C45.9533 1.51046 44.3297 2.11022 44.3297 2.11022L25.3008 8.68115C25.3008 8.68115 24.6186 7.16649 23.9833 6.26149C22.5066 4.14791 19.9789 4.79634 19.9789 4.79634L5.46593 9.48797C5.46593 9.48797 3.46124 10.322 2.64368 12.5346C1.83686 14.7175 2.64368 17.3756 2.64368 17.3756L10.6773 51.4652L10.702 51.4471L10.7095 51.4825L47.4753 25.5296L51.7487 6.44134C51.7487 6.44051 51.9616 5.82426 51.3453 5.09745ZM6.3437 19.1732L47.3194 3.27591L47.1421 4.4878L7.17198 21.2241L8.51256 32.7853L6.3437 19.1732ZM9.09334 31.0718L8.00768 21.7083L49.1921 4.46305L49.0708 5.25585L30.7028 12.9826C30.7028 12.9826 29.5494 17.6123 27.2098 18.8283C24.6582 20.1533 12.6952 26.0073 12.6952 26.0073C12.6952 26.0073 10.9924 27.0146 10.0082 28.6357C9.50996 29.4615 9.23937 30.3838 9.09334 31.0718ZM46.0952 24.6172L12.2819 48.3971L10.4876 32.0931C10.5329 31.707 10.721 30.4407 11.3323 29.4293C12.0204 28.2949 13.2149 27.4997 13.4467 27.3528C14.5176 26.829 25.4592 21.4716 27.9259 20.1904C30.2342 18.9909 31.5071 15.658 31.9897 14.1103L50.1582 6.46691L46.0952 24.6172Z" fill="white"/>
</svg>
