<svg width="178" height="178" viewBox="0 0 178 178" fill="none" xmlns="http://www.w3.org/2000/svg">
<path d="M122.375 155.751H18.5417V14.834H89.0001L122.375 48.209V155.751Z" fill="#90CAF9"/>
<path d="M116.812 51.9173H85.2915V20.3965L116.812 51.9173Z" fill="#E1F5FE"/>
<path d="M127.956 139.358L135.298 132.016L166.756 163.481L159.413 170.823L127.956 139.358Z" fill="#616161"/>
<path d="M103.833 148.333C126.362 148.333 144.625 130.07 144.625 107.542C144.625 85.0131 126.362 66.75 103.833 66.75C81.3046 66.75 63.0415 85.0131 63.0415 107.542C63.0415 130.07 81.3046 148.333 103.833 148.333Z" fill="#616161"/>
<path d="M103.833 140.916C122.266 140.916 137.208 125.974 137.208 107.541C137.208 89.1085 122.266 74.166 103.833 74.166C85.401 74.166 70.4585 89.1085 70.4585 107.541C70.4585 125.974 85.401 140.916 103.833 140.916Z" fill="#90CAF9"/>
<path d="M136.649 147.889L143.991 140.547L166.798 163.357L159.455 170.699L136.649 147.889Z" fill="#37474F"/>
<path d="M111.25 114.957H75.2793C76.7626 120.89 80.1001 126.082 84.5501 129.79H111.25V114.957Z" fill="#1976D2"/>
<path d="M75.2793 100.124H111.25V85.291H84.1793C79.7293 88.9993 76.7626 94.191 75.2793 100.124Z" fill="#1976D2"/>
<path d="M74.5373 74.166H40.7915V81.5827H67.8623C69.7165 78.9869 71.9415 76.391 74.5373 74.166Z" fill="#1976D2"/>
<path d="M63.4123 89H40.7915V96.4167H60.8165C61.5582 93.8208 62.2998 91.225 63.4123 89Z" fill="#1976D2"/>
<path d="M59.3332 107.54C59.3332 106.428 59.3332 104.945 59.704 103.832H40.7915V111.249H59.704C59.3332 110.136 59.3332 108.653 59.3332 107.54Z" fill="#1976D2"/>
<path d="M60.8165 118.666H40.7915V126.083H63.4123C62.2998 123.858 61.5582 121.262 60.8165 118.666Z" fill="#1976D2"/>
</svg>
