<svg width="73" height="73" viewBox="0 0 73 73" fill="none" xmlns="http://www.w3.org/2000/svg">
<path d="M48.9398 57.3439H44.2021C43.8672 57.3439 43.5459 57.477 43.3091 57.7138C43.0723 57.9507 42.9392 58.2719 42.9392 58.6068H42.9341V60.8041H13.2662V26.397H26.204C26.5389 26.397 26.8601 26.264 27.097 26.0271C27.3338 25.7903 27.4669 25.4691 27.4669 25.1341V12.1963H42.9341V21.2045H42.9458C42.9617 21.5272 43.1009 21.8314 43.3347 22.0544C43.5685 22.2773 43.879 22.4019 44.2021 22.4025H48.9398C49.6151 22.4025 50.1618 21.871 50.1961 21.2045H50.2027V21.1403V21.1396V9.1245H50.1991V6.19063C50.1991 5.85569 50.066 5.53447 49.8292 5.29763C49.5923 5.06079 49.2711 4.92773 48.9362 4.92773H24.9403L5.99756 23.8712V66.8091C5.99756 67.507 6.56258 68.072 7.26046 68.072H48.9354C49.2704 68.072 49.5916 67.9389 49.8284 67.7021C50.0653 67.4653 50.1983 67.144 50.1983 66.8091V65.0221H50.202V58.6054C50.202 58.4396 50.1693 58.2756 50.1059 58.1225C50.0424 57.9694 49.9495 57.8303 49.8323 57.7131C49.715 57.596 49.5759 57.5031 49.4228 57.4397C49.2696 57.3764 49.1055 57.3438 48.9398 57.3439Z" fill="white"/>
<path d="M66.6323 28.4999L58.1489 20.0165C58.0317 19.8992 57.8924 19.8061 57.7392 19.7427C57.5859 19.6792 57.4217 19.6465 57.2558 19.6465C57.0899 19.6465 56.9256 19.6792 56.7724 19.7427C56.6191 19.8061 56.4799 19.8992 56.3626 20.0165L33.145 43.2342L33.1953 43.2845L33.1158 43.2634L29.9395 55.1164L29.9417 55.1171C29.8671 55.3386 29.8558 55.5765 29.9089 55.8041C29.962 56.0317 30.0775 56.24 30.2425 56.4056C30.4253 56.588 30.6598 56.7098 30.9142 56.7544C31.1687 56.7989 31.4306 56.764 31.6645 56.6545L31.666 56.6589L43.4044 53.5133L43.3971 53.4863L43.4139 53.5038L66.6323 30.2854C66.7496 30.1682 66.8426 30.029 66.9061 29.8759C66.9696 29.7227 67.0022 29.5585 67.0022 29.3926C67.0022 29.2268 66.9696 29.0626 66.9061 28.9094C66.8426 28.7563 66.7496 28.6171 66.6323 28.4999ZM33.8027 52.8183L35.689 45.779L40.8421 50.932L33.8027 52.8183Z" fill="white"/>
</svg>
