<svg width="55" height="55" viewBox="0 0 55 55" fill="none" xmlns="http://www.w3.org/2000/svg">
<path d="M14.5139 24.4453H40.4861V42.7786H14.5139V24.4453Z" fill="white"/>
<path d="M19.0972 30.5547H25.9722V42.7769H19.0972V30.5547Z" fill="#A57939"/>
<path d="M30.5557 30.5547H36.6668V35.9019H30.5557V30.5547Z" fill="#92D3F5"/>
<path d="M40.4861 24.4451H14.5139V23.6812L26.7361 11.459L40.4861 23.6812V24.4451Z" fill="#EA5A47"/>
<path d="M22.1527 16.0419L18.3333 19.8613V12.9863H22.1527V16.0419Z" fill="#EA5A47"/>
<path d="M19.0972 30.5566H25.9722V42.7789H19.0972V30.5566Z" stroke="black" stroke-width="2" stroke-miterlimit="10" stroke-linecap="round" stroke-linejoin="round"/>
<path d="M30.5557 30.5566H36.6668V35.9039H30.5557V30.5566Z" stroke="black" stroke-width="2" stroke-miterlimit="10" stroke-linecap="round" stroke-linejoin="round"/>
<path d="M40.4861 24.4451H14.5139V23.6812L26.7361 11.459L40.4861 23.6812V24.4451Z" stroke="black" stroke-width="2" stroke-miterlimit="10" stroke-linecap="round" stroke-linejoin="round"/>
<path d="M14.5139 24.4453H40.4861V42.7786H14.5139V24.4453Z" stroke="black" stroke-width="2" stroke-miterlimit="10" stroke-linecap="round" stroke-linejoin="round"/>
<path d="M22.1527 16.0419L18.3333 19.8613V12.9863H22.1527V16.0419Z" stroke="black" stroke-width="2" stroke-miterlimit="10" stroke-linecap="round" stroke-linejoin="round"/>
</svg>
