<svg width="139" height="139" viewBox="0 0 139 139" fill="none" xmlns="http://www.w3.org/2000/svg">
<path d="M69.5006 0C65.7583 0 63.0531 1.57177 61.9839 3.17562C61.4493 3.71023 61.0162 4.81154 60.4816 5.34615H53.4621C47.5814 5.34615 42.7698 10.1577 42.7698 16.0385H32.0775C22.9891 16.0385 16.0391 22.9885 16.0391 32.0769V122.962C16.0391 132.05 22.9891 139 32.0775 139H106.924C116.012 139 122.962 132.05 122.962 122.962V32.0769C122.962 22.9885 116.012 16.0385 106.924 16.0385H96.2314C96.2314 10.1577 91.4198 5.34615 85.5391 5.34615H78.5196C77.9849 4.81154 77.5572 3.71023 77.0226 3.17562C75.9481 1.57177 73.2429 0 69.5006 0ZM53.4621 16.0385H85.5391V26.7308H53.4621V16.0385ZM32.0775 32.0769H44.4432C46.047 35.2846 49.7198 37.4231 53.4621 37.4231H85.5391C89.2814 37.4231 92.9542 35.2846 94.5634 32.0769H106.924V122.962H32.0775V32.0769ZM88.5489 57.1397C87.5439 57.1397 86.5709 57.5032 86.0362 58.3052L62.4864 83.3679L53.4621 74.8462C51.8583 73.2423 49.1852 73.2423 48.116 74.8462L44.4378 78.5243C42.834 80.1282 42.834 82.8012 44.4378 83.8705L59.3108 97.8988C61.4493 100.037 64.6891 99.369 66.8275 97.2305L95.7288 66.3297C96.7981 65.2605 96.8355 63.0846 95.2316 61.4808L91.3824 58.3052C91.0105 57.933 90.5687 57.6379 90.0825 57.437C89.5962 57.2361 89.0751 57.1332 88.5489 57.1343V57.1397Z" fill="#1D7BC7"/>
</svg>
