<svg width="128" height="128" viewBox="0 0 128 128" fill="none" xmlns="http://www.w3.org/2000/svg">
<path d="M63.9998 123.201C31.3566 123.201 4.7998 96.644 4.7998 64.0008C4.7998 31.3576 31.3566 4.80078 63.9998 4.80078C96.643 4.80078 123.2 31.3576 123.2 64.0008C123.2 96.644 96.643 123.201 63.9998 123.201ZM63.9998 8.00078C33.123 8.00078 7.9998 33.124 7.9998 64.0008C7.9998 94.8776 33.123 120.001 63.9998 120.001C94.8766 120.001 120 94.8776 120 64.0008C120 33.124 94.8766 8.00078 63.9998 8.00078Z" fill="#FEBA37"/>
<path d="M64.0512 100.477C51.728 100.477 40.4991 94.2145 34.0063 83.7249L36.7295 82.0449C39.5944 86.7146 43.6124 90.5687 48.3972 93.2368C53.182 95.905 58.5728 97.2973 64.0512 97.2801C69.4977 97.2953 74.8578 95.9183 79.6227 93.2799C84.3876 90.6416 88.3992 86.8293 91.2768 82.2049L93.9904 83.9041C90.8246 88.9877 86.4127 93.1784 81.1731 96.0788C75.9335 98.9792 70.0399 100.493 64.0512 100.477Z" fill="#FEBA37"/>
<path d="M46.1312 46.6617C47.8985 46.6617 49.3312 45.229 49.3312 43.4617C49.3312 41.6944 47.8985 40.2617 46.1312 40.2617C44.3638 40.2617 42.9312 41.6944 42.9312 43.4617C42.9312 45.229 44.3638 46.6617 46.1312 46.6617Z" fill="#FEBA37"/>
<path d="M80.2688 46.6617C82.0362 46.6617 83.4688 45.229 83.4688 43.4617C83.4688 41.6944 82.0362 40.2617 80.2688 40.2617C78.5015 40.2617 77.0688 41.6944 77.0688 43.4617C77.0688 45.229 78.5015 46.6617 80.2688 46.6617Z" fill="#FEBA37"/>
</svg>
