<svg width="223" height="186" viewBox="0 0 223 186" fill="none" xmlns="http://www.w3.org/2000/svg">
<g opacity="0.5">
<path fill-rule="evenodd" clip-rule="evenodd" d="M146.25 165L123 153V118.656L174.75 93L198 105V139.5L146.25 165Z" fill="#24AE5F"/>
<path fill-rule="evenodd" clip-rule="evenodd" d="M123 150.554V153.537L146.193 165.469L197.815 140.113V137.13L146.193 162.486L123 150.554ZM123 145.334V148.317L146.193 160.249L197.815 134.894V131.91L146.193 157.266L123 145.334ZM123 134.893V137.876L146.193 149.808L197.815 124.453V121.47L146.193 146.825L123 134.893ZM123 140.113V143.096L146.193 155.028L197.815 129.672V126.689L146.193 152.046L123 140.113ZM123 129.673V132.656L146.193 144.588L197.815 119.232V116.25L146.193 141.605L123 129.673ZM146.251 131.135L123 119.084V122.097L146.251 134.147L198.003 108.54V105.527L146.251 131.135V131.135ZM123 124.453V127.436L146.251 139.368L198.003 114.012V111.029L146.251 136.385L123 124.453Z" fill="#1E9450"/>
<path fill-rule="evenodd" clip-rule="evenodd" d="M171.133 177.885L147.998 165.952V136.648L199.493 111.293L223 123.3V152.3L171.133 177.885Z" fill="#24AE5F"/>
<path fill-rule="evenodd" clip-rule="evenodd" d="M148 163.086V166.069L171.25 178.001L223 152.645V149.662L171.25 175.018L148 163.086ZM148 157.866V160.849L171.25 172.781L223 147.425V144.442L171.25 169.797L148 157.866ZM148 147.425V150.408L171.25 162.34L223 136.984V134.001L171.25 159.357L148 147.425V147.425ZM148 152.645V155.628L171.25 167.561L223 142.205V139.222L171.25 164.577L148 152.645V152.645ZM148 142.205V145.188L171.25 157.12L223 131.764V128.781L171.25 154.137L148 142.205V142.205ZM171.25 148.572L148 136.641V139.624L171.25 151.556L223 126.2V123.217L171.25 148.572V148.572Z" fill="#1E9450"/>
<path opacity="0.1" d="M146.193 131.165L123 119.25V153.594L146.25 165.5L146.193 131.165ZM171.193 148.6L148 136.685V165.977L171.25 177.883L171.193 148.6V148.6Z" fill="black"/>
<path fill-rule="evenodd" clip-rule="evenodd" d="M182.996 136.608L171.633 142.067L161.931 136.847L175.069 130.411C175.069 130.411 174.157 127.791 174.715 127.392C174.705 127.439 155.329 137.084 155.329 137.084L171.912 145.375L188.96 136.852C188.96 136.852 187.291 136.907 185.812 136.846C184.31 136.786 182.996 136.608 182.996 136.608V136.608ZM196.442 133.112L216.5 123.499L200.201 114.65L183.169 123.165C185.751 123.032 187.866 124.143 187.866 124.143L199.992 118.203L210.44 123.424L196.45 130.144L196.442 133.112Z" fill="#1E9450"/>
<path d="M187.235 132.959C187.911 132.98 188.585 132.877 189.225 132.657L185.696 130.787L185.396 130.865L185.012 130.988C184.489 131.145 183.953 131.29 183.402 131.421C182.851 131.552 182.291 131.634 181.722 131.667C181.153 131.7 180.585 131.666 180.02 131.566C179.428 131.457 178.857 131.255 178.327 130.969C177.753 130.665 177.354 130.339 177.131 129.992C176.908 129.644 176.825 129.298 176.881 128.952C176.937 128.606 177.117 128.266 177.419 127.933C177.756 127.571 178.144 127.26 178.57 127.009L177.27 126.32L178.251 125.8L179.551 126.489C180.112 126.252 180.692 126.061 181.285 125.919C181.885 125.774 182.499 125.689 183.116 125.664C183.748 125.641 184.381 125.687 185.003 125.801C185.656 125.921 186.29 126.127 186.889 126.413L184.528 127.664C184.04 127.425 183.507 127.292 182.964 127.275C182.383 127.249 181.904 127.336 181.527 127.536L184.516 129.12L185.025 128.958L185.584 128.787C186.629 128.472 187.54 128.285 188.315 128.225C189.09 128.167 189.764 128.177 190.335 128.256C190.906 128.336 191.391 128.461 191.79 128.63C192.189 128.801 192.53 128.961 192.811 129.11C193.059 129.241 193.31 129.439 193.565 129.704C193.82 129.969 193.97 130.28 194.014 130.638C194.059 130.996 193.955 131.391 193.705 131.822C193.454 132.253 192.941 132.704 192.167 133.175L193.602 133.936L192.621 134.456L191.186 133.695C189.854 134.305 188.496 134.613 187.111 134.619C185.726 134.626 184.314 134.306 182.874 133.66L185.218 132.418C185.836 132.761 186.529 132.946 187.235 132.959V132.959ZM190.685 131.73C190.828 131.577 190.918 131.419 190.955 131.256C190.991 131.089 190.965 130.915 190.881 130.767C190.795 130.604 190.617 130.451 190.346 130.308C189.919 130.078 189.436 129.971 188.951 130C188.46 130.028 187.797 130.167 186.963 130.418L190.205 132.136C190.381 132.021 190.542 131.884 190.685 131.73V131.73ZM180.08 128.392C179.968 128.498 179.892 128.635 179.86 128.786C179.848 128.858 179.85 128.931 179.867 129.002C179.884 129.073 179.915 129.14 179.958 129.199C180.049 129.336 180.213 129.467 180.45 129.592C180.822 129.789 181.225 129.88 181.66 129.864C182.095 129.848 182.641 129.731 183.297 129.515L180.544 128.057C180.373 128.144 180.216 128.257 180.08 128.392V128.392Z" fill="#1E9450"/>
<path fill-rule="evenodd" clip-rule="evenodd" d="M157.583 118.608L146.22 124.067L136.518 118.847L149.656 112.411C149.656 112.411 148.743 109.791 149.302 109.392C149.292 109.439 129.916 119.084 129.916 119.084L146.499 127.375L163.547 118.852C163.547 118.852 161.878 118.907 160.399 118.846C158.897 118.786 157.583 118.608 157.583 118.608V118.608ZM171.029 115.112L191.087 105.499L174.788 96.6504L157.756 105.165C160.338 105.032 162.453 106.143 162.453 106.143L174.579 100.203L185.027 105.424L171.038 112.144L171.029 115.112V115.112Z" fill="#1E9450"/>
<path d="M161.822 114.958C162.498 114.979 163.173 114.877 163.812 114.656L160.282 112.786L159.982 112.864L159.598 112.987C159.066 113.147 158.529 113.291 157.988 113.42C157.437 113.551 156.877 113.633 156.308 113.666C155.739 113.699 155.172 113.665 154.606 113.565C154.014 113.456 153.443 113.254 152.913 112.968C152.339 112.664 151.94 112.338 151.717 111.991C151.494 111.643 151.411 111.297 151.467 110.951C151.524 110.605 151.703 110.266 152.005 109.933C152.342 109.571 152.73 109.26 153.156 109.009L151.856 108.32L152.837 107.8L154.137 108.489C154.698 108.252 155.278 108.061 155.871 107.919C156.471 107.774 157.085 107.689 157.702 107.664C158.334 107.641 158.967 107.687 159.589 107.801C160.242 107.921 160.876 108.127 161.475 108.413L159.114 109.664C158.626 109.425 158.093 109.292 157.55 109.275C156.969 109.249 156.49 109.336 156.113 109.536L159.102 111.12L159.611 110.957L160.17 110.786C161.215 110.471 162.126 110.284 162.901 110.224C163.676 110.165 164.35 110.176 164.921 110.255C165.492 110.335 165.977 110.46 166.376 110.63C166.775 110.801 167.116 110.961 167.397 111.11C167.645 111.241 167.896 111.439 168.151 111.704C168.406 111.969 168.556 112.28 168.6 112.638C168.645 112.996 168.541 113.391 168.291 113.822C168.04 114.253 167.527 114.704 166.753 115.175L168.188 115.936L167.207 116.456L165.772 115.695C164.44 116.305 163.082 116.613 161.697 116.619C160.312 116.626 158.9 116.306 157.46 115.66L159.804 114.418C160.434 114.763 161.107 114.943 161.822 114.958V114.958ZM165.272 113.729C165.415 113.576 165.505 113.418 165.541 113.255C165.577 113.088 165.551 112.914 165.467 112.766C165.381 112.603 165.203 112.45 164.932 112.306C164.505 112.076 164.022 111.969 163.537 111.998L161.549 112.417L164.791 114.135C164.969 114.018 165.129 113.883 165.272 113.729ZM154.667 110.391C154.555 110.497 154.479 110.634 154.447 110.785C154.435 110.857 154.437 110.93 154.454 111.001C154.471 111.072 154.502 111.139 154.545 111.198C154.637 111.335 154.8 111.466 155.037 111.591C155.409 111.788 155.812 111.879 156.248 111.863C156.683 111.847 157.229 111.73 157.885 111.514L155.132 110.056C154.96 110.142 154.803 110.256 154.667 110.391V110.391Z" fill="#1E9450"/>
</g>
<path d="M80.5 155.969C122.18 155.969 155.969 122.18 155.969 80.5C155.969 38.8198 122.18 5.03125 80.5 5.03125C38.8198 5.03125 5.03125 38.8198 5.03125 80.5C5.03125 122.18 38.8198 155.969 80.5 155.969Z" fill="#BDC6FF"/>
<path d="M47.7969 52.3251C47.7969 46.2876 61.1297 49.0548 65.4062 53.3314C67.9219 49.0548 66.6641 45.2814 66.6641 45.2814C66.6641 45.2814 62.8906 42.5142 57.1047 41.5079V35.9736C52.5766 34.4642 47.5453 35.9736 47.5453 35.9736V41.2564C47.5453 41.2564 38.4891 43.0173 38.4891 52.3251C38.4891 64.6517 57.1047 62.1361 57.1047 69.9345C57.1047 75.7204 44.5266 73.2048 38.4891 68.6767C36.4766 73.2048 38.4891 77.2298 38.4891 77.2298C43.0172 79.2423 47.5453 79.7454 47.5453 79.7454V84.7767C47.5453 84.7767 52.5766 86.2861 57.1047 84.7767V79.4939C57.1047 79.4939 67.6703 78.9908 67.6703 69.9345C67.9219 58.1111 47.7969 59.1173 47.7969 52.3251Z" fill="#664E27"/>
<path d="M103.141 52.3251C103.141 46.2876 116.473 49.0548 120.75 53.3314C123.266 49.0548 122.008 45.2814 122.008 45.2814C122.008 45.2814 118.234 42.5142 112.448 41.5079V35.9736C107.92 34.4642 102.889 35.9736 102.889 35.9736V41.2564C102.889 41.2564 93.8328 43.0173 93.8328 52.3251C93.8328 64.6517 112.448 62.1361 112.448 69.9345C112.448 75.7204 99.8703 73.2048 93.8328 68.6767C91.8203 73.2048 93.8328 77.2298 93.8328 77.2298C98.3609 79.2423 102.889 79.7454 102.889 79.7454V84.7767C102.889 84.7767 107.92 86.2861 112.448 84.7767V79.4939C112.448 79.4939 123.014 78.9908 123.014 69.9345C123.266 58.1111 103.141 59.1173 103.141 52.3251" fill="#664E27"/>
<path d="M120.498 95.5938H40.5016C38.7406 95.5938 37.7344 96.8516 37.7344 98.1094C37.7344 116.473 52.8281 135.844 80.5 135.844C108.172 135.844 123.266 116.473 123.266 98.1094C123.266 96.8516 122.259 95.5938 120.498 95.5938Z" fill="#664E27"/>
<path d="M103.644 110.688H80.5H57.3562C55.5953 110.688 55.3438 111.442 55.3438 112.7V122.762C55.3438 144.9 66.6641 155.969 80.5 155.969C94.3359 155.969 105.656 144.9 105.656 122.762V112.7C105.656 111.442 105.405 110.688 103.644 110.688Z" fill="#74E063"/>
<path d="M77.2297 124.522C77.2297 120.497 85.5312 122.51 88.2984 125.277C90.0594 122.51 89.0531 119.994 89.0531 119.994C89.0531 119.994 86.5375 118.233 83.0156 117.478V113.705C80.2484 112.699 76.9781 113.705 76.9781 113.705V117.227C76.9781 117.227 71.1922 118.233 71.1922 124.522C71.1922 132.572 83.0156 130.811 83.0156 136.094C83.0156 139.868 75.2172 138.358 71.1922 135.339C69.9344 138.358 71.1922 140.874 71.1922 140.874C73.9594 142.132 76.9781 142.635 76.9781 142.635V145.905C76.9781 145.905 79.9969 146.911 83.0156 145.905V142.383C83.0156 142.383 89.5562 141.88 89.5562 136.094C90.0594 128.296 77.2297 129.05 77.2297 124.522" fill="#449636"/>
<path d="M99.6187 110.688V119.492C99.6187 140.372 92.0719 149.68 80.5 149.68C68.9281 149.68 61.3812 140.623 61.3812 119.492V110.688H59.3687V119.492C59.3687 141.881 67.6703 151.944 80.5 151.944C93.3297 151.944 101.631 141.881 101.631 119.492V110.688H99.6187Z" fill="#449636"/>
</svg>
