<svg width="49" height="46" viewBox="0 0 49 46" fill="none" xmlns="http://www.w3.org/2000/svg">
<g clip-path="url(#clip0)">
<path d="M38.8341 22.8447C44.3627 22.8447 48.8446 20.3051 48.8446 17.1724C48.8446 14.0396 44.3627 11.5 38.8341 11.5C33.3055 11.5 28.8237 14.0396 28.8237 17.1724C28.8237 20.3051 33.3055 22.8447 38.8341 22.8447Z" fill="white"/>
<path fill-rule="evenodd" clip-rule="evenodd" d="M38.9836 26.1093C31.8238 26.1093 28.9731 23.1164 28.9731 21.3828V28.8089C28.9731 31.9427 33.4552 34.4784 38.9836 34.4784C44.5177 34.4784 48.9997 31.9427 48.9997 28.8089V21.5611C48.9997 23.2976 46.1462 26.1093 38.9836 26.1093Z" fill="white"/>
<path fill-rule="evenodd" clip-rule="evenodd" d="M38.9836 37.5834C32.579 37.5834 28.9731 34.7056 28.9731 32.9719V40.3291C28.9731 43.4628 33.4552 46.0014 38.9836 46.0014C44.5177 46.0014 48.9997 43.4628 48.9997 40.3291V32.8828C48.9997 34.6164 45.391 37.5834 38.9836 37.5834Z" fill="white"/>
<path d="M14.2301 11.3448C20.4974 11.3448 25.578 8.80514 25.578 5.67238C25.578 2.53961 20.4974 0 14.2301 0C7.96292 0 2.88232 2.53961 2.88232 5.67238C2.88232 8.80514 7.96292 11.3448 14.2301 11.3448Z" fill="white"/>
<path fill-rule="evenodd" clip-rule="evenodd" d="M14.5905 14.6093C6.47668 14.6093 3.24268 11.6164 3.24268 9.88281V17.3089C3.24268 20.4427 8.32426 22.9784 14.5905 22.9784C20.8625 22.9784 25.9412 20.4427 25.9412 17.3089V10.0611C25.9412 11.7976 22.7043 14.6093 14.5905 14.6093Z" fill="white"/>
<path fill-rule="evenodd" clip-rule="evenodd" d="M14.5905 26.0834C7.32985 26.0834 3.24268 23.2056 3.24268 21.4719V28.8291C3.24268 31.9628 8.32426 34.5014 14.5905 34.5014C20.8625 34.5014 25.9412 31.9628 25.9412 28.8291V21.3828C25.9412 23.1164 21.8483 26.0834 14.5905 26.0834Z" fill="white"/>
<path fill-rule="evenodd" clip-rule="evenodd" d="M14.5905 37.5834C7.32985 37.5834 3.24268 34.7056 3.24268 32.9719V40.3291C3.24268 43.4628 8.32426 46.0014 14.5905 46.0014C20.8625 46.0014 25.9412 43.4628 25.9412 40.3291V32.8828C25.9412 34.6164 21.8483 37.5834 14.5905 37.5834Z" fill="white"/>
</g>
<defs>
<clipPath id="clip0">
<rect width="49" height="46" fill="white"/>
</clipPath>
</defs>
</svg>
