<svg width="55" height="55" viewBox="0 0 55 55" fill="none" xmlns="http://www.w3.org/2000/svg">
<path d="M27.5 0C26.0193 0 24.9489 0.621923 24.5258 1.25654C24.3143 1.46808 24.1429 1.90385 23.9314 2.11538H21.1539C18.827 2.11538 16.9231 4.01923 16.9231 6.34615H12.6923C9.09619 6.34615 6.34619 9.09615 6.34619 12.6923V48.6538C6.34619 52.25 9.09619 55 12.6923 55H42.3077C45.9039 55 48.6539 52.25 48.6539 48.6538V12.6923C48.6539 9.09615 45.9039 6.34615 42.3077 6.34615H38.077C38.077 4.01923 36.1731 2.11538 33.8462 2.11538H31.0687C30.8572 1.90385 30.6879 1.46808 30.4764 1.25654C30.0512 0.621923 28.9808 0 27.5 0ZM21.1539 6.34615H33.8462V10.5769H21.1539V6.34615ZM12.6923 12.6923H17.5852C18.2198 13.9615 19.6731 14.8077 21.1539 14.8077H33.8462C35.327 14.8077 36.7802 13.9615 37.417 12.6923H42.3077V48.6538H12.6923V12.6923ZM35.0372 22.6092C34.6395 22.6092 34.2545 22.7531 34.0429 23.0704L24.7247 32.9873L21.1539 29.6154C20.5193 28.9808 19.4616 28.9808 19.0385 29.6154L17.5831 31.0708C16.9485 31.7054 16.9485 32.7631 17.5831 33.1862L23.4681 38.7369C24.3143 39.5831 25.5962 39.3187 26.4423 38.4725L37.8781 26.2456C38.3012 25.8225 38.316 24.9615 37.6814 24.3269L36.1583 23.0704C36.0112 22.9231 35.8364 22.8064 35.644 22.7269C35.4515 22.6474 35.2453 22.6067 35.0372 22.6071V22.6092Z" fill="white"/>
</svg>
