<svg width="479" height="602" viewBox="0 0 479 602" fill="none" xmlns="http://www.w3.org/2000/svg">
<path d="M0 4.99998C0 1.68627 2.68629 -1 6 -1H479V602H6C2.68629 602 0 599.314 0 596V4.99998Z" fill="#5B68A4"/>
<path d="M299.175 164.883L72.2635 235.507C67.1474 237.099 64.2887 242.544 65.8784 247.668L106.7 379.256C108.29 384.381 113.726 387.244 118.842 385.652L345.753 315.029C350.869 313.436 353.728 307.991 352.138 302.867L311.317 171.279C309.727 166.154 304.291 163.291 299.175 164.883Z" fill="url(#paint0_linear)"/>
<path d="M297.999 166.961L76.0955 236.026C70.9794 237.618 68.1207 243.063 69.7104 248.188L108.883 374.462C110.473 379.586 115.909 382.45 121.025 380.857L342.929 311.793C348.045 310.2 350.904 304.755 349.314 299.631L310.141 173.357C308.552 168.232 303.115 165.369 297.999 166.961Z" fill="white"/>
<path d="M313.181 183.164L72.75 257.995L79.1934 278.766L319.624 203.935L313.181 183.164Z" fill="#6C63FF"/>
<path d="M183.546 331.851L122.457 350.864L125.243 359.846L186.332 340.833L183.546 331.851Z" fill="#BDBDBD"/>
<path d="M223.678 302.741L117.754 335.708L120.54 344.69L226.464 311.722L223.678 302.741Z" fill="#E0E0E0"/>
<path d="M378.736 247.062H139.673C134.316 247.062 129.973 251.412 129.973 256.778V394.727C129.973 400.093 134.316 404.443 139.673 404.443H378.736C384.093 404.443 388.436 400.093 388.436 394.727V256.778C388.436 251.412 384.093 247.062 378.736 247.062Z" fill="url(#paint1_linear)"/>
<path d="M374.98 248.666H142.611C137.253 248.666 132.91 253.016 132.91 258.382V390.612C132.91 395.978 137.253 400.328 142.611 400.328H374.98C380.338 400.328 384.681 395.978 384.681 390.612V258.382C384.681 253.016 380.338 248.666 374.98 248.666Z" fill="white"/>
<path d="M200.117 322.291H192.781V343.159H200.117V322.291Z" fill="#E0E0E0"/>
<path d="M209.508 322.291H202.172V343.159H209.508V322.291Z" fill="#E0E0E0"/>
<path d="M218.898 322.291H211.562V343.159H218.898V322.291Z" fill="#E0E0E0"/>
<path d="M235.328 322.291H227.992V343.159H235.328V322.291Z" fill="#E0E0E0"/>
<path d="M244.719 322.291H237.383V343.159H244.719V322.291Z" fill="#E0E0E0"/>
<path d="M254.113 322.291H246.777V343.159H254.113V322.291Z" fill="#E0E0E0"/>
<path d="M270.543 322.291H263.207V343.159H270.543V322.291Z" fill="#E0E0E0"/>
<path d="M279.934 322.291H272.598V343.159H279.934V322.291Z" fill="#E0E0E0"/>
<path d="M289.32 322.291H281.984V343.159H289.32V322.291Z" fill="#E0E0E0"/>
<path d="M305.754 322.291H298.418V343.159H305.754V322.291Z" fill="#E0E0E0"/>
<path d="M315.148 322.291H307.812V343.159H315.148V322.291Z" fill="#E0E0E0"/>
<path d="M324.535 322.291H317.199V343.159H324.535V322.291Z" fill="#E0E0E0"/>
<path d="M192.666 288.399H148.926V312.425H192.666V288.399Z" fill="#6C63FF"/>
<path opacity="0.1" d="M345.757 367.189H318.949V394.042H345.757V367.189Z" fill="#6C63FF"/>
<path opacity="0.1" d="M359.16 367.189H332.352V394.042H359.16V367.189Z" fill="#6C63FF"/>
<path d="M143.926 434.443V425.115L139.782 432.331H139.126L134.982 425.115V434.443H133.862V423.083H135.014L139.446 430.859L143.91 423.083H145.046V434.443H143.926ZM149.687 434.603C149.292 434.603 148.924 434.539 148.583 434.411C148.252 434.273 147.959 434.086 147.703 433.851C147.457 433.617 147.265 433.345 147.127 433.035C146.988 432.715 146.919 432.374 146.919 432.011C146.919 431.649 147.004 431.313 147.175 431.003C147.345 430.694 147.585 430.427 147.895 430.203C148.204 429.979 148.572 429.809 148.999 429.691C149.425 429.563 149.895 429.499 150.407 429.499C150.833 429.499 151.265 429.537 151.703 429.611C152.14 429.686 152.529 429.793 152.871 429.931V429.179C152.871 428.443 152.663 427.862 152.247 427.435C151.831 426.998 151.255 426.779 150.519 426.779C150.092 426.779 149.655 426.865 149.207 427.035C148.759 427.206 148.305 427.451 147.847 427.771L147.463 427.051C148.54 426.326 149.585 425.963 150.599 425.963C151.644 425.963 152.465 426.257 153.063 426.843C153.66 427.43 153.959 428.241 153.959 429.275V433.035C153.959 433.334 154.092 433.483 154.359 433.483V434.443C154.177 434.475 154.039 434.491 153.943 434.491C153.665 434.491 153.447 434.422 153.287 434.283C153.137 434.145 153.057 433.953 153.047 433.707L153.015 433.051C152.631 433.553 152.145 433.937 151.559 434.203C150.983 434.47 150.359 434.603 149.687 434.603ZM149.943 433.771C150.508 433.771 151.025 433.665 151.495 433.451C151.975 433.238 152.337 432.955 152.583 432.603C152.679 432.507 152.748 432.406 152.791 432.299C152.844 432.182 152.871 432.075 152.871 431.979V430.619C152.508 430.481 152.129 430.374 151.735 430.299C151.351 430.225 150.956 430.187 150.551 430.187C149.783 430.187 149.159 430.347 148.679 430.667C148.199 430.987 147.959 431.409 147.959 431.931C147.959 432.187 148.007 432.427 148.103 432.651C148.209 432.875 148.348 433.073 148.519 433.243C148.7 433.403 148.913 433.531 149.159 433.627C149.404 433.723 149.665 433.771 149.943 433.771ZM162.261 434.443L159.189 430.171L157.397 431.835V434.443H156.309V422.763H157.397V430.699L162.085 426.123H163.317L159.909 429.531L163.445 434.443H162.261ZM167.956 434.603C167.348 434.603 166.788 434.491 166.276 434.267C165.775 434.033 165.338 433.718 164.964 433.323C164.591 432.918 164.298 432.454 164.084 431.931C163.882 431.409 163.78 430.849 163.78 430.251C163.78 429.665 163.882 429.115 164.084 428.603C164.298 428.081 164.586 427.627 164.948 427.243C165.322 426.849 165.764 426.539 166.276 426.315C166.788 426.081 167.343 425.963 167.94 425.963C168.548 425.963 169.103 426.081 169.604 426.315C170.116 426.539 170.554 426.849 170.916 427.243C171.279 427.638 171.562 428.091 171.764 428.603C171.967 429.115 172.068 429.659 172.068 430.235C172.068 430.321 172.068 430.406 172.068 430.491C172.068 430.577 172.063 430.635 172.052 430.667H164.916C164.948 431.115 165.05 431.531 165.22 431.915C165.402 432.289 165.631 432.614 165.908 432.891C166.186 433.169 166.5 433.387 166.852 433.547C167.215 433.697 167.599 433.771 168.004 433.771C168.271 433.771 168.538 433.734 168.804 433.659C169.071 433.585 169.316 433.483 169.54 433.355C169.764 433.227 169.967 433.073 170.148 432.891C170.33 432.699 170.468 432.491 170.564 432.267L171.508 432.523C171.38 432.833 171.199 433.115 170.964 433.371C170.73 433.617 170.458 433.835 170.148 434.027C169.839 434.209 169.498 434.347 169.124 434.443C168.751 434.55 168.362 434.603 167.956 434.603ZM171.028 429.835C170.996 429.387 170.89 428.982 170.708 428.619C170.538 428.246 170.314 427.926 170.036 427.659C169.77 427.393 169.455 427.185 169.092 427.035C168.74 426.886 168.362 426.811 167.956 426.811C167.551 426.811 167.167 426.886 166.804 427.035C166.442 427.185 166.122 427.393 165.844 427.659C165.578 427.926 165.359 428.246 165.188 428.619C165.028 428.993 164.932 429.398 164.9 429.835H171.028ZM185.761 434.443L184.449 433.067C184.001 433.547 183.484 433.926 182.897 434.203C182.321 434.47 181.692 434.603 181.009 434.603C180.508 434.603 180.033 434.529 179.585 434.379C179.148 434.23 178.764 434.022 178.433 433.755C178.113 433.478 177.857 433.153 177.665 432.779C177.473 432.395 177.377 431.974 177.377 431.515C177.377 431.131 177.441 430.779 177.569 430.459C177.697 430.139 177.873 429.846 178.097 429.579C178.321 429.302 178.577 429.046 178.865 428.811C179.153 428.577 179.457 428.353 179.777 428.139C179.489 427.83 179.244 427.553 179.041 427.307C178.849 427.062 178.689 426.838 178.561 426.635C178.444 426.422 178.358 426.219 178.305 426.027C178.252 425.835 178.225 425.638 178.225 425.435C178.225 425.083 178.294 424.758 178.433 424.459C178.582 424.15 178.785 423.883 179.041 423.659C179.297 423.435 179.596 423.259 179.937 423.131C180.289 423.003 180.668 422.939 181.073 422.939C181.446 422.939 181.793 422.993 182.113 423.099C182.433 423.206 182.71 423.361 182.945 423.563C183.19 423.755 183.382 423.99 183.521 424.267C183.66 424.545 183.729 424.849 183.729 425.179C183.729 425.51 183.66 425.814 183.521 426.091C183.393 426.358 183.217 426.614 182.993 426.859C182.769 427.105 182.508 427.339 182.209 427.563C181.91 427.787 181.59 428.011 181.249 428.235L184.433 431.563C184.646 431.158 184.812 430.721 184.929 430.251C185.057 429.771 185.121 429.27 185.121 428.747H186.049C186.038 429.409 185.948 430.033 185.777 430.619C185.617 431.206 185.382 431.745 185.073 432.235L187.201 434.443H185.761ZM181.121 433.723C181.665 433.723 182.166 433.611 182.625 433.387C183.084 433.153 183.489 432.833 183.841 432.427L180.401 428.795C179.836 429.19 179.366 429.606 178.993 430.043C178.62 430.47 178.433 430.971 178.433 431.547C178.433 431.899 178.508 432.214 178.657 432.491C178.817 432.758 179.025 432.987 179.281 433.179C179.537 433.361 179.825 433.499 180.145 433.595C180.465 433.681 180.79 433.723 181.121 433.723ZM179.233 425.403C179.233 425.531 179.249 425.659 179.281 425.787C179.324 425.915 179.398 426.065 179.505 426.235C179.612 426.395 179.75 426.587 179.921 426.811C180.102 427.025 180.337 427.281 180.625 427.579C181.244 427.174 181.745 426.795 182.129 426.443C182.524 426.081 182.721 425.67 182.721 425.211C182.721 424.795 182.566 424.454 182.257 424.187C181.948 423.921 181.553 423.787 181.073 423.787C180.806 423.787 180.561 423.83 180.337 423.915C180.113 424.001 179.916 424.118 179.745 424.267C179.585 424.417 179.457 424.587 179.361 424.779C179.276 424.971 179.233 425.179 179.233 425.403ZM192.799 434.443V423.083H197.599C198.09 423.083 198.538 423.19 198.943 423.403C199.359 423.606 199.716 423.878 200.015 424.219C200.314 424.55 200.543 424.929 200.703 425.355C200.874 425.782 200.959 426.214 200.959 426.651C200.959 427.067 200.895 427.467 200.767 427.851C200.65 428.225 200.479 428.566 200.255 428.875C200.042 429.174 199.78 429.43 199.471 429.643C199.162 429.846 198.815 429.985 198.431 430.059L201.215 434.443H199.951L197.279 430.251H193.919V434.443H192.799ZM193.919 429.259H197.631C197.962 429.259 198.26 429.19 198.527 429.051C198.804 428.902 199.039 428.705 199.231 428.459C199.423 428.214 199.572 427.937 199.679 427.627C199.786 427.318 199.839 426.993 199.839 426.651C199.839 426.31 199.775 425.985 199.647 425.675C199.53 425.355 199.364 425.078 199.151 424.843C198.948 424.609 198.703 424.422 198.415 424.283C198.138 424.145 197.844 424.075 197.535 424.075H193.919V429.259ZM206.394 434.603C205.786 434.603 205.226 434.491 204.714 434.267C204.212 434.033 203.775 433.718 203.402 433.323C203.028 432.918 202.735 432.454 202.522 431.931C202.319 431.409 202.218 430.849 202.218 430.251C202.218 429.665 202.319 429.115 202.522 428.603C202.735 428.081 203.023 427.627 203.386 427.243C203.759 426.849 204.202 426.539 204.714 426.315C205.226 426.081 205.78 425.963 206.378 425.963C206.986 425.963 207.54 426.081 208.042 426.315C208.554 426.539 208.991 426.849 209.354 427.243C209.716 427.638 209.999 428.091 210.202 428.603C210.404 429.115 210.506 429.659 210.506 430.235C210.506 430.321 210.506 430.406 210.506 430.491C210.506 430.577 210.5 430.635 210.49 430.667H203.354C203.386 431.115 203.487 431.531 203.658 431.915C203.839 432.289 204.068 432.614 204.346 432.891C204.623 433.169 204.938 433.387 205.29 433.547C205.652 433.697 206.036 433.771 206.442 433.771C206.708 433.771 206.975 433.734 207.242 433.659C207.508 433.585 207.754 433.483 207.978 433.355C208.202 433.227 208.404 433.073 208.586 432.891C208.767 432.699 208.906 432.491 209.002 432.267L209.946 432.523C209.818 432.833 209.636 433.115 209.402 433.371C209.167 433.617 208.895 433.835 208.586 434.027C208.276 434.209 207.935 434.347 207.562 434.443C207.188 434.55 206.799 434.603 206.394 434.603ZM209.466 429.835C209.434 429.387 209.327 428.982 209.146 428.619C208.975 428.246 208.751 427.926 208.474 427.659C208.207 427.393 207.892 427.185 207.53 427.035C207.178 426.886 206.799 426.811 206.394 426.811C205.988 426.811 205.604 426.886 205.242 427.035C204.879 427.185 204.559 427.393 204.282 427.659C204.015 427.926 203.796 428.246 203.626 428.619C203.466 428.993 203.37 429.398 203.338 429.835H209.466ZM211.608 430.251C211.608 429.665 211.71 429.11 211.912 428.587C212.115 428.065 212.398 427.611 212.76 427.227C213.134 426.833 213.576 426.523 214.088 426.299C214.6 426.075 215.166 425.963 215.784 425.963C216.574 425.963 217.262 426.145 217.848 426.507C218.435 426.859 218.878 427.339 219.176 427.947L218.12 428.283C217.886 427.857 217.555 427.526 217.128 427.291C216.712 427.046 216.248 426.923 215.736 426.923C215.31 426.923 214.91 427.009 214.536 427.179C214.174 427.35 213.854 427.585 213.576 427.883C213.31 428.171 213.096 428.518 212.936 428.923C212.787 429.329 212.712 429.771 212.712 430.251C212.712 430.721 212.792 431.163 212.952 431.579C213.112 431.995 213.331 432.358 213.608 432.667C213.886 432.966 214.206 433.206 214.568 433.387C214.942 433.558 215.336 433.643 215.752 433.643C216.019 433.643 216.28 433.606 216.536 433.531C216.803 433.457 217.048 433.355 217.272 433.227C217.496 433.089 217.688 432.934 217.848 432.763C218.008 432.593 218.12 432.411 218.184 432.219L219.256 432.539C219.139 432.838 218.968 433.115 218.744 433.371C218.52 433.617 218.254 433.835 217.944 434.027C217.646 434.209 217.31 434.347 216.936 434.443C216.574 434.55 216.195 434.603 215.8 434.603C215.192 434.603 214.632 434.491 214.12 434.267C213.608 434.033 213.166 433.718 212.792 433.323C212.419 432.918 212.126 432.454 211.912 431.931C211.71 431.409 211.608 430.849 211.608 430.251ZM224.488 434.603C223.88 434.603 223.32 434.491 222.808 434.267C222.306 434.033 221.869 433.718 221.496 433.323C221.122 432.918 220.829 432.454 220.616 431.931C220.413 431.409 220.312 430.849 220.312 430.251C220.312 429.665 220.413 429.115 220.616 428.603C220.829 428.081 221.117 427.627 221.48 427.243C221.853 426.849 222.296 426.539 222.808 426.315C223.32 426.081 223.874 425.963 224.472 425.963C225.08 425.963 225.634 426.081 226.136 426.315C226.648 426.539 227.085 426.849 227.448 427.243C227.81 427.638 228.093 428.091 228.296 428.603C228.498 429.115 228.6 429.659 228.6 430.235C228.6 430.321 228.6 430.406 228.6 430.491C228.6 430.577 228.594 430.635 228.584 430.667H221.448C221.48 431.115 221.581 431.531 221.752 431.915C221.933 432.289 222.162 432.614 222.44 432.891C222.717 433.169 223.032 433.387 223.384 433.547C223.746 433.697 224.13 433.771 224.536 433.771C224.802 433.771 225.069 433.734 225.336 433.659C225.602 433.585 225.848 433.483 226.072 433.355C226.296 433.227 226.498 433.073 226.68 432.891C226.861 432.699 227 432.491 227.096 432.267L228.04 432.523C227.912 432.833 227.73 433.115 227.496 433.371C227.261 433.617 226.989 433.835 226.68 434.027C226.37 434.209 226.029 434.347 225.656 434.443C225.282 434.55 224.893 434.603 224.488 434.603ZM227.56 429.835C227.528 429.387 227.421 428.982 227.24 428.619C227.069 428.246 226.845 427.926 226.568 427.659C226.301 427.393 225.986 427.185 225.624 427.035C225.272 426.886 224.893 426.811 224.488 426.811C224.082 426.811 223.698 426.886 223.336 427.035C222.973 427.185 222.653 427.393 222.376 427.659C222.109 427.926 221.89 428.246 221.72 428.619C221.56 428.993 221.464 429.398 221.432 429.835H227.56ZM230.278 434.443V426.107H231.366V434.443H230.278ZM230.278 424.363V422.763H231.366V424.363H230.278ZM236.259 434.443L232.867 426.107H233.987L236.851 433.435L239.731 426.107H240.786L237.395 434.443H236.259ZM245.613 434.603C245.005 434.603 244.445 434.491 243.933 434.267C243.431 434.033 242.994 433.718 242.621 433.323C242.247 432.918 241.954 432.454 241.741 431.931C241.538 431.409 241.437 430.849 241.437 430.251C241.437 429.665 241.538 429.115 241.741 428.603C241.954 428.081 242.242 427.627 242.605 427.243C242.978 426.849 243.421 426.539 243.933 426.315C244.445 426.081 244.999 425.963 245.597 425.963C246.205 425.963 246.759 426.081 247.261 426.315C247.773 426.539 248.21 426.849 248.573 427.243C248.935 427.638 249.218 428.091 249.421 428.603C249.623 429.115 249.725 429.659 249.725 430.235C249.725 430.321 249.725 430.406 249.725 430.491C249.725 430.577 249.719 430.635 249.709 430.667H242.573C242.605 431.115 242.706 431.531 242.877 431.915C243.058 432.289 243.287 432.614 243.565 432.891C243.842 433.169 244.157 433.387 244.509 433.547C244.871 433.697 245.255 433.771 245.661 433.771C245.927 433.771 246.194 433.734 246.461 433.659C246.727 433.585 246.973 433.483 247.197 433.355C247.421 433.227 247.623 433.073 247.805 432.891C247.986 432.699 248.125 432.491 248.221 432.267L249.165 432.523C249.037 432.833 248.855 433.115 248.621 433.371C248.386 433.617 248.114 433.835 247.805 434.027C247.495 434.209 247.154 434.347 246.781 434.443C246.407 434.55 246.018 434.603 245.613 434.603ZM248.685 429.835C248.653 429.387 248.546 428.982 248.365 428.619C248.194 428.246 247.97 427.926 247.693 427.659C247.426 427.393 247.111 427.185 246.749 427.035C246.397 426.886 246.018 426.811 245.613 426.811C245.207 426.811 244.823 426.886 244.461 427.035C244.098 427.185 243.778 427.393 243.501 427.659C243.234 427.926 243.015 428.246 242.845 428.619C242.685 428.993 242.589 429.398 242.557 429.835H248.685ZM259.737 434.603C259.033 434.603 258.409 434.427 257.865 434.075C257.332 433.713 256.9 433.259 256.569 432.715V437.851H255.481V426.107H256.457V427.723C256.799 427.201 257.241 426.779 257.785 426.459C258.329 426.129 258.921 425.963 259.561 425.963C260.137 425.963 260.665 426.086 261.145 426.331C261.625 426.566 262.041 426.886 262.393 427.291C262.745 427.686 263.017 428.145 263.209 428.667C263.412 429.19 263.513 429.729 263.513 430.283C263.513 430.87 263.423 431.425 263.241 431.947C263.06 432.47 262.799 432.929 262.457 433.323C262.127 433.718 261.727 434.033 261.257 434.267C260.799 434.491 260.292 434.603 259.737 434.603ZM259.433 433.643C259.881 433.643 260.287 433.547 260.649 433.355C261.023 433.163 261.337 432.913 261.593 432.603C261.86 432.283 262.063 431.926 262.201 431.531C262.34 431.126 262.409 430.71 262.409 430.283C262.409 429.835 262.329 429.409 262.169 429.003C262.009 428.598 261.791 428.241 261.513 427.931C261.236 427.622 260.905 427.377 260.521 427.195C260.148 427.014 259.743 426.923 259.305 426.923C259.028 426.923 258.735 426.982 258.425 427.099C258.127 427.206 257.844 427.355 257.577 427.547C257.321 427.729 257.097 427.947 256.905 428.203C256.724 428.449 256.612 428.71 256.569 428.987V431.547C256.697 431.846 256.857 432.123 257.049 432.379C257.252 432.635 257.476 432.859 257.721 433.051C257.977 433.233 258.249 433.377 258.537 433.483C258.825 433.59 259.124 433.643 259.433 433.643ZM267.452 434.603C267.058 434.603 266.69 434.539 266.348 434.411C266.018 434.273 265.724 434.086 265.468 433.851C265.223 433.617 265.031 433.345 264.892 433.035C264.754 432.715 264.684 432.374 264.684 432.011C264.684 431.649 264.77 431.313 264.94 431.003C265.111 430.694 265.351 430.427 265.66 430.203C265.97 429.979 266.338 429.809 266.764 429.691C267.191 429.563 267.66 429.499 268.172 429.499C268.599 429.499 269.031 429.537 269.468 429.611C269.906 429.686 270.295 429.793 270.636 429.931V429.179C270.636 428.443 270.428 427.862 270.012 427.435C269.596 426.998 269.02 426.779 268.284 426.779C267.858 426.779 267.42 426.865 266.972 427.035C266.524 427.206 266.071 427.451 265.612 427.771L265.228 427.051C266.306 426.326 267.351 425.963 268.364 425.963C269.41 425.963 270.231 426.257 270.828 426.843C271.426 427.43 271.724 428.241 271.724 429.275V433.035C271.724 433.334 271.858 433.483 272.124 433.483V434.443C271.943 434.475 271.804 434.491 271.708 434.491C271.431 434.491 271.212 434.422 271.052 434.283C270.903 434.145 270.823 433.953 270.812 433.707L270.78 433.051C270.396 433.553 269.911 433.937 269.324 434.203C268.748 434.47 268.124 434.603 267.452 434.603ZM267.708 433.771C268.274 433.771 268.791 433.665 269.26 433.451C269.74 433.238 270.103 432.955 270.348 432.603C270.444 432.507 270.514 432.406 270.556 432.299C270.61 432.182 270.636 432.075 270.636 431.979V430.619C270.274 430.481 269.895 430.374 269.5 430.299C269.116 430.225 268.722 430.187 268.316 430.187C267.548 430.187 266.924 430.347 266.444 430.667C265.964 430.987 265.724 431.409 265.724 431.931C265.724 432.187 265.772 432.427 265.868 432.651C265.975 432.875 266.114 433.073 266.284 433.243C266.466 433.403 266.679 433.531 266.924 433.627C267.17 433.723 267.431 433.771 267.708 433.771ZM274.352 437.003C274.437 437.014 274.517 437.019 274.592 437.019C274.677 437.03 274.757 437.035 274.832 437.035C275.024 437.035 275.173 437.009 275.28 436.955C275.397 436.902 275.509 436.785 275.616 436.603C275.723 436.422 275.84 436.161 275.968 435.819C276.107 435.478 276.299 435.019 276.544 434.443L272.912 426.107H274.032L277.12 433.435L279.984 426.107H281.024L276.704 436.859C276.587 437.169 276.389 437.435 276.112 437.659C275.845 437.894 275.477 438.011 275.008 438.011C274.901 438.011 274.8 438.006 274.704 437.995C274.608 437.995 274.491 437.985 274.352 437.963V437.003ZM294.944 434.443H293.856V429.787C293.856 428.817 293.701 428.102 293.392 427.643C293.082 427.185 292.624 426.955 292.016 426.955C291.696 426.955 291.392 427.014 291.104 427.131C290.826 427.249 290.565 427.414 290.32 427.627C290.085 427.841 289.877 428.097 289.696 428.395C289.514 428.683 289.376 429.003 289.28 429.355V434.443H288.192V429.787C288.192 428.795 288.042 428.075 287.744 427.627C287.445 427.179 286.986 426.955 286.368 426.955C285.738 426.955 285.178 427.174 284.688 427.611C284.197 428.049 283.845 428.625 283.632 429.339V434.443H282.544V426.107H283.536V427.995C283.877 427.355 284.325 426.859 284.88 426.507C285.434 426.145 286.048 425.963 286.72 425.963C287.424 425.963 287.984 426.161 288.4 426.555C288.826 426.95 289.088 427.467 289.184 428.107C289.962 426.678 291.034 425.963 292.4 425.963C292.869 425.963 293.264 426.049 293.584 426.219C293.914 426.39 294.176 426.635 294.368 426.955C294.57 427.265 294.714 427.643 294.8 428.091C294.896 428.529 294.944 429.019 294.944 429.563V434.443ZM300.847 434.603C300.239 434.603 299.679 434.491 299.167 434.267C298.666 434.033 298.228 433.718 297.855 433.323C297.482 432.918 297.188 432.454 296.975 431.931C296.772 431.409 296.671 430.849 296.671 430.251C296.671 429.665 296.772 429.115 296.975 428.603C297.188 428.081 297.476 427.627 297.839 427.243C298.212 426.849 298.655 426.539 299.167 426.315C299.679 426.081 300.234 425.963 300.831 425.963C301.439 425.963 301.994 426.081 302.495 426.315C303.007 426.539 303.444 426.849 303.807 427.243C304.17 427.638 304.452 428.091 304.655 428.603C304.858 429.115 304.959 429.659 304.959 430.235C304.959 430.321 304.959 430.406 304.959 430.491C304.959 430.577 304.954 430.635 304.943 430.667H297.807C297.839 431.115 297.94 431.531 298.111 431.915C298.292 432.289 298.522 432.614 298.799 432.891C299.076 433.169 299.391 433.387 299.743 433.547C300.106 433.697 300.49 433.771 300.895 433.771C301.162 433.771 301.428 433.734 301.695 433.659C301.962 433.585 302.207 433.483 302.431 433.355C302.655 433.227 302.858 433.073 303.039 432.891C303.22 432.699 303.359 432.491 303.455 432.267L304.399 432.523C304.271 432.833 304.09 433.115 303.855 433.371C303.62 433.617 303.348 433.835 303.039 434.027C302.73 434.209 302.388 434.347 302.015 434.443C301.642 434.55 301.252 434.603 300.847 434.603ZM303.919 429.835C303.887 429.387 303.78 428.982 303.599 428.619C303.428 428.246 303.204 427.926 302.927 427.659C302.66 427.393 302.346 427.185 301.983 427.035C301.631 426.886 301.252 426.811 300.847 426.811C300.442 426.811 300.058 426.886 299.695 427.035C299.332 427.185 299.012 427.393 298.735 427.659C298.468 427.926 298.25 428.246 298.079 428.619C297.919 428.993 297.823 429.398 297.791 429.835H303.919ZM313.646 434.443H312.558V429.787C312.558 428.795 312.408 428.075 312.11 427.627C311.822 427.179 311.374 426.955 310.766 426.955C310.446 426.955 310.126 427.014 309.806 427.131C309.486 427.249 309.187 427.414 308.91 427.627C308.643 427.841 308.403 428.097 308.19 428.395C307.976 428.683 307.822 428.998 307.726 429.339V434.443H306.638V426.107H307.63V427.995C307.971 427.387 308.456 426.897 309.086 426.523C309.726 426.15 310.419 425.963 311.166 425.963C311.624 425.963 312.014 426.049 312.334 426.219C312.654 426.39 312.91 426.63 313.102 426.939C313.294 427.249 313.432 427.627 313.517 428.075C313.603 428.523 313.646 429.019 313.646 429.563V434.443ZM319.888 434.043C319.824 434.075 319.728 434.118 319.6 434.171C319.482 434.225 319.344 434.278 319.184 434.331C319.024 434.385 318.842 434.433 318.64 434.475C318.437 434.518 318.224 434.539 318 434.539C317.765 434.539 317.541 434.507 317.328 434.443C317.114 434.379 316.928 434.283 316.768 434.155C316.608 434.017 316.48 433.846 316.384 433.643C316.288 433.441 316.24 433.206 316.24 432.939V426.971H315.088V426.107H316.24V423.291H317.328V426.107H319.248V426.971H317.328V432.635C317.349 432.945 317.456 433.174 317.648 433.323C317.85 433.462 318.08 433.531 318.336 433.531C318.645 433.531 318.917 433.483 319.152 433.387C319.386 433.281 319.536 433.206 319.6 433.163L319.888 434.043ZM324.015 434.603C323.364 434.603 322.73 434.497 322.111 434.283C321.492 434.07 320.959 433.761 320.511 433.355L321.007 432.619C321.476 433.003 321.951 433.291 322.431 433.483C322.922 433.675 323.444 433.771 323.999 433.771C324.671 433.771 325.204 433.638 325.599 433.371C326.004 433.094 326.207 432.705 326.207 432.203C326.207 431.969 326.154 431.777 326.047 431.627C325.94 431.467 325.78 431.329 325.567 431.211C325.364 431.094 325.103 430.993 324.783 430.907C324.474 430.811 324.111 430.715 323.695 430.619C323.215 430.502 322.799 430.385 322.447 430.267C322.095 430.15 321.802 430.017 321.567 429.867C321.343 429.718 321.172 429.537 321.055 429.323C320.948 429.099 320.895 428.822 320.895 428.491C320.895 428.075 320.975 427.707 321.135 427.387C321.306 427.067 321.53 426.806 321.807 426.603C322.095 426.39 322.426 426.23 322.799 426.123C323.183 426.017 323.588 425.963 324.015 425.963C324.655 425.963 325.236 426.07 325.759 426.283C326.282 426.486 326.703 426.758 327.023 427.099L326.495 427.739C326.186 427.419 325.807 427.179 325.359 427.019C324.922 426.859 324.463 426.779 323.983 426.779C323.695 426.779 323.428 426.811 323.183 426.875C322.938 426.929 322.719 427.019 322.527 427.147C322.346 427.275 322.202 427.441 322.095 427.643C321.988 427.835 321.935 428.065 321.935 428.331C321.935 428.555 321.972 428.737 322.047 428.875C322.122 429.014 322.244 429.137 322.415 429.243C322.586 429.339 322.799 429.43 323.055 429.515C323.322 429.59 323.642 429.67 324.015 429.755C324.548 429.883 325.018 430.011 325.423 430.139C325.828 430.267 326.164 430.417 326.431 430.587C326.708 430.758 326.916 430.966 327.055 431.211C327.194 431.457 327.263 431.755 327.263 432.107C327.263 432.875 326.97 433.483 326.383 433.931C325.796 434.379 325.007 434.603 324.015 434.603Z" fill="white"/>
<defs>
<linearGradient id="paint0_linear" x1="209.491" y1="386.504" x2="210.471" y2="164.039" gradientUnits="userSpaceOnUse">
<stop stop-color="#808080" stop-opacity="0.25"/>
<stop offset="0.53514" stop-color="#808080" stop-opacity="0.12"/>
<stop offset="1" stop-color="#808080" stop-opacity="0.1"/>
</linearGradient>
<linearGradient id="paint1_linear" x1="142110" y1="107153" x2="142110" y2="37048.6" gradientUnits="userSpaceOnUse">
<stop stop-color="#808080" stop-opacity="0.25"/>
<stop offset="0.53514" stop-color="#808080" stop-opacity="0.12"/>
<stop offset="1" stop-color="#808080" stop-opacity="0.1"/>
</linearGradient>
</defs>
</svg>
