<svg width="512" height="368" viewBox="0 0 512 368" fill="none" xmlns="http://www.w3.org/2000/svg">
<path opacity="0.1" d="M255.878 367.651C397.196 367.651 511.756 353.797 511.756 336.706C511.756 319.615 397.196 305.76 255.878 305.76C114.56 305.76 0 319.615 0 336.706C0 353.797 114.56 367.651 255.878 367.651Z" fill="#6C63FF"/>
<path d="M437.855 351.948C437.855 351.948 451.387 334.928 450.293 318.041C449.788 310.961 451.62 303.91 455.515 297.947C457.386 295.131 459.514 292.489 461.873 290.057" stroke="#535461" stroke-width="2" stroke-miterlimit="10"/>
<path d="M461.256 279.104C460.308 281.474 461.861 290.056 461.861 290.056C461.861 290.056 468.91 284.897 469.858 282.528C470.312 281.39 470.295 280.119 469.81 278.994C469.325 277.87 468.412 276.983 467.272 276.529C466.132 276.075 464.857 276.092 463.729 276.575C462.601 277.058 461.712 277.967 461.256 279.104Z" fill="#6C63FF"/>
<path d="M449.025 289.827C449.521 292.239 455.508 298.37 455.508 298.37C455.508 298.37 458.617 290.515 458.121 288.103C458.003 287.529 457.769 286.984 457.432 286.497C457.094 286.011 456.66 285.593 456.154 285.268C455.649 284.942 455.081 284.716 454.484 284.601C453.887 284.486 453.273 284.485 452.675 284.598C452.078 284.712 451.51 284.937 451.003 285.261C450.497 285.585 450.061 286.002 449.722 286.487C449.383 286.973 449.147 287.518 449.028 288.091C448.908 288.664 448.907 289.254 449.025 289.827Z" fill="#6C63FF"/>
<path d="M439.928 312.476C441.599 314.377 449.866 316.845 449.866 316.845C449.866 316.845 448.442 308.289 446.771 306.388C446.373 305.936 445.891 305.567 445.352 305.302C444.813 305.037 444.228 304.882 443.629 304.845C443.03 304.808 442.43 304.89 441.863 305.086C441.295 305.283 440.772 305.59 440.323 305.989C439.873 306.389 439.507 306.874 439.244 307.416C438.981 307.959 438.826 308.548 438.79 309.15C438.753 309.753 438.835 310.356 439.03 310.927C439.225 311.498 439.531 312.024 439.928 312.476Z" fill="#6C63FF"/>
<path d="M437.648 330.284C439.032 332.429 447.095 336.244 447.095 336.244C447.095 336.244 447.129 327.621 445.745 325.477C445.416 324.966 444.986 324.523 444.478 324.173C443.97 323.822 443.396 323.571 442.787 323.433C442.178 323.296 441.547 323.274 440.93 323.371C440.312 323.467 439.721 323.68 439.189 323.995C438.657 324.311 438.195 324.724 437.83 325.211C437.465 325.698 437.203 326.25 437.06 326.834C436.917 327.418 436.895 328.023 436.996 328.615C437.097 329.207 437.318 329.774 437.648 330.284Z" fill="#6C63FF"/>
<path d="M463.82 302.653C461.613 303.627 453.562 302.176 453.562 302.176C453.562 302.176 458.315 295.076 460.522 294.102C461.582 293.634 462.773 293.636 463.832 294.107C464.89 294.578 465.731 295.479 466.168 296.613C466.606 297.747 466.604 299.021 466.163 300.153C465.723 301.286 464.88 302.185 463.82 302.653Z" fill="#6C63FF"/>
<path d="M460.622 324.226C458.199 324.449 450.789 320.49 450.789 320.49C450.789 320.49 457.43 315.238 459.853 315.016C460.429 314.962 461.01 315.028 461.562 315.21C462.114 315.392 462.627 315.687 463.07 316.077C463.514 316.467 463.88 316.946 464.147 317.484C464.414 318.023 464.578 318.612 464.628 319.217C464.679 319.822 464.615 320.432 464.441 321.011C464.267 321.59 463.986 322.128 463.614 322.593C463.242 323.058 462.786 323.442 462.273 323.722C461.759 324.002 461.198 324.174 460.622 324.226Z" fill="#6C63FF"/>
<path d="M454.604 344.453C452.043 345.105 443.398 342.507 443.398 342.507C443.398 342.507 449.604 336.126 452.165 335.474C453.394 335.16 454.702 335.333 455.8 335.953C456.899 336.574 457.697 337.592 458.021 338.782C458.344 339.973 458.166 341.24 457.525 342.303C456.884 343.367 455.833 344.14 454.604 344.453Z" fill="#6C63FF"/>
<path opacity="0.25" d="M461.256 279.104C460.308 281.474 461.861 290.056 461.861 290.056C461.861 290.056 468.91 284.897 469.858 282.528C470.312 281.39 470.295 280.119 469.81 278.994C469.325 277.87 468.412 276.983 467.272 276.529C466.132 276.075 464.857 276.092 463.729 276.575C462.601 277.058 461.712 277.967 461.256 279.104Z" fill="black"/>
<path opacity="0.25" d="M449.025 289.827C449.521 292.239 455.508 298.37 455.508 298.37C455.508 298.37 458.617 290.515 458.121 288.103C458.003 287.529 457.769 286.984 457.432 286.497C457.094 286.011 456.66 285.593 456.154 285.268C455.649 284.942 455.081 284.716 454.484 284.601C453.887 284.486 453.273 284.485 452.675 284.598C452.078 284.712 451.51 284.937 451.003 285.261C450.497 285.585 450.061 286.002 449.722 286.487C449.383 286.973 449.147 287.518 449.028 288.091C448.908 288.664 448.907 289.254 449.025 289.827Z" fill="black"/>
<path opacity="0.25" d="M439.928 312.476C441.599 314.377 449.866 316.845 449.866 316.845C449.866 316.845 448.442 308.289 446.771 306.388C446.373 305.936 445.891 305.567 445.352 305.302C444.813 305.037 444.228 304.882 443.629 304.845C443.03 304.808 442.43 304.89 441.863 305.086C441.295 305.283 440.772 305.59 440.323 305.989C439.873 306.389 439.507 306.874 439.244 307.416C438.981 307.959 438.826 308.548 438.79 309.15C438.753 309.753 438.835 310.356 439.03 310.927C439.225 311.498 439.531 312.024 439.928 312.476Z" fill="black"/>
<path opacity="0.25" d="M437.648 330.284C439.032 332.429 447.095 336.244 447.095 336.244C447.095 336.244 447.129 327.621 445.745 325.477C445.416 324.966 444.986 324.523 444.478 324.173C443.97 323.822 443.396 323.571 442.787 323.433C442.178 323.296 441.547 323.274 440.93 323.371C440.312 323.467 439.721 323.68 439.189 323.995C438.657 324.311 438.195 324.724 437.83 325.211C437.465 325.698 437.203 326.25 437.06 326.834C436.917 327.418 436.895 328.023 436.996 328.615C437.097 329.207 437.318 329.774 437.648 330.284Z" fill="black"/>
<path opacity="0.25" d="M463.82 302.653C461.613 303.627 453.562 302.176 453.562 302.176C453.562 302.176 458.315 295.076 460.522 294.102C461.582 293.634 462.773 293.636 463.832 294.107C464.89 294.578 465.731 295.479 466.168 296.613C466.606 297.747 466.604 299.021 466.163 300.153C465.723 301.286 464.88 302.185 463.82 302.653Z" fill="black"/>
<path opacity="0.25" d="M460.622 324.226C458.199 324.449 450.789 320.49 450.789 320.49C450.789 320.49 457.43 315.238 459.853 315.016C460.429 314.962 461.01 315.028 461.562 315.21C462.114 315.392 462.627 315.687 463.07 316.077C463.514 316.467 463.88 316.946 464.147 317.484C464.414 318.023 464.578 318.612 464.628 319.217C464.679 319.822 464.615 320.432 464.441 321.011C464.267 321.59 463.986 322.128 463.614 322.593C463.242 323.058 462.786 323.442 462.273 323.722C461.759 324.002 461.198 324.174 460.622 324.226Z" fill="black"/>
<path opacity="0.25" d="M454.604 344.453C452.043 345.105 443.398 342.507 443.398 342.507C443.398 342.507 449.604 336.126 452.165 335.474C453.394 335.16 454.702 335.333 455.8 335.953C456.899 336.574 457.697 337.592 458.021 338.782C458.344 339.973 458.166 341.24 457.525 342.303C456.884 343.367 455.833 344.14 454.604 344.453Z" fill="black"/>
<path d="M437.855 351.024C437.855 351.024 457.114 340.852 463.01 324.925C465.439 318.229 469.984 312.499 475.961 308.595C478.813 306.764 481.827 305.196 484.967 303.913" stroke="#535461" stroke-width="2" stroke-miterlimit="10"/>
<path d="M488.636 294.193C486.913 296.044 484.965 304.837 484.965 304.837C484.965 304.837 493.013 302.899 494.736 301.049C495.564 300.16 496.036 298.947 496.05 297.676C496.063 296.405 495.616 295.18 494.807 294.271C493.998 293.362 492.894 292.843 491.736 292.828C490.579 292.814 489.464 293.305 488.636 294.193Z" fill="#6C63FF"/>
<path d="M473.03 298.391C472.465 300.959 475.353 309.455 475.353 309.455C475.353 309.455 481.516 303.06 482.08 300.492C482.215 299.882 482.231 299.25 482.127 298.633C482.024 298.016 481.803 297.426 481.478 296.897C481.153 296.368 480.729 295.91 480.232 295.549C479.734 295.187 479.172 294.931 478.578 294.793C477.984 294.655 477.369 294.638 476.768 294.744C476.168 294.851 475.594 295.077 475.079 295.411C474.564 295.745 474.118 296.181 473.766 296.692C473.415 297.203 473.165 297.78 473.03 298.391Z" fill="#6C63FF"/>
<path d="M456.545 315.365C457.32 317.754 463.994 323.312 463.994 323.312C463.994 323.312 466.174 315.012 465.399 312.623C465.215 312.055 464.918 311.528 464.525 311.072C464.132 310.616 463.652 310.24 463.11 309.965C462.569 309.691 461.978 309.523 461.37 309.472C460.762 309.421 460.15 309.488 459.569 309.668C458.988 309.848 458.448 310.138 457.982 310.522C457.515 310.905 457.131 311.375 456.85 311.904C456.569 312.433 456.397 313.011 456.345 313.605C456.293 314.199 456.361 314.797 456.545 315.365Z" fill="#6C63FF"/>
<path d="M446.215 331.444C446.565 334.025 452.163 340.863 452.163 340.863C452.163 340.863 455.735 332.735 455.385 330.155C455.302 329.541 455.101 328.951 454.794 328.416C454.487 327.882 454.08 327.414 453.595 327.04C453.111 326.666 452.559 326.393 451.971 326.236C451.382 326.08 450.77 326.043 450.168 326.127C449.566 326.212 448.986 326.417 448.461 326.73C447.937 327.043 447.478 327.458 447.111 327.952C446.744 328.445 446.476 329.008 446.322 329.607C446.169 330.206 446.132 330.831 446.215 331.444Z" fill="#6C63FF"/>
<path d="M482.006 316.844C479.418 316.778 472.035 311.968 472.035 311.968C472.035 311.968 479.661 307.542 482.249 307.609C483.492 307.64 484.671 308.157 485.527 309.046C486.383 309.934 486.846 311.121 486.814 312.346C486.781 313.571 486.257 314.733 485.355 315.576C484.454 316.42 483.249 316.876 482.006 316.844H482.006Z" fill="#6C63FF"/>
<path d="M469.693 335.07C467.309 334.24 461.875 327.44 461.875 327.44C461.875 327.44 470.264 325.456 472.647 326.286C473.792 326.685 474.734 327.53 475.266 328.636C475.798 329.741 475.877 331.017 475.485 332.182C475.094 333.347 474.263 334.305 473.177 334.847C472.09 335.389 470.837 335.469 469.693 335.07V335.07Z" fill="#6C63FF"/>
<path d="M456.393 350.965C453.815 350.557 447.094 344.803 447.094 344.803C447.094 344.803 455.322 341.413 457.899 341.821C459.137 342.016 460.245 342.686 460.979 343.682C461.713 344.677 462.013 345.918 461.813 347.131C461.614 348.343 460.93 349.428 459.914 350.148C458.897 350.867 457.631 351.161 456.393 350.965Z" fill="#6C63FF"/>
<path opacity="0.1" d="M291.986 43.5583C266.7 42.6797 242.615 34.5102 219.618 25.5721C196.62 16.6341 173.84 6.73143 149.159 1.99531C133.284 -1.05088 115.13 -1.48188 102.339 7.03579C90.0306 15.2323 86.0534 29.3813 83.9151 42.5097C82.3063 52.3871 81.3604 62.7827 85.7685 72.0297C88.8289 78.4495 94.263 83.8459 98.0207 89.995C111.096 111.392 101.854 137.776 87.6843 158.669C81.0374 168.469 73.3276 177.818 68.1985 188.25C63.0693 198.683 60.6966 210.637 65.1841 221.279C69.6321 231.827 80.232 239.75 91.7142 245.322C115.035 256.64 142.516 259.88 169.314 261.714C228.634 265.776 288.27 264.017 347.748 262.256C369.759 261.605 391.867 260.944 413.521 257.538C425.545 255.646 437.96 252.644 446.69 245.397C457.772 236.196 460.519 220.617 453.093 209.08C440.637 189.729 406.197 184.922 397.49 164.155C392.698 152.724 397.62 139.991 404.584 129.389C419.524 106.647 444.566 86.6944 445.885 60.6991C446.791 42.845 434.753 24.9647 416.139 16.5173C396.628 7.66266 369.574 8.77648 355.181 23.4338C340.359 38.5268 314.313 44.3341 291.986 43.5583Z" fill="#6C63FF"/>
<path d="M248.489 322.388C258.182 322.388 266.04 314.323 266.04 304.375C266.04 294.427 258.182 286.362 248.489 286.362C238.795 286.362 230.938 294.427 230.938 304.375C230.938 314.323 238.795 322.388 248.489 322.388Z" fill="#FBD56F"/>
<path opacity="0.1" d="M248.489 322.388C258.182 322.388 266.04 314.323 266.04 304.375C266.04 294.427 258.182 286.362 248.489 286.362C238.795 286.362 230.938 294.427 230.938 304.375C230.938 314.323 238.795 322.388 248.489 322.388Z" fill="black"/>
<path d="M251.722 322.388C261.16 322.388 268.811 314.53 268.811 304.837C268.811 295.144 261.16 287.286 251.722 287.286C242.284 287.286 234.633 295.144 234.633 304.837C234.633 314.53 242.284 322.388 251.722 322.388Z" fill="#FBD56F"/>
<path d="M258.277 321.056L256.495 320.035C256.495 320.035 255.661 323.614 255.934 326.165C255.96 326.424 256.064 326.668 256.23 326.864C256.396 327.06 256.616 327.199 256.862 327.263C260.961 328.31 280.498 332.774 293.933 326.487C294.128 326.396 294.296 326.253 294.422 326.075C294.547 325.896 294.625 325.687 294.647 325.467C294.812 323.9 294.229 320.665 293.996 320.035C293.495 318.678 258.277 321.056 258.277 321.056Z" fill="#FBD56F"/>
<path opacity="0.1" d="M258.277 321.056L256.495 320.035C256.495 320.035 255.661 323.614 255.934 326.165C255.96 326.424 256.064 326.668 256.23 326.864C256.396 327.06 256.616 327.199 256.862 327.263C260.961 328.31 280.498 332.774 293.933 326.487C294.128 326.396 294.296 326.253 294.422 326.075C294.547 325.896 294.625 325.687 294.647 325.467C294.812 323.9 294.229 320.665 293.996 320.035C293.495 318.678 258.277 321.056 258.277 321.056Z" fill="black"/>
<path d="M275.742 324.235C286.2 324.235 294.678 322.374 294.678 320.078C294.678 317.782 286.2 315.921 275.742 315.921C265.283 315.921 256.805 317.782 256.805 320.078C256.805 322.374 265.283 324.235 275.742 324.235Z" fill="#FBD56F"/>
<path d="M265.667 314.589L263.885 313.568C263.885 313.568 263.052 317.147 263.324 319.698C263.351 319.957 263.454 320.201 263.62 320.397C263.786 320.594 264.007 320.733 264.252 320.796C268.351 321.843 287.889 326.307 301.324 320.02C301.519 319.929 301.687 319.787 301.812 319.608C301.937 319.429 302.015 319.22 302.038 319.001C302.203 317.433 301.619 314.198 301.387 313.568C300.885 312.212 265.667 314.589 265.667 314.589Z" fill="#FBD56F"/>
<path opacity="0.1" d="M265.667 314.589L263.885 313.568C263.885 313.568 263.052 317.147 263.324 319.698C263.351 319.957 263.454 320.201 263.62 320.397C263.786 320.594 264.007 320.733 264.252 320.796C268.351 321.843 287.889 326.307 301.324 320.02C301.519 319.929 301.687 319.787 301.812 319.608C301.937 319.429 302.015 319.22 302.038 319.001C302.203 317.433 301.619 314.198 301.387 313.568C300.885 312.212 265.667 314.589 265.667 314.589Z" fill="black"/>
<path d="M282.662 317.769C292.866 317.769 301.137 315.908 301.137 313.612C301.137 311.317 292.866 309.456 282.662 309.456C272.459 309.456 264.188 311.317 264.188 313.612C264.188 315.908 272.459 317.769 282.662 317.769Z" fill="#FBD56F"/>
<path d="M272.132 306.276L270.35 305.255C270.35 305.255 269.517 308.834 269.789 311.385C269.816 311.643 269.919 311.887 270.085 312.084C270.251 312.28 270.472 312.419 270.717 312.482C274.816 313.53 294.354 317.993 307.789 311.707C307.984 311.615 308.152 311.473 308.277 311.294C308.402 311.116 308.48 310.906 308.503 310.687C308.668 309.12 308.084 305.885 307.851 305.255C307.35 303.898 272.132 306.276 272.132 306.276Z" fill="#FBD56F"/>
<path opacity="0.1" d="M272.132 306.276L270.35 305.255C270.35 305.255 269.517 308.834 269.789 311.385C269.816 311.643 269.919 311.887 270.085 312.084C270.251 312.28 270.472 312.419 270.717 312.482C274.816 313.53 294.354 317.993 307.789 311.707C307.984 311.615 308.152 311.473 308.277 311.294C308.402 311.116 308.48 310.906 308.503 310.687C308.668 309.12 308.084 305.885 307.851 305.255C307.35 303.898 272.132 306.276 272.132 306.276Z" fill="black"/>
<path d="M288.671 309.455C299.13 309.455 307.608 307.594 307.608 305.298C307.608 303.003 299.13 301.142 288.671 301.142C278.213 301.142 269.734 303.003 269.734 305.298C269.734 307.594 278.213 309.455 288.671 309.455Z" fill="#FBD56F"/>
<path d="M264.741 297.962L262.96 296.941C262.96 296.941 262.126 300.52 262.398 303.071C262.425 303.33 262.529 303.574 262.695 303.77C262.861 303.967 263.081 304.106 263.326 304.169C267.426 305.217 286.963 309.68 300.398 303.393C300.593 303.302 300.761 303.16 300.887 302.981C301.012 302.802 301.09 302.593 301.112 302.374C301.277 300.806 300.694 297.571 300.461 296.941C299.96 295.585 264.741 297.962 264.741 297.962Z" fill="#FBD56F"/>
<path opacity="0.1" d="M264.741 297.962L262.96 296.941C262.96 296.941 262.126 300.52 262.398 303.071C262.425 303.33 262.529 303.574 262.695 303.77C262.861 303.967 263.081 304.106 263.326 304.169C267.426 305.217 286.963 309.68 300.398 303.393C300.593 303.302 300.761 303.16 300.887 302.981C301.012 302.802 301.09 302.593 301.112 302.374C301.277 300.806 300.694 297.571 300.461 296.941C299.96 295.585 264.741 297.962 264.741 297.962Z" fill="black"/>
<path d="M282.206 301.142C292.665 301.142 301.143 299.281 301.143 296.985C301.143 294.689 292.665 292.828 282.206 292.828C271.748 292.828 263.27 294.689 263.27 296.985C263.27 299.281 271.748 301.142 282.206 301.142Z" fill="#FBD56F"/>
<path d="M280.448 290.573L278.667 289.551C278.667 289.551 277.833 293.131 278.105 295.682C278.132 295.94 278.236 296.184 278.402 296.381C278.568 296.577 278.788 296.716 279.033 296.779C283.133 297.827 302.67 302.29 316.105 296.004C316.3 295.912 316.468 295.77 316.594 295.591C316.719 295.412 316.797 295.203 316.819 294.984C316.984 293.416 316.401 290.182 316.168 289.551C315.667 288.195 280.448 290.573 280.448 290.573Z" fill="#FBD56F"/>
<path opacity="0.1" d="M280.448 290.573L278.667 289.551C278.667 289.551 277.833 293.131 278.105 295.682C278.132 295.94 278.236 296.184 278.402 296.381C278.568 296.577 278.788 296.716 279.033 296.779C283.133 297.827 302.67 302.29 316.105 296.004C316.3 295.912 316.468 295.77 316.594 295.591C316.719 295.412 316.797 295.203 316.819 294.984C316.984 293.416 316.401 290.182 316.168 289.551C315.667 288.195 280.448 290.573 280.448 290.573Z" fill="black"/>
<path d="M297.906 294.675C308.364 294.675 316.842 292.608 316.842 290.057C316.842 287.506 308.364 285.438 297.906 285.438C287.447 285.438 278.969 287.506 278.969 290.057C278.969 292.608 287.447 294.675 297.906 294.675Z" fill="#FBD56F"/>
<path d="M270.284 285.953L268.502 284.932C268.502 284.932 267.669 288.512 267.941 291.062C267.968 291.321 268.072 291.565 268.238 291.761C268.404 291.958 268.624 292.097 268.869 292.16C272.969 293.208 292.506 297.671 305.941 291.384C306.136 291.293 306.304 291.151 306.429 290.972C306.555 290.793 306.632 290.584 306.655 290.365C306.82 288.797 306.237 285.563 306.004 284.932C305.503 283.576 270.284 285.953 270.284 285.953Z" fill="#FBD56F"/>
<path opacity="0.1" d="M270.284 285.953L268.502 284.932C268.502 284.932 267.669 288.512 267.941 291.062C267.968 291.321 268.072 291.565 268.238 291.761C268.404 291.958 268.624 292.097 268.869 292.16C272.969 293.208 292.506 297.671 305.941 291.384C306.136 291.293 306.304 291.151 306.429 290.972C306.555 290.793 306.632 290.584 306.655 290.365C306.82 288.797 306.237 285.563 306.004 284.932C305.503 283.576 270.284 285.953 270.284 285.953Z" fill="black"/>
<path d="M286.824 290.057C297.282 290.057 305.76 287.989 305.76 285.438C305.76 282.887 297.282 280.819 286.824 280.819C276.365 280.819 267.887 282.887 267.887 285.438C267.887 287.989 276.365 290.057 286.824 290.057Z" fill="#FBD56F"/>
<path d="M276.806 277.639L274.982 276.618C274.982 276.618 274.129 280.198 274.408 282.748C274.435 283.007 274.541 283.251 274.711 283.447C274.881 283.644 275.106 283.783 275.358 283.846C279.554 284.894 299.557 289.357 313.312 283.071C313.511 282.979 313.684 282.837 313.812 282.658C313.94 282.479 314.02 282.27 314.043 282.051C314.212 280.483 313.615 277.249 313.376 276.618C312.863 275.262 276.806 277.639 276.806 277.639Z" fill="#FBD56F"/>
<path opacity="0.1" d="M276.806 277.639L274.982 276.618C274.982 276.618 274.129 280.198 274.408 282.748C274.435 283.007 274.541 283.251 274.711 283.447C274.881 283.644 275.106 283.783 275.358 283.846C279.554 284.894 299.557 289.357 313.312 283.071C313.511 282.979 313.684 282.837 313.812 282.658C313.94 282.479 314.02 282.27 314.043 282.051C314.212 280.483 313.615 277.249 313.376 276.618C312.863 275.262 276.806 277.639 276.806 277.639Z" fill="black"/>
<path d="M294.214 280.82C304.673 280.82 313.151 278.958 313.151 276.663C313.151 274.367 304.673 272.506 294.214 272.506C283.756 272.506 275.277 274.367 275.277 276.663C275.277 278.958 283.756 280.82 294.214 280.82Z" fill="#FBD56F"/>
<path d="M280.448 266.555L278.667 265.534C278.667 265.534 277.833 269.113 278.105 271.664C278.132 271.923 278.236 272.167 278.402 272.363C278.568 272.559 278.788 272.698 279.033 272.762C283.133 273.809 302.67 278.273 316.105 271.986C316.3 271.895 316.468 271.752 316.594 271.574C316.719 271.395 316.797 271.186 316.819 270.966C316.984 269.399 316.401 266.164 316.168 265.534C315.667 264.178 280.448 266.555 280.448 266.555Z" fill="#FBD56F"/>
<path opacity="0.1" d="M280.448 266.555L278.667 265.534C278.667 265.534 277.833 269.113 278.105 271.664C278.132 271.923 278.236 272.167 278.402 272.363C278.568 272.559 278.788 272.698 279.033 272.762C283.133 273.809 302.67 278.273 316.105 271.986C316.3 271.895 316.468 271.752 316.594 271.574C316.719 271.395 316.797 271.186 316.819 270.966C316.984 269.399 316.401 266.164 316.168 265.534C315.667 264.178 280.448 266.555 280.448 266.555Z" fill="black"/>
<path d="M297.906 269.734C308.364 269.734 316.842 267.873 316.842 265.577C316.842 263.281 308.364 261.42 297.906 261.42C287.447 261.42 278.969 263.281 278.969 265.577C278.969 267.873 287.447 269.734 297.906 269.734Z" fill="#FBD56F"/>
<path d="M312.777 323.696L310.995 322.768C310.995 322.768 310.161 326.022 310.434 328.341C310.46 328.576 310.564 328.798 310.73 328.976C310.896 329.155 311.116 329.281 311.362 329.339C315.461 330.291 334.998 334.349 348.433 328.633C348.628 328.55 348.796 328.421 348.922 328.259C349.047 328.096 349.125 327.906 349.147 327.707C349.312 326.281 348.729 323.341 348.496 322.768C347.995 321.535 312.777 323.696 312.777 323.696Z" fill="#FBD56F"/>
<path opacity="0.1" d="M312.777 323.696L310.995 322.768C310.995 322.768 310.161 326.022 310.434 328.341C310.46 328.576 310.564 328.798 310.73 328.976C310.896 329.155 311.116 329.281 311.362 329.339C315.461 330.291 334.998 334.349 348.433 328.633C348.628 328.55 348.796 328.421 348.922 328.259C349.047 328.096 349.125 327.906 349.147 327.707C349.312 326.281 348.729 323.341 348.496 322.768C347.995 321.535 312.777 323.696 312.777 323.696Z" fill="black"/>
<path d="M329.316 327.007C339.774 327.007 348.253 324.939 348.253 322.388C348.253 319.837 339.774 317.769 329.316 317.769C318.857 317.769 310.379 319.837 310.379 322.388C310.379 324.939 318.857 327.007 329.316 327.007Z" fill="#FBD56F"/>
<path d="M319.241 315.382L317.459 314.454C317.459 314.454 316.626 317.708 316.898 320.027C316.925 320.262 317.029 320.484 317.195 320.662C317.361 320.841 317.581 320.967 317.826 321.025C321.926 321.977 341.463 326.035 354.898 320.319C355.093 320.236 355.261 320.107 355.387 319.945C355.512 319.782 355.59 319.592 355.612 319.393C355.777 317.967 355.194 315.027 354.961 314.454C354.46 313.221 319.241 315.382 319.241 315.382Z" fill="#FBD56F"/>
<path opacity="0.1" d="M319.241 315.382L317.459 314.454C317.459 314.454 316.626 317.708 316.898 320.027C316.925 320.262 317.029 320.484 317.195 320.662C317.361 320.841 317.581 320.967 317.826 321.025C321.926 321.977 341.463 326.035 354.898 320.319C355.093 320.236 355.261 320.107 355.387 319.945C355.512 319.782 355.59 319.592 355.612 319.393C355.777 317.967 355.194 315.027 354.961 314.454C354.46 313.221 319.241 315.382 319.241 315.382Z" fill="black"/>
<path d="M335.781 318.693C346.239 318.693 354.717 316.625 354.717 314.074C354.717 311.523 346.239 309.456 335.781 309.456C325.322 309.456 316.844 311.523 316.844 314.074C316.844 316.625 325.322 318.693 335.781 318.693Z" fill="#FBD56F"/>
<path d="M311.851 306.276L310.069 305.255C310.069 305.255 309.235 308.834 309.508 311.385C309.535 311.643 309.638 311.887 309.804 312.084C309.97 312.28 310.19 312.419 310.436 312.482C314.535 313.53 334.072 317.993 347.508 311.707C347.702 311.615 347.871 311.473 347.996 311.294C348.121 311.116 348.199 310.906 348.222 310.687C348.386 309.12 347.803 305.885 347.57 305.255C347.069 303.898 311.851 306.276 311.851 306.276Z" fill="#FBD56F"/>
<path opacity="0.1" d="M311.851 306.276L310.069 305.255C310.069 305.255 309.235 308.834 309.508 311.385C309.535 311.643 309.638 311.887 309.804 312.084C309.97 312.28 310.19 312.419 310.436 312.482C314.535 313.53 334.072 317.993 347.508 311.707C347.702 311.615 347.871 311.473 347.996 311.294C348.121 311.116 348.199 310.906 348.222 310.687C348.386 309.12 347.803 305.885 347.57 305.255C347.069 303.898 311.851 306.276 311.851 306.276Z" fill="black"/>
<path d="M328.854 309.455C339.057 309.455 347.329 307.594 347.329 305.298C347.329 303.003 339.057 301.142 328.854 301.142C318.65 301.142 310.379 303.003 310.379 305.298C310.379 307.594 318.65 309.455 328.854 309.455Z" fill="#FBD56F"/>
<path d="M327.558 299.809L325.776 298.788C325.776 298.788 324.942 302.368 325.215 304.918C325.242 305.177 325.345 305.421 325.511 305.617C325.677 305.814 325.898 305.953 326.143 306.016C330.242 307.064 349.779 311.527 363.215 305.24C363.409 305.149 363.578 305.007 363.703 304.828C363.828 304.649 363.906 304.44 363.929 304.221C364.093 302.653 363.51 299.418 363.277 298.788C362.776 297.432 327.558 299.809 327.558 299.809Z" fill="#FBD56F"/>
<path opacity="0.1" d="M327.558 299.809L325.776 298.788C325.776 298.788 324.942 302.368 325.215 304.918C325.242 305.177 325.345 305.421 325.511 305.617C325.677 305.814 325.898 305.953 326.143 306.016C330.242 307.064 349.779 311.527 363.215 305.24C363.409 305.149 363.578 305.007 363.703 304.828C363.828 304.649 363.906 304.44 363.929 304.221C364.093 302.653 363.51 299.418 363.277 298.788C362.776 297.432 327.558 299.809 327.558 299.809Z" fill="black"/>
<path d="M345.019 302.989C355.477 302.989 363.956 301.128 363.956 298.832C363.956 296.536 355.477 294.675 345.019 294.675C334.56 294.675 326.082 296.536 326.082 298.832C326.082 301.128 334.56 302.989 345.019 302.989Z" fill="#FBD56F"/>
<path d="M317.394 295.191L315.612 294.17C315.612 294.17 314.778 297.75 315.051 300.3C315.078 300.559 315.181 300.803 315.347 300.999C315.513 301.196 315.733 301.335 315.979 301.398C320.078 302.446 339.615 306.909 353.051 300.622C353.245 300.531 353.414 300.389 353.539 300.21C353.664 300.031 353.742 299.822 353.765 299.603C353.929 298.035 353.346 294.8 353.113 294.17C352.612 292.814 317.394 295.191 317.394 295.191Z" fill="#FBD56F"/>
<path opacity="0.1" d="M317.394 295.191L315.612 294.17C315.612 294.17 314.778 297.75 315.051 300.3C315.078 300.559 315.181 300.803 315.347 300.999C315.513 301.196 315.733 301.335 315.979 301.398C320.078 302.446 339.615 306.909 353.051 300.622C353.245 300.531 353.414 300.389 353.539 300.21C353.664 300.031 353.742 299.822 353.765 299.603C353.929 298.035 353.346 294.8 353.113 294.17C352.612 292.814 317.394 295.191 317.394 295.191Z" fill="black"/>
<path d="M333.933 298.37C344.391 298.37 352.87 296.509 352.87 294.213C352.87 291.918 344.391 290.057 333.933 290.057C323.474 290.057 314.996 291.918 314.996 294.213C314.996 296.509 323.474 298.37 333.933 298.37Z" fill="#FBD56F"/>
<path d="M323.859 285.953L322.077 284.932C322.077 284.932 321.243 288.512 321.516 291.062C321.543 291.321 321.646 291.565 321.812 291.761C321.978 291.958 322.198 292.097 322.444 292.16C326.543 293.208 346.08 297.671 359.515 291.384C359.71 291.293 359.878 291.151 360.004 290.972C360.129 290.793 360.207 290.584 360.229 290.365C360.394 288.797 359.811 285.563 359.578 284.932C359.077 283.576 323.859 285.953 323.859 285.953Z" fill="#FBD56F"/>
<path opacity="0.1" d="M323.859 285.953L322.077 284.932C322.077 284.932 321.243 288.512 321.516 291.062C321.543 291.321 321.646 291.565 321.812 291.761C321.978 291.958 322.198 292.097 322.444 292.16C326.543 293.208 346.08 297.671 359.515 291.384C359.71 291.293 359.878 291.151 360.004 290.972C360.129 290.793 360.207 290.584 360.229 290.365C360.394 288.797 359.811 285.563 359.578 284.932C359.077 283.576 323.859 285.953 323.859 285.953Z" fill="black"/>
<path d="M341.324 289.133C351.782 289.133 360.26 287.272 360.26 284.976C360.26 282.68 351.782 280.819 341.324 280.819C330.865 280.819 322.387 282.68 322.387 284.976C322.387 287.272 330.865 289.133 341.324 289.133Z" fill="#FBD56F"/>
<path d="M327.558 275.792L325.776 274.771C325.776 274.771 324.942 278.35 325.215 280.901C325.242 281.159 325.345 281.403 325.511 281.6C325.677 281.796 325.898 281.935 326.143 281.998C330.242 283.046 349.78 287.51 363.215 281.223C363.409 281.131 363.578 280.989 363.703 280.81C363.828 280.632 363.906 280.422 363.929 280.203C364.093 278.636 363.51 275.401 363.277 274.771C362.776 273.414 327.558 275.792 327.558 275.792Z" fill="#FBD56F"/>
<path opacity="0.1" d="M327.558 275.792L325.776 274.771C325.776 274.771 324.942 278.35 325.215 280.901C325.242 281.159 325.345 281.403 325.511 281.6C325.677 281.796 325.898 281.935 326.143 281.998C330.242 283.046 349.78 287.51 363.215 281.223C363.409 281.131 363.578 280.989 363.703 280.81C363.828 280.632 363.906 280.422 363.929 280.203C364.093 278.636 363.51 275.401 363.277 274.771C362.776 273.414 327.558 275.792 327.558 275.792Z" fill="black"/>
<path d="M344.557 278.972C354.76 278.972 363.032 277.111 363.032 274.815C363.032 272.519 354.76 270.658 344.557 270.658C334.354 270.658 326.082 272.519 326.082 274.815C326.082 277.111 334.354 278.972 344.557 278.972Z" fill="#FBD56F"/>
<path d="M440.674 348.608C438.055 348.515 437.961 347.499 434.593 345.743C432.692 344.753 429.804 341.876 427.653 339.56C427.48 339.375 427.313 339.194 427.152 339.017C427.721 339.004 428.044 338.999 428.044 338.999C428.044 338.999 427.202 331.607 427.95 329.851C428.699 328.096 428.137 317.655 428.137 317.655C428.137 317.655 428.605 309.709 427.763 307.861C426.921 306.013 428.044 294.187 428.044 294.187C428.044 294.187 428.792 287.165 428.979 272.844C429.166 258.522 420.746 258.06 420.746 258.06C420.746 258.06 419.623 257.973 417.919 257.811C417.755 257.795 417.582 257.779 417.408 257.762C418.512 255.449 419.155 253.718 419.155 253.718C419.155 253.718 417.752 240.32 417.378 238.01C417.003 235.701 414.758 226.184 414.758 226.184C414.758 226.184 413.167 222.118 412.232 219.254C411.296 216.39 408.489 213.064 408.489 213.064C408.489 213.064 403.437 203.085 402.034 201.607C401.383 200.921 400.469 200.056 399.678 199.326C399.535 199.195 399.399 199.07 399.266 198.949C399.478 197.907 399.59 196.848 399.601 195.786C399.601 195.786 394.362 190.612 393.988 189.318C393.613 188.025 388.655 183.22 388.655 183.22C388.655 183.22 385.848 178.046 382.667 177.954C381.164 177.868 379.656 177.914 378.161 178.09C378.814 175.67 379.587 173.135 380.281 170.959C380.358 170.717 380.434 170.48 380.509 170.248C383.051 168.527 385.046 166.112 386.257 163.29C386.323 163.14 386.383 162.989 386.443 162.837C386.477 162.838 386.51 162.843 386.544 162.843C386.676 162.841 386.807 162.829 386.937 162.807C387.985 162.627 388.871 161.444 388.388 160.51C388.419 160.562 388.464 160.606 388.518 160.635C388.572 160.665 388.632 160.679 388.693 160.677C389.042 160.666 389.468 160.16 389.55 159.716C389.564 159.639 389.572 159.561 389.584 159.483C389.599 159.387 389.615 159.291 389.626 159.194C389.637 159.103 389.644 159.011 389.651 158.92C389.659 158.826 389.667 158.731 389.671 158.637C389.676 158.548 389.679 158.46 389.68 158.372C389.682 158.27 389.681 158.168 389.68 158.066C389.678 157.985 389.677 157.903 389.673 157.822C389.667 157.698 389.657 157.575 389.646 157.451C389.641 157.401 389.64 157.35 389.634 157.299L389.633 157.306C389.579 156.801 389.478 156.303 389.332 155.816C388.815 154.099 387.73 152.396 388.148 150.652C388.153 150.633 388.161 150.616 388.166 150.598L388.166 150.601C388.515 149.248 389.685 148.265 390.4 147.056C390.469 146.941 390.529 146.822 390.588 146.702C390.599 146.681 390.612 146.66 390.622 146.638C390.665 146.548 390.702 146.456 390.74 146.364C390.764 146.305 390.791 146.247 390.813 146.187C390.843 146.106 390.868 146.024 390.894 145.942C390.919 145.868 390.944 145.794 390.965 145.719C390.985 145.646 391.001 145.573 391.018 145.5C391.039 145.412 391.06 145.324 391.077 145.234C391.089 145.171 391.099 145.106 391.109 145.042C391.124 144.941 391.139 144.84 391.149 144.739C391.155 144.683 391.16 144.628 391.164 144.573C391.173 144.46 391.179 144.346 391.182 144.232C391.183 144.187 391.184 144.141 391.184 144.095C391.184 143.971 391.181 143.846 391.174 143.722C391.172 143.684 391.17 143.647 391.167 143.61C391.158 143.477 391.144 143.345 391.127 143.213C391.124 143.194 391.124 143.174 391.121 143.155L391.12 143.16C390.961 141.999 390.499 140.901 389.78 139.976C388.961 139 387.926 138.228 386.757 137.722C385.588 137.216 384.317 136.99 383.045 137.061C382.342 137.14 381.633 137.153 380.928 137.1C379.753 136.928 378.76 136.181 377.824 135.459C375.212 133.445 372.599 131.432 369.987 129.418C369.113 128.658 368.11 128.061 367.025 127.656C365.917 127.316 364.59 127.433 363.77 128.243C362.303 129.692 363.235 132.186 362.646 134.151C362.136 135.853 360.494 137.006 358.793 137.581C357.093 138.156 355.273 138.282 353.526 138.698C353.006 138.783 352.519 139.007 352.117 139.346C351.664 139.896 351.444 140.601 351.504 141.311C351.494 143.051 351.911 144.767 352.721 146.307C353.051 146.935 353.451 147.569 353.803 148.212C353.832 148.265 353.86 148.318 353.888 148.371C353.928 148.445 353.967 148.519 354.005 148.593C354.065 148.713 354.123 148.833 354.178 148.954C354.202 149.006 354.223 149.059 354.246 149.111C354.283 149.197 354.318 149.282 354.351 149.368C354.372 149.423 354.392 149.478 354.411 149.532C354.447 149.634 354.478 149.735 354.507 149.837C354.694 150.434 354.712 151.072 354.558 151.679C354.288 152.672 353.513 153.437 352.83 154.213C352.273 154.819 351.876 155.556 351.676 156.355L351.673 156.373C351.634 156.558 351.627 156.749 351.651 156.937C351.655 156.961 351.657 156.984 351.662 157.007C351.671 157.049 351.683 157.09 351.697 157.131C351.707 157.16 351.72 157.189 351.733 157.217C351.747 157.25 351.764 157.282 351.782 157.312C351.816 157.364 351.856 157.411 351.901 157.453C351.922 157.47 351.944 157.487 351.967 157.502C352.004 157.53 352.044 157.554 352.087 157.575C352.112 157.588 352.139 157.6 352.167 157.611C352.229 157.634 352.293 157.651 352.358 157.663C352.377 157.667 352.392 157.672 352.411 157.675C352.511 157.688 352.612 157.692 352.712 157.688C352.741 157.687 352.773 157.683 352.803 157.681C352.9 157.674 352.996 157.662 353.091 157.645C353.126 157.639 353.16 157.633 353.196 157.626C353.334 157.597 353.479 157.562 353.638 157.512C354.163 157.354 354.674 157.151 355.166 156.908C355.166 156.964 355.162 157.02 355.162 157.076C355.162 157.173 355.162 157.275 355.171 157.372C355.198 159.184 355.54 160.977 356.182 162.671C357.185 165.312 358.868 167.639 361.061 169.418C361.034 169.577 361.004 169.738 360.972 169.899C360.521 172.114 359.578 174.337 358.996 174.165C358.426 174.038 357.845 173.974 357.261 173.975C357.085 173.97 356.913 173.967 356.751 173.966L356.75 173.966C356.222 173.905 355.688 173.905 355.16 173.966C354.924 173.982 354.687 173.949 354.464 173.87C352.952 173.393 351.345 173.303 349.789 173.607C346.554 174.271 341.633 175.485 340.284 176.937C338.225 179.155 335.231 181.28 331.863 190.519C331.863 190.519 330.179 196.155 328.869 196.895C329.158 196.745 329.455 196.611 329.758 196.495C329.584 196.8 329.344 197.063 329.056 197.264C329.531 197.021 330.024 196.816 330.53 196.649C329.508 202.669 331.021 219.888 331.021 219.888C331.021 219.888 329.805 222.858 331.395 224.613C332.341 225.657 332.854 227.283 333.117 228.435C333.043 228.55 332.966 228.67 332.887 228.793V228.795C332.045 230.101 330.918 231.805 330.179 232.744C328.869 234.407 329.244 239.674 329.244 239.674C329.244 239.674 328.963 242.168 328.027 243.092C327.092 244.016 327.279 247.435 327.279 247.435L324.846 256.397C324.846 256.397 322.601 258.43 322.601 259.354C322.601 260.278 320.823 262.865 320.823 262.865C320.823 262.865 318.11 267.3 320.823 266.653C321.812 266.363 322.74 265.896 323.563 265.275L323.561 265.341C323.557 265.503 323.554 265.669 323.551 265.836C323.475 270.667 324 277.463 327.559 277.463C333.08 277.463 347.301 284.023 347.301 284.023C350.201 286.241 354.131 285.502 354.131 285.502C354.131 285.502 347.207 292.431 347.394 295.296C347.581 298.16 343.465 302.872 343.465 302.872L330.74 327.726C330.812 329.458 331.119 331.172 331.653 332.821C331.592 332.873 331.529 332.924 331.47 332.978C326.581 337.448 326.156 346.298 326.156 346.298L325.033 350.825L342.061 358.309C342.061 358.309 364.142 358.771 367.978 357.755C371.814 356.738 370.972 352.488 365.919 351.657C360.867 350.825 359.651 348.608 357.967 347.591C356.831 346.906 352.797 342.474 350.293 339.666C350.255 339.623 350.22 339.584 350.182 339.541L350.763 336.319C351.885 335.765 353.569 330.221 353.569 330.221C353.569 330.221 353.569 328.003 354.692 327.357C355.815 326.71 358.154 320.057 358.154 320.057C358.154 320.057 363.206 311.649 362.925 310.541C362.645 309.432 366.574 303.796 366.574 303.796C366.574 303.796 373.217 297.328 372.936 296.173C372.656 295.018 378.269 289.105 378.269 289.105C380.298 287.555 381.988 285.607 383.237 283.38C383.743 283.299 384.285 283.212 384.858 283.116C392.204 281.911 404.412 279.732 405.776 279.126C407.647 278.295 407.273 281.991 406.525 285.132C405.776 288.273 405.215 303.334 406.057 305.274C406.899 307.214 406.525 310.356 406.525 310.356L405.402 327.264L406.15 330.868C406.15 330.868 403.624 332.9 404.653 334.102C405.683 335.303 404.747 340.477 404.747 340.477C404.835 340.444 404.94 340.412 405.058 340.381C404.968 340.583 404.882 340.792 404.805 341.011C403.355 345.148 404.186 351.934 404.186 351.934V357.293C404.186 357.293 430.102 357.755 435.809 357.755C441.516 357.755 449.375 354.983 449.843 352.765C450.311 350.548 443.294 348.7 440.674 348.608ZM366.963 252.42L365.265 252.563C365.828 252.481 366.395 252.433 366.963 252.42ZM377.313 181.5C377.551 180.431 377.84 179.282 378.158 178.103L377.313 181.5ZM380.515 255.011C378.896 255.652 377.094 255.654 375.474 255.017L375.462 255.011C375.462 255.011 375.556 248.544 376.305 245.864C377.053 243.185 378.082 238.288 378.082 238.288C378.082 238.288 378.924 231.543 379.766 228.494C380.608 225.445 383.883 208.444 385.567 207.335C387.251 206.226 388.187 208.167 388.187 208.167C388.187 208.167 388.438 208.162 388.86 208.115C388.939 208.292 389.028 208.481 389.128 208.681C391.125 212.718 396.982 221.01 396.982 221.01C398.719 222.082 400.19 223.536 401.285 225.26C402.876 227.939 403.344 234.222 403.344 234.222C403.344 234.222 406.899 248.174 408.583 250.114C409.425 251.084 409.051 251.663 408.467 251.997C407.274 252.651 406.26 253.588 405.514 254.727C405.275 255.107 405.021 255.525 404.763 255.971C404.12 255.821 403.543 255.667 403.063 255.505C398.478 253.963 383.041 253.902 380.515 255.011Z" fill="url(#paint0_linear)"/>
<path d="M403.913 351.723V357.032C403.913 357.032 429.461 357.49 435.087 357.49C440.713 357.49 448.46 354.744 448.921 352.547C449.382 350.35 442.465 348.52 439.883 348.428C437.3 348.337 437.208 347.33 433.888 345.591C432.014 344.61 429.168 341.759 427.046 339.466C425.41 337.695 424.204 336.255 424.204 336.255C424.204 336.255 410.462 335.98 406.496 338.177C405.583 338.684 404.952 339.676 404.524 340.903C403.094 345.001 403.913 351.723 403.913 351.723Z" fill="#434175"/>
<path opacity="0.1" d="M404.602 340.862C407.438 339.877 424.042 339.494 426.771 339.438C425.161 337.683 423.974 336.255 423.974 336.255C423.974 336.255 410.446 335.982 406.543 338.16C405.644 338.663 405.023 339.646 404.602 340.862Z" fill="black"/>
<path d="M330.699 255.843C330.699 255.843 331.232 256.163 332.189 256.736C332.362 256.839 332.549 256.952 332.748 257.071C333.355 257.435 334.083 257.869 334.915 258.367C346.502 265.298 378.111 284.086 379.841 283.936C380.294 283.897 381.657 283.694 383.538 283.39C384.036 283.31 384.57 283.224 385.135 283.129C392.374 281.935 404.404 279.778 405.748 279.177C407.592 278.354 407.223 282.014 406.486 285.125C405.748 288.237 405.195 303.152 406.025 305.074C406.855 306.996 406.486 310.107 406.486 310.107L405.38 326.853L406.117 330.422C406.117 330.422 403.628 332.435 404.642 333.625C405.656 334.814 404.734 339.939 404.734 339.939C407.684 338.841 427.691 338.475 427.691 338.475C427.691 338.475 426.862 331.154 427.599 329.415C428.337 327.677 427.784 317.336 427.784 317.336C427.784 317.336 428.245 309.467 427.415 307.636C426.585 305.806 427.691 294.093 427.691 294.093C427.691 294.093 428.429 287.139 428.613 272.955C428.798 258.771 420.5 258.314 420.5 258.314C420.5 258.314 419.394 258.228 417.714 258.067C414.428 257.754 408.951 257.155 405.293 256.366C404.543 256.213 403.803 256.018 403.075 255.783C398.557 254.256 383.344 254.196 380.855 255.294C379.261 255.929 377.482 255.931 375.887 255.299L375.876 255.294L373.94 252.183L355.447 253.747L353.487 253.914L335.281 255.455L334.029 255.561L330.699 255.843Z" fill="#565387"/>
<path opacity="0.1" d="M404.594 270.209C409.986 272.787 415.133 263.647 417.532 258.489C414.233 258.178 408.735 257.584 405.062 256.802C402.646 260.778 399.423 267.738 404.594 270.209Z" fill="black"/>
<path d="M388.899 207.596C389.009 208.227 389.224 208.833 389.535 209.39C391.459 213.399 397.1 221.632 397.1 221.632C398.778 222.7 400.196 224.143 401.245 225.852C402.778 228.512 403.228 234.75 403.228 234.75C403.228 234.75 406.653 248.603 408.275 250.529C409.086 251.492 408.725 252.067 408.163 252.399C407.011 253.05 406.034 253.981 405.319 255.109C402.956 258.976 399.184 266.647 404.49 269.28C411.699 272.858 418.458 254.107 418.458 254.107C418.458 254.107 417.107 240.805 416.746 238.511C416.386 236.218 414.223 226.769 414.223 226.769C414.223 226.769 412.691 222.732 411.79 219.889C410.888 217.045 408.185 213.742 408.185 213.742C408.185 213.742 403.318 203.835 401.966 202.367C401.339 201.686 400.46 200.827 399.697 200.103C398.816 199.264 398.091 198.605 398.091 198.605C398.091 198.605 388.809 205.394 388.899 207.596Z" fill="#EE8E9E"/>
<path d="M326.082 350.908L342.736 358.31C342.736 358.31 364.33 358.767 368.082 357.762C371.834 356.757 371.01 352.553 366.069 351.73C361.128 350.908 359.938 348.714 358.291 347.709C357.18 347.031 353.235 342.647 350.786 339.869C349.608 338.531 348.775 337.564 348.775 337.564C348.775 337.564 345.572 329.065 336.696 330.984C335.077 331.333 333.583 332.118 332.377 333.254C327.596 337.676 327.18 346.429 327.18 346.429L326.082 350.908Z" fill="#434175"/>
<path opacity="0.1" d="M333.473 257.472C334.066 257.838 334.777 258.275 335.59 258.776C346.915 265.752 377.808 284.664 379.499 284.513C379.942 284.474 381.274 284.27 383.112 283.964C383.599 283.883 384.121 283.796 384.673 283.7C384.694 283.665 384.714 283.63 384.734 283.595C385.642 281.975 386.335 280.24 386.798 278.434C388.69 271.065 379.319 265.446 379.319 265.446L377.336 263.871C375.083 259.993 358.864 256.328 358.864 256.328L356.773 254.892L355.658 254.126L355.364 253.925L352.826 252.183L340.121 253.104L336.347 255.583L335.949 255.845L334.549 256.766L333.473 257.472Z" fill="black"/>
<path opacity="0.1" d="M332.551 333.202C336.066 345.053 350.752 341.182 350.752 341.182L351.026 339.68C349.843 338.37 349.007 337.423 349.007 337.423C349.007 337.423 345.793 329.098 336.885 330.978C335.26 331.32 333.761 332.089 332.551 333.202Z" fill="black"/>
<path d="M329.102 277.618C334.522 277.618 348.484 284.138 348.484 284.138C351.332 286.341 355.19 285.607 355.19 285.607C355.19 285.607 348.392 292.494 348.576 295.34C348.76 298.187 344.718 302.87 344.718 302.87L332.225 327.571C333.144 345.109 351.148 340.242 351.148 340.242L351.883 336.11C352.985 335.559 354.638 330.05 354.638 330.05C354.638 330.05 354.638 327.846 355.741 327.203C356.843 326.561 359.139 319.949 359.139 319.949C359.139 319.949 364.1 311.593 363.824 310.491C363.549 309.389 367.407 303.788 367.407 303.788C367.407 303.788 373.929 297.36 373.653 296.213C373.377 295.065 378.889 289.188 378.889 289.188C380.885 287.643 382.545 285.707 383.766 283.498C384.692 281.883 385.399 280.153 385.87 278.353C387.424 272.437 381.531 267.651 379.177 266.015C378.608 265.618 378.246 265.405 378.246 265.405L376.225 263.835C375.181 262.076 371.191 260.362 367.151 259.016C364.238 258.045 361.296 257.264 359.417 256.796C358.173 256.487 357.394 256.315 357.394 256.315L355.263 254.884L354.514 254.381L353.826 253.92L351.24 252.183L345.477 252.59L338.288 253.101L334.441 255.573L332.607 256.752L325.428 261.365C325.428 261.365 325.238 263.132 325.178 265.503C325.174 265.686 325.171 265.872 325.167 266.063C325.091 270.863 325.608 277.618 329.102 277.618Z" fill="#565387"/>
<path d="M356.562 175.166L358.482 182.029C358.482 182.029 361.863 193.834 362.229 194.657C362.595 195.481 371.46 203.808 371.826 203.991C372.191 204.174 377.019 206.919 377.019 206.919C377.019 206.919 377.401 191.82 377.035 187.428C377.003 186.463 377.083 185.498 377.273 184.551C377.856 181.108 379.331 176.061 380.554 172.173C381.577 168.916 382.427 166.472 382.427 166.472C382.427 166.472 361.041 165.557 361.772 167.662C362.048 168.458 361.958 169.789 361.692 171.123C361.251 173.317 360.33 175.519 359.761 175.349C359.205 175.223 358.637 175.16 358.067 175.16C357.277 175.136 356.562 175.166 356.562 175.166Z" fill="#EE8E9E"/>
<path opacity="0.1" d="M362.109 171.002C364.67 173.13 367.852 174.38 371.182 174.564C374.512 174.749 377.814 173.859 380.596 172.026C381.599 168.85 382.432 166.467 382.432 166.467C382.432 166.467 361.472 165.575 362.188 167.627C362.459 168.403 362.371 169.701 362.109 171.002Z" fill="black"/>
<path d="M387.976 158.886C387.977 160.551 387.704 162.206 387.167 163.788C387.032 164.197 386.876 164.598 386.7 164.991C385.441 167.888 383.317 170.35 380.601 172.061C377.886 173.771 374.705 174.65 371.469 174.585C368.234 174.519 365.093 173.512 362.453 171.693C359.814 169.874 357.797 167.328 356.663 164.383C356.021 162.717 355.68 160.955 355.654 159.176C355.645 159.081 355.645 158.981 355.645 158.886C355.645 154.72 357.348 150.726 360.379 147.781C363.411 144.835 367.523 143.181 371.81 143.181C376.097 143.181 380.209 144.835 383.241 147.781C386.273 150.726 387.976 154.72 387.976 158.886H387.976Z" fill="#EE8E9E"/>
<path opacity="0.1" d="M356.562 175.526L358.446 182.312C358.446 182.312 361.764 193.982 362.123 194.796C362.482 195.61 371.181 203.843 371.54 204.024C371.898 204.205 376.636 206.919 376.636 206.919C376.636 206.919 377.01 191.992 376.652 187.649C376.621 186.695 376.699 185.741 376.885 184.805L375.665 189.82L375.755 199.863L376.472 200.405L374.858 202.848V201.039C374.858 201.039 369.118 195.43 368.221 193.077C367.325 190.725 364.096 186.466 364.096 186.466C364.096 186.466 360.419 180.231 360.329 179.145C360.259 178.298 358.715 176.341 358.039 175.521C357.264 175.497 356.562 175.526 356.562 175.526Z" fill="black"/>
<path opacity="0.1" d="M388.899 207.846C389.012 208.494 389.233 209.118 389.552 209.69C391.574 209.479 398.466 208.169 399.983 200.144C399.079 199.282 398.335 198.605 398.335 198.605C398.335 198.605 388.807 205.583 388.899 207.846Z" fill="black"/>
<path opacity="0.1" d="M325.16 266.039C327.008 264.73 328.765 262.944 329.815 262.449C331.371 261.716 333.751 259.333 333.751 259.333C333.751 259.333 334.355 258.922 335.282 258.377C336.981 257.38 339.766 255.935 341.899 255.758C343.811 255.598 350.16 255.191 355.155 254.879C358.77 254.652 361.674 254.474 361.674 254.474C361.674 254.474 367.624 252.366 370.188 253.741C372.024 254.662 373.959 255.369 375.955 255.849C375.955 255.849 375.957 255.649 375.966 255.305L375.955 255.299L374.033 252.183L353.723 253.917L351.145 252.183L338.237 253.099L334.403 255.567L331.096 255.849C331.096 255.849 331.625 256.17 332.576 256.744L325.42 261.349C325.42 261.349 325.2 263.397 325.16 266.039Z" fill="black"/>
<path d="M322.631 266.899C323.592 266.611 324.493 266.148 325.288 265.534V265.532C327.116 264.227 328.854 262.45 329.892 261.958C331.435 261.226 333.795 258.848 333.795 258.848C333.795 258.848 338.606 255.554 341.873 255.279C342.764 255.204 344.627 255.074 346.865 254.928C349.156 254.774 351.837 254.602 354.275 254.45C355.681 254.361 357.004 254.277 358.122 254.207C360.126 254.083 361.479 253.998 361.479 253.998C361.479 253.998 367.378 251.894 369.92 253.267C371.74 254.186 373.659 254.892 375.638 255.371C375.638 255.371 375.729 248.966 376.455 246.313C377.181 243.66 378.18 238.811 378.18 238.811C378.18 238.811 378.996 232.132 379.813 229.113C380.63 226.093 383.807 209.259 385.441 208.161C387.075 207.063 387.982 208.984 387.982 208.984C387.982 208.984 398.874 208.801 399.056 196.725C399.056 196.725 393.973 191.601 393.61 190.32C393.247 189.039 388.436 184.282 388.436 184.282C388.436 184.282 385.713 179.158 382.627 179.067C381.169 178.982 379.706 179.027 378.256 179.202L375.638 189.954L375.729 200.11L376.455 200.659L374.821 203.129V201.299C374.821 201.299 369.012 195.627 368.105 193.248C367.197 190.869 363.929 186.562 363.929 186.562C363.929 186.562 360.208 180.256 360.117 179.158C360.026 178.06 357.485 175.118 357.485 175.118C356.972 175.057 356.455 175.057 355.942 175.118C355.713 175.134 355.483 175.101 355.267 175.023C353.801 174.551 352.241 174.461 350.732 174.763C347.593 175.42 342.819 176.622 341.51 178.06C339.513 180.256 336.609 182.36 333.341 191.509L350.95 197.914L349.443 200.801L335.429 227.649C335.429 227.649 334.964 228.412 334.334 229.409V229.411C333.517 230.705 332.425 232.392 331.707 233.321C330.437 234.968 330.8 240.183 330.8 240.183C330.8 240.183 330.527 242.653 329.62 243.568C328.712 244.483 328.894 247.868 328.894 247.868L326.534 256.743C326.534 256.743 324.355 258.756 324.355 259.671C324.355 260.586 322.631 263.148 322.631 263.148C322.631 263.148 319.999 267.539 322.631 266.899Z" fill="#434175"/>
<path opacity="0.1" d="M416.611 273.43C416.611 273.43 410.223 275.448 408.5 278.332C406.776 281.215 416.611 273.43 416.611 273.43Z" fill="black"/>
<path opacity="0.1" d="M412.917 267.887C412.735 268.163 405.068 275.962 405.549 277.845C406.03 279.728 412.917 267.887 412.917 267.887Z" fill="black"/>
<path opacity="0.1" d="M370.425 273.43C370.425 273.43 361.947 277.12 361.225 278.729C360.503 280.339 370.425 273.43 370.425 273.43Z" fill="black"/>
<path opacity="0.1" d="M370.425 278.048C370.425 278.048 362.37 281.662 361.27 282.565C360.17 283.468 370.425 278.048 370.425 278.048Z" fill="black"/>
<path opacity="0.1" d="M366.73 285.956C366.73 285.956 363.358 288.536 361.498 286.509C359.639 284.481 366.73 285.956 366.73 285.956Z" fill="black"/>
<path opacity="0.1" d="M379.659 218.928C379.477 219.199 368.199 239.493 365.221 241.027C362.244 242.56 379.659 218.928 379.659 218.928Z" fill="black"/>
<path opacity="0.1" d="M378.737 226.318C378.737 226.782 367.758 250.979 365.959 251.257C364.159 251.535 378.737 226.318 378.737 226.318Z" fill="black"/>
<path opacity="0.1" d="M336.242 242.022C336.242 242.022 331.138 253.36 329.138 254.007C327.139 254.653 336.242 242.022 336.242 242.022Z" fill="black"/>
<path opacity="0.1" d="M335.322 236.479C335.322 236.479 333.704 241.098 332.721 241.098C331.738 241.098 335.322 236.479 335.322 236.479Z" fill="black"/>
<path opacity="0.1" d="M387.976 158.479C387.977 160.102 387.704 161.714 387.167 163.255C387.032 163.653 386.876 164.044 386.7 164.427C385.87 164.308 385.088 163.983 384.434 163.485C383.74 163.04 383.16 162.454 382.737 161.769C382.419 161.04 382.143 160.294 381.91 159.536C381.538 158.68 380.93 157.934 380.15 157.375C379.371 156.816 378.447 156.464 377.476 156.356C378.013 157.223 377.158 158.413 376.107 158.568C375.055 158.718 374.032 158.125 373.308 157.387C372.583 156.648 372.06 155.751 371.34 155.012C370.616 154.274 369.593 153.681 368.541 153.831C367.612 153.964 366.892 154.636 366.112 155.136C365.336 155.636 364.247 155.972 363.495 155.437C363.074 155.14 362.869 154.636 362.467 154.313C361.434 153.495 359.827 154.34 359.065 155.397C357.892 157.033 357.177 158.024 355.654 158.762C355.645 158.669 355.645 158.572 355.645 158.479C355.645 154.422 357.348 150.53 360.379 147.661C363.411 144.792 367.523 143.181 371.81 143.181C376.097 143.181 380.209 144.792 383.241 147.661C386.273 150.53 387.976 154.422 387.976 158.479Z" fill="black"/>
<path d="M359.044 155.048C359.806 153.951 361.416 153.074 362.453 153.926C362.856 154.257 363.061 154.781 363.481 155.091C364.234 155.646 365.326 155.297 366.104 154.777C366.883 154.257 367.606 153.563 368.537 153.425C369.591 153.268 370.618 153.883 371.341 154.649C372.065 155.416 372.589 156.346 373.313 157.112C374.037 157.878 375.064 158.493 376.118 158.335C377.171 158.177 378.03 156.942 377.489 156.043C378.462 156.155 379.386 156.52 380.167 157.1C380.948 157.679 381.557 158.453 381.931 159.34C382.164 160.126 382.44 160.899 382.76 161.656C383.184 162.365 383.766 162.973 384.462 163.433C385.321 164.05 386.362 164.57 387.411 164.391C388.461 164.212 389.349 163.035 388.862 162.107C389.197 162.606 389.917 161.911 390.026 161.323C390.263 160.034 390.189 158.709 389.809 157.453C389.292 155.748 388.207 154.057 388.625 152.327C388.956 150.957 390.151 149.973 390.877 148.758C392.163 146.603 391.822 143.701 390.258 141.73C389.444 140.765 388.411 140 387.24 139.497C386.069 138.995 384.795 138.768 383.518 138.837C382.815 138.916 382.105 138.929 381.4 138.876C380.224 138.705 379.23 137.964 378.293 137.247L370.451 131.251C369.579 130.498 368.574 129.905 367.487 129.502C366.378 129.165 365.05 129.281 364.229 130.085C362.761 131.523 363.694 133.999 363.105 135.949C362.594 137.638 360.951 138.783 359.249 139.353C357.548 139.924 355.727 140.049 353.978 140.462C353.457 140.546 352.969 140.769 352.568 141.106C352.114 141.654 351.895 142.352 351.955 143.055C351.944 144.781 352.362 146.483 353.173 148.014C354.081 149.725 355.52 151.484 355.011 153.346C354.741 154.332 353.966 155.091 353.282 155.861C351.8 157.531 351.3 159.998 354.088 159.136C356.775 158.306 357.528 157.23 359.044 155.048Z" fill="#434175"/>
<g opacity="0.1">
<path opacity="0.1" d="M389.654 159.393C389.548 159.98 388.843 160.674 388.515 160.176C388.992 161.102 388.124 162.278 387.097 162.457C386.071 162.636 385.052 162.116 384.212 161.5C383.531 161.041 382.962 160.434 382.547 159.725C382.235 158.97 381.964 158.198 381.736 157.413C381.371 156.527 380.775 155.754 380.011 155.176C379.248 154.597 378.343 154.232 377.391 154.12C377.921 155.018 377.081 156.251 376.05 156.409C375.02 156.567 374.015 155.953 373.307 155.188C372.599 154.422 372.086 153.494 371.378 152.728C370.671 151.963 369.666 151.349 368.636 151.506C367.725 151.644 367.018 152.337 366.256 152.856C365.495 153.376 364.427 153.724 363.69 153.169C363.28 152.86 363.079 152.337 362.685 152.007C361.67 151.155 360.096 152.031 359.35 153.126C357.868 155.306 357.131 156.38 354.503 157.209C353.641 157.481 353.101 157.42 352.811 157.157C352.234 158.481 352.497 159.648 354.503 159.015C357.131 158.186 357.868 157.111 359.35 154.932C360.096 153.837 361.67 152.961 362.685 153.812C363.079 154.143 363.28 154.665 363.69 154.975C364.427 155.529 365.495 155.181 366.256 154.662C367.018 154.143 367.725 153.45 368.636 153.311C369.666 153.154 370.671 153.769 371.378 154.534C372.086 155.299 372.599 156.228 373.307 156.993C374.015 157.758 375.02 158.372 376.05 158.214C377.081 158.057 377.921 156.824 377.391 155.926C378.343 156.038 379.248 156.402 380.011 156.981C380.775 157.56 381.371 158.332 381.736 159.218C381.964 160.003 382.235 160.775 382.547 161.531C382.962 162.239 383.531 162.846 384.212 163.306C385.052 163.922 386.071 164.441 387.097 164.263C388.123 164.084 388.992 162.908 388.515 161.981C388.843 162.48 389.548 161.786 389.654 161.199C389.797 160.408 389.824 159.601 389.737 158.803C389.716 159.001 389.69 159.198 389.654 159.393Z" fill="black"/>
<path opacity="0.1" d="M355.383 151.497C355.39 151.473 355.401 151.451 355.407 151.427C355.905 149.567 354.497 147.811 353.609 146.103C352.986 144.898 352.599 143.586 352.471 142.235C352.436 142.474 352.419 142.715 352.418 142.956C352.407 144.679 352.816 146.379 353.609 147.909C354.216 149.076 355.065 150.267 355.383 151.497Z" fill="black"/>
<path opacity="0.1" d="M390.488 146.845C389.779 148.059 388.609 149.042 388.285 150.41C388.16 150.989 388.166 151.588 388.302 152.165C388.643 150.823 389.788 149.849 390.488 148.651C391.149 147.477 391.398 146.116 391.193 144.785C391.094 145.511 390.854 146.211 390.488 146.845Z" fill="black"/>
</g>
<path opacity="0.1" d="M334.398 229.73V229.732C334.519 230.232 334.612 230.739 334.676 231.25C334.676 231.25 341.851 248.025 342.76 249.023C343.039 249.329 344.093 250.838 345.417 252.781C345.897 253.482 346.411 254.242 346.937 255.022C349.684 259.092 352.75 263.713 352.75 263.713L359.471 269.607C359.471 269.607 374.092 270.775 378.738 266.038C378.175 265.646 377.817 265.436 377.817 265.436L375.819 263.885C374.788 262.148 370.842 260.456 366.848 259.126C363.168 259.153 360.158 259.451 360.158 259.451L359.2 256.934L358.201 254.308L353.121 240.953C353.121 240.953 349.844 224.086 348.754 223.27C347.664 222.454 347.937 219.915 347.937 219.915C347.937 219.915 349.935 212.752 349.208 211.754C348.481 210.757 350.389 203.412 350.389 203.412C350.199 202.695 349.905 202.009 349.517 201.377L335.494 227.986C335.494 227.986 335.029 228.742 334.398 229.73Z" fill="black"/>
<path d="M350.613 202.693C350.613 202.693 348.687 210.118 349.42 211.126C350.154 212.134 348.137 219.376 348.137 219.376C348.137 219.376 347.861 221.942 348.962 222.767C350.062 223.592 353.371 240.641 353.371 240.641L360.476 259.339C360.476 259.339 382.71 257.14 380.418 264.106C378.125 271.072 359.783 269.605 359.783 269.605L352.997 263.648C352.997 263.648 343.826 249.807 342.909 248.799C341.992 247.79 334.747 230.833 334.747 230.833C334.747 230.833 334.38 227.442 332.821 225.7C331.262 223.959 332.454 221.013 332.454 221.013C332.454 221.013 330.529 198.844 332.546 196.185C334.564 193.527 348.503 194.719 350.613 202.693Z" fill="#EE8E9E"/>
<path opacity="0.1" d="M339.437 188.783L333.643 192.264C333.643 192.264 331.987 197.851 330.699 198.584C330.699 198.584 342.288 192.172 351.026 206.92C351.026 206.92 350.75 204.996 351.946 204.08C353.142 203.164 352.866 199.225 352.866 199.225C353.184 198.603 353.461 197.96 353.694 197.302C354.522 195.286 350.199 183.745 339.437 188.783Z" fill="black"/>
<path d="M339.088 187.859L333.525 191.34C333.525 191.34 331.935 196.927 330.699 197.66C330.699 197.66 341.825 191.248 350.213 205.996C350.213 205.996 349.948 204.072 351.096 203.156C352.244 202.24 351.979 198.301 351.979 198.301C352.285 197.679 352.55 197.036 352.774 196.378C353.569 194.363 349.419 182.821 339.088 187.859Z" fill="#434175"/>
<path d="M287.749 348.253C297.188 348.253 304.839 340.188 304.839 330.24C304.839 320.292 297.188 312.227 287.749 312.227C278.311 312.227 270.66 320.292 270.66 330.24C270.66 340.188 278.311 348.253 287.749 348.253Z" fill="#FBD56F"/>
<path opacity="0.1" d="M287.749 348.253C297.188 348.253 304.839 340.188 304.839 330.24C304.839 320.292 297.188 312.227 287.749 312.227C278.311 312.227 270.66 320.292 270.66 330.24C270.66 340.188 278.311 348.253 287.749 348.253Z" fill="black"/>
<path d="M290.519 348.252C299.957 348.252 307.608 340.394 307.608 330.701C307.608 321.008 299.957 313.15 290.519 313.15C281.081 313.15 273.43 321.008 273.43 330.701C273.43 340.394 281.081 348.252 290.519 348.252Z" fill="#FBD56F"/>
<path d="M41.5665 340.863C53.3004 340.863 62.8127 339.209 62.8127 337.168C62.8127 335.127 53.3004 333.473 41.5665 333.473C29.8326 333.473 20.3203 335.127 20.3203 337.168C20.3203 339.209 29.8326 340.863 41.5665 340.863Z" fill="#6C63FF"/>
<path d="M49.6871 331.13C50.5757 330.295 51.4093 329.31 51.6653 328.111C51.9214 326.912 51.416 325.475 50.283 325.036C49.0135 324.545 47.6568 325.435 46.6283 326.334C45.5997 327.233 44.4209 328.258 43.0748 328.068C43.7672 327.433 44.2853 326.628 44.5785 325.731C44.8717 324.834 44.9301 323.875 44.7479 322.948C44.6887 322.565 44.5279 322.206 44.2826 321.908C43.5778 321.146 42.3003 321.473 41.4564 322.074C38.7729 323.982 38.0241 327.669 38.0095 330.986C37.7389 329.79 37.9668 328.543 37.9601 327.315C37.9534 326.087 37.6208 324.726 36.5967 324.067C35.9588 323.72 35.2414 323.549 34.5172 323.573C33.3109 323.528 31.9674 323.65 31.1436 324.542C30.12 325.651 30.3855 327.511 31.276 328.731C32.1665 329.952 33.521 330.717 34.7678 331.559C35.7679 332.162 36.6208 332.985 37.2631 333.966C37.3386 334.103 37.4005 334.247 37.4481 334.396H45.0104C46.708 333.526 48.2812 332.428 49.6871 331.13Z" fill="#6C63FF"/>
<path d="M233.053 313.558C233.981 314.842 234.74 316.242 235.311 317.723C235.462 318.106 235.609 318.508 235.749 318.931C237.993 325.706 234.437 333.832 233.421 332.955C232.404 332.079 229.237 330.453 228.625 332.738C228.012 335.023 225.75 337.359 225.75 337.359C221.628 341.548 217.897 337.022 215.448 332.345C214.648 330.802 213.936 329.214 213.317 327.588C212.773 326.152 212.461 325.16 212.461 325.16L229.629 310.379C229.629 310.379 231.289 311.149 233.053 313.558Z" fill="#6C63FF"/>
<path d="M206.135 322.795C207.098 324.079 207.886 325.479 208.479 326.96C208.635 327.343 208.789 327.746 208.934 328.168C211.264 334.944 207.572 343.069 206.516 342.192C205.461 341.316 202.171 339.69 201.535 341.975C200.899 344.26 198.55 346.596 198.55 346.596C194.269 350.785 190.395 346.259 187.852 341.582C187.021 340.04 186.282 338.451 185.639 336.826C185.074 335.389 184.75 334.397 184.75 334.397L202.579 319.617C202.579 319.617 204.302 320.387 206.135 322.795Z" fill="#6C63FF"/>
<path d="M150.551 336.336C150.452 337.942 150.142 339.528 149.631 341.055C149.501 341.451 149.356 341.861 149.192 342.281C146.561 349.025 138.448 353.035 138.212 351.689C137.976 350.343 136.521 347.009 134.547 348.389C132.573 349.77 129.256 350.113 129.256 350.113C123.257 350.687 123.242 344.726 124.344 339.485C124.713 337.761 125.183 336.059 125.75 334.388C126.254 332.914 126.652 331.937 126.652 331.937L149.903 331.625C149.903 331.625 150.719 333.308 150.551 336.336Z" fill="#6C63FF"/>
<path d="M120.989 328.946C120.889 330.552 120.58 332.138 120.068 333.664C119.938 334.061 119.794 334.471 119.63 334.891C116.998 341.634 108.886 345.645 108.649 344.299C108.413 342.952 106.958 339.619 104.984 340.999C103.01 342.38 99.6934 342.723 99.6934 342.723C93.6941 343.297 93.6799 337.336 94.7812 332.095C95.1508 330.37 95.6203 328.669 96.1875 326.998C96.6911 325.524 97.0895 324.547 97.0895 324.547L120.341 324.235C120.341 324.235 121.157 325.918 120.989 328.946Z" fill="#6C63FF"/>
<path opacity="0.2" d="M233.053 313.558C233.981 314.842 234.74 316.242 235.311 317.723C235.462 318.106 235.609 318.508 235.749 318.931C237.993 325.706 234.437 333.832 233.421 332.955C232.404 332.079 229.237 330.453 228.625 332.738C228.012 335.023 225.75 337.359 225.75 337.359C221.628 341.548 217.897 337.022 215.448 332.345C214.648 330.802 213.936 329.214 213.317 327.588C212.773 326.152 212.461 325.16 212.461 325.16L229.629 310.379C229.629 310.379 231.289 311.149 233.053 313.558Z" fill="black"/>
<path opacity="0.2" d="M206.135 322.795C207.098 324.079 207.886 325.479 208.479 326.96C208.635 327.343 208.789 327.746 208.934 328.168C211.264 334.944 207.572 343.069 206.516 342.192C205.461 341.316 202.171 339.69 201.535 341.975C200.899 344.26 198.55 346.596 198.55 346.596C194.269 350.785 190.395 346.259 187.852 341.582C187.021 340.04 186.282 338.451 185.639 336.826C185.074 335.389 184.75 334.397 184.75 334.397L202.579 319.617C202.579 319.617 204.302 320.387 206.135 322.795Z" fill="black"/>
<path opacity="0.2" d="M150.551 336.336C150.452 337.942 150.142 339.528 149.631 341.055C149.501 341.451 149.356 341.861 149.192 342.281C146.561 349.025 138.448 353.035 138.212 351.689C137.976 350.343 136.521 347.009 134.547 348.389C132.573 349.77 129.256 350.113 129.256 350.113C123.257 350.687 123.242 344.726 124.344 339.485C124.713 337.761 125.183 336.059 125.75 334.388C126.254 332.914 126.652 331.937 126.652 331.937L149.903 331.625C149.903 331.625 150.719 333.308 150.551 336.336Z" fill="black"/>
<path opacity="0.2" d="M120.989 328.946C120.889 330.552 120.58 332.138 120.068 333.664C119.938 334.061 119.794 334.471 119.63 334.891C116.998 341.634 108.886 345.645 108.649 344.299C108.413 342.952 106.958 339.619 104.984 340.999C103.01 342.38 99.6934 342.723 99.6934 342.723C93.6941 343.297 93.6799 337.336 94.7812 332.095C95.1508 330.37 95.6203 328.669 96.1875 326.998C96.6911 325.524 97.0895 324.547 97.0895 324.547L120.341 324.235C120.341 324.235 121.157 325.918 120.989 328.946Z" fill="black"/>
<path d="M279.894 227.704C279.894 289.179 259.167 339.015 163.518 339.015C99.2448 339.015 49.52 322.992 47.1415 227.704C45.6074 166.247 99.2448 116.392 163.518 116.392C227.79 116.392 279.894 166.228 279.894 227.704Z" fill="#6C63FF"/>
<path opacity="0.2" d="M228.168 164.096L219.6 167.198C215.232 161.307 210.532 155.673 205.523 150.323C200.056 144.459 194.091 139.086 187.696 134.264C165.757 117.912 148.788 117.495 143.184 117.916L156.064 116.392C168.238 118.499 179.945 122.754 190.644 128.963C198.129 133.302 205.101 138.481 211.425 144.401C222.64 154.869 228.168 164.096 228.168 164.096Z" fill="black"/>
<path opacity="0.2" d="M150.65 169.969C150.65 169.969 139.253 132.501 148.923 122.282C148.923 122.282 164.118 117.173 175.515 146.126L150.65 169.969Z" fill="black"/>
<path d="M207.844 134.896C207.844 134.896 237.437 109.549 250.529 114.187C250.529 114.187 261.145 125.872 239.296 147.799L207.844 134.896Z" fill="#6C63FF"/>
<path opacity="0.2" d="M207.844 134.896C207.844 134.896 237.437 109.549 250.529 114.187C250.529 114.187 261.145 125.872 239.296 147.799L207.844 134.896Z" fill="black"/>
<path d="M301.141 255.809C301.141 288.875 277.285 314.998 254.837 314.998C232.39 314.998 219.852 288.875 219.852 255.809C219.852 222.743 238.087 197.229 260.496 195.937C295.996 193.89 301.141 222.743 301.141 255.809Z" fill="#6C63FF"/>
<path opacity="0.2" d="M301.141 255.809C301.141 288.875 277.285 314.998 254.837 314.998C232.39 314.998 219.852 288.875 219.852 255.809C219.852 222.743 238.087 197.229 260.496 195.937C295.996 193.89 301.141 222.743 301.141 255.809Z" fill="black"/>
<path d="M253.567 270.657C257.903 270.657 261.419 266.315 261.419 260.958C261.419 255.601 257.903 251.259 253.567 251.259C249.23 251.259 245.715 255.601 245.715 260.958C245.715 266.315 249.23 270.657 253.567 270.657Z" fill="#6C63FF"/>
<path d="M279.894 262.344C283.975 262.344 287.284 258.002 287.284 252.645C287.284 247.288 283.975 242.946 279.894 242.946C275.813 242.946 272.504 247.288 272.504 252.645C272.504 258.002 275.813 262.344 279.894 262.344Z" fill="#6C63FF"/>
<path d="M212.465 138.29C212.47 140.476 211.973 142.632 211.016 144.584C209.752 147.178 207.701 149.279 205.172 150.571C199.76 144.642 193.855 139.21 187.523 134.335C188.087 132.344 189.085 130.511 190.442 128.975C191.611 127.636 193.041 126.565 194.639 125.829C196.237 125.094 197.968 124.711 199.719 124.706C206.757 124.706 212.465 130.787 212.465 138.29Z" fill="#FAD46F"/>
<defs>
<linearGradient id="paint0_linear" x1="384.741" y1="358.414" x2="384.741" y2="127.477" gradientUnits="userSpaceOnUse">
<stop stop-color="#808080" stop-opacity="0.25"/>
<stop offset="0.53514" stop-color="#808080" stop-opacity="0.12"/>
<stop offset="1" stop-color="#808080" stop-opacity="0.1"/>
</linearGradient>
</defs>
</svg>
