<svg width="65" height="65" viewBox="0 0 65 65" fill="none" xmlns="http://www.w3.org/2000/svg">
<g clip-path="url(#clip0)">
<path d="M28.7808 21.1369L28.7843 63.2239C28.7844 63.5699 29.0254 63.8599 29.3114 63.8599L63.3434 63.8571C63.6314 63.857 63.8724 63.567 63.8723 63.221L63.8702 37.495L63.8688 21.134C63.8753 20.9762 63.8245 20.8213 63.7258 20.698L63.7098 20.687C63.7098 20.676 63.7038 20.674 63.6928 20.668C63.6512 20.6138 63.5975 20.5699 63.5361 20.5399C63.4747 20.5099 63.4071 20.4945 63.3388 20.4951L29.3068 20.4979C29.0228 20.4979 28.7808 20.7909 28.7808 21.1369" fill="#86A7AC"/>
<path d="M0.00176229 21.1394L0.00527339 63.2264C0.00530225 63.5724 0.246326 63.8624 0.532326 63.8623L34.5633 63.8595C34.8513 63.8595 35.0923 63.5695 35.0923 63.2235L35.0901 37.4974L35.0888 21.1365C35.0952 20.9786 35.0444 20.8238 34.9457 20.7005L34.9307 20.6895C34.9307 20.6785 34.9237 20.6765 34.9127 20.6705C34.8711 20.6162 34.8175 20.5724 34.7561 20.5424C34.6946 20.5123 34.6271 20.497 34.5587 20.4975L0.527709 20.5003C0.242709 20.5004 0.00173343 20.7934 0.00176229 21.1394" fill="#86A7AC"/>
<path d="M2.0306 31.0972L6.3326 31.0968C6.3686 31.0968 6.4026 31.0588 6.40259 31.0198L6.40234 27.9268L6.40219 26.1508C6.40218 26.1088 6.36818 26.0758 6.33218 26.0758L2.02918 26.0762C2.01967 26.0759 2.01023 26.0779 2.00168 26.0821C1.99314 26.0863 1.98576 26.0925 1.98018 26.1002L1.98018 26.1042C1.96919 26.1192 1.96119 26.1322 1.96119 26.1512L1.96159 31.0202C1.9616 31.0592 1.9916 31.0972 2.0306 31.0972" fill="white"/>
<path d="M2.03133 39.2932L6.33333 39.2929C6.36933 39.2928 6.40333 39.2548 6.40333 39.2158L6.40307 36.1238L6.40292 34.3478C6.40292 34.3058 6.36891 34.2729 6.33291 34.2729L2.02991 34.2732C2.02052 34.2729 2.01118 34.2749 2.00267 34.2789C1.99416 34.2829 1.98671 34.2888 1.98092 34.2962L1.98092 34.3002C1.96992 34.3152 1.96192 34.3282 1.96192 34.3472L1.96233 39.2162C1.96233 39.2552 1.99233 39.2932 2.03133 39.2932" fill="white"/>
<path d="M9.21468 31.0966L13.5167 31.0962C13.5507 31.0962 13.5847 31.0582 13.5847 31.0192L13.5844 27.9262L13.5843 26.1502C13.5843 26.1082 13.5503 26.0752 13.5163 26.0752L9.21326 26.0756C9.20377 26.0753 9.19435 26.0774 9.18582 26.0816C9.17729 26.0858 9.1699 26.0919 9.16427 26.0996L9.16427 26.1036C9.15627 26.1186 9.14527 26.1316 9.14527 26.1506L9.14568 31.0196C9.14568 31.0586 9.17568 31.0966 9.21468 31.0966" fill="white"/>
<path d="M9.21517 39.2926L13.5172 39.2922C13.5512 39.2922 13.5852 39.2542 13.5852 39.2152L13.5849 36.1232L13.5848 34.3472C13.5848 34.3052 13.5508 34.2722 13.5168 34.2722L9.21375 34.2726C9.20435 34.2723 9.19502 34.2743 9.18651 34.2783C9.178 34.2823 9.17055 34.2882 9.16475 34.2956L9.16475 34.2996C9.15676 34.3146 9.14576 34.3276 9.14576 34.3466L9.14616 39.2156C9.14617 39.2546 9.17617 39.2926 9.21517 39.2926" fill="white"/>
<path d="M2.03182 46.3573L6.33382 46.3569C6.36982 46.3569 6.40382 46.3189 6.40381 46.2809L6.40356 43.1879L6.40341 41.4119C6.40368 41.3929 6.39652 41.3745 6.38344 41.3607C6.37037 41.3469 6.35241 41.3387 6.3334 41.3379L2.0304 41.3383C2.021 41.338 2.01167 41.3399 2.00316 41.3439C1.99465 41.3479 1.9872 41.3539 1.9814 41.3613L1.9814 41.3653C1.9814 41.3653 1.96241 41.3933 1.96241 41.4123L1.96281 46.2823C1.96282 46.3193 1.99282 46.3573 2.03182 46.3573" fill="white"/>
<path d="M2.03255 54.5542L6.33455 54.5538C6.37055 54.5538 6.40455 54.5148 6.40455 54.4768L6.40429 51.3838L6.40414 49.6088C6.40414 49.5658 6.37013 49.5338 6.33413 49.5338L2.03113 49.5342C2.02174 49.5339 2.01241 49.5359 2.00389 49.5399C1.99538 49.5439 1.98793 49.5498 1.98214 49.5572L1.98214 49.5622C1.98214 49.5622 1.96314 49.5892 1.96314 49.6092L1.96355 54.4782C1.96355 54.5152 1.99355 54.5542 2.03255 54.5542" fill="white"/>
<path d="M9.2159 46.3567L13.5179 46.3563C13.5519 46.3563 13.5859 46.3183 13.5859 46.2803L13.5856 43.1873L13.5855 41.4113C13.5855 41.3693 13.5515 41.3373 13.5175 41.3373L9.21449 41.3377C9.20509 41.3374 9.19576 41.3393 9.18724 41.3433C9.17873 41.3473 9.17128 41.3533 9.16549 41.3607L9.16549 41.3647C9.16549 41.3647 9.14649 41.3927 9.14649 41.4117L9.1469 46.2817C9.1469 46.3187 9.1769 46.3567 9.2159 46.3567" fill="white"/>
<path d="M9.21639 54.5536L13.5184 54.5532C13.5524 54.5532 13.5864 54.5142 13.5864 54.4762L13.5861 51.3832L13.586 49.6082C13.586 49.5652 13.552 49.5332 13.518 49.5332L9.21497 49.5336C9.20557 49.5333 9.19624 49.5353 9.18773 49.5393C9.17922 49.5432 9.17177 49.5492 9.16597 49.5566L9.16598 49.5616C9.16598 49.5616 9.14698 49.5886 9.14698 49.6086L9.14739 54.4776C9.14739 54.5146 9.17739 54.5536 9.21639 54.5536" fill="white"/>
<path d="M50.4827 31.7312L54.7877 31.7309C54.8217 31.7309 54.8557 31.6929 54.8557 31.6539L54.8554 28.5609L54.8553 26.7849C54.8553 26.7429 54.8213 26.7099 54.7873 26.7099L50.4823 26.7102C50.4728 26.71 50.4634 26.712 50.4548 26.7162C50.4463 26.7204 50.4389 26.7266 50.4333 26.7342L50.4333 26.7382C50.4333 26.7382 50.4153 26.7662 50.4153 26.7852L50.4157 31.6542C50.4157 31.6932 50.4437 31.7312 50.4827 31.7312" fill="white"/>
<path d="M50.4832 39.9312L54.7882 39.9308C54.8222 39.9308 54.8562 39.8918 54.8562 39.8538L54.8559 36.7608L54.8558 34.9848C54.8558 34.9428 54.8218 34.9098 54.7878 34.9098L50.4828 34.9102C50.4734 34.9099 50.464 34.9118 50.4555 34.9158C50.447 34.9198 50.4396 34.9258 50.4338 34.9332L50.4338 34.9372C50.4338 34.9372 50.4158 34.9652 50.4158 34.9842L50.4162 39.8532C50.4162 39.8922 50.4442 39.9312 50.4832 39.9312" fill="white"/>
<path d="M57.6587 31.7306L61.9667 31.7302C61.9957 31.7302 62.0347 31.6922 62.0347 31.6532L62.0344 28.5602L62.0342 26.7842C62.0342 26.7422 61.9952 26.7092 61.9662 26.7092L57.6582 26.7096C57.6412 26.7096 57.6222 26.7186 57.6222 26.7186C57.6222 26.7186 57.6112 26.7336 57.6112 26.7376C57.6022 26.7526 57.5942 26.7656 57.5942 26.7846L57.5947 31.6536C57.5947 31.6926 57.6227 31.7306 57.6587 31.7306" fill="white"/>
<path d="M57.6594 39.9307L61.9674 39.9303C61.9964 39.9303 62.0354 39.8913 62.0354 39.8533L62.0351 36.7603L62.035 34.9843C62.035 34.9423 61.996 34.9093 61.967 34.9093L57.659 34.9097C57.642 34.9097 57.623 34.9187 57.623 34.9187C57.623 34.9187 57.612 34.9337 57.612 34.9377C57.603 34.9527 57.595 34.9657 57.595 34.9847L57.5954 39.8537C57.5954 39.8917 57.6234 39.9307 57.6594 39.9307" fill="white"/>
<path d="M50.4839 46.9912L54.7889 46.9909C54.8229 46.9908 54.8569 46.9518 54.8569 46.9138L54.8567 43.8208L54.8565 42.0458C54.8565 42.0028 54.8225 41.9708 54.7885 41.9709L50.4835 41.9712C50.4741 41.9709 50.4648 41.9729 50.4563 41.9769C50.4478 41.9809 50.4403 41.9868 50.4345 41.9942L50.4345 41.9992C50.4255 42.0142 50.4165 42.0262 50.4165 42.0462L50.4169 46.9152C50.4169 46.9522 50.4449 46.9912 50.4839 46.9912Z" fill="white"/>
<path d="M50.4847 55.1872L54.7897 55.1869C54.8237 55.1869 54.8577 55.1489 54.8577 55.1099L54.8574 52.0179L54.8572 50.2419C54.8572 50.1999 54.8232 50.1679 54.7892 50.1679L50.4842 50.1682C50.4748 50.168 50.4655 50.1699 50.457 50.1739C50.4485 50.1779 50.441 50.1838 50.4352 50.1912L50.4352 50.1952C50.4262 50.2102 50.4172 50.2232 50.4172 50.2422L50.4176 55.1112C50.4177 55.1492 50.4457 55.1872 50.4847 55.1872Z" fill="white"/>
<path d="M57.6599 46.9906L61.9679 46.9902C61.9969 46.9902 62.0359 46.9512 62.0359 46.9132L62.0356 43.8202L62.0355 42.0452C62.0355 42.0022 61.9965 41.9702 61.9675 41.9702L57.6595 41.9706C57.6504 41.9708 57.6416 41.973 57.6335 41.977C57.6254 41.9809 57.6182 41.9866 57.6125 41.9936L57.6125 41.9986C57.6035 42.0136 57.5955 42.0256 57.5955 42.0456L57.5959 46.9146C57.5959 46.9516 57.6239 46.9906 57.6599 46.9906Z" fill="white"/>
<path d="M57.6606 55.1866L61.9686 55.1862C61.9976 55.1862 62.0366 55.1482 62.0366 55.1092L62.0363 52.0172L62.0362 50.2412C62.0362 50.1992 61.9972 50.1672 61.9682 50.1672L57.6602 50.1676C57.6512 50.1678 57.6423 50.17 57.6342 50.174C57.6261 50.178 57.6189 50.1836 57.6132 50.1906L57.6132 50.1946C57.6042 50.2096 57.5962 50.2226 57.5962 50.2416L57.5966 55.1106C57.5966 55.1486 57.6246 55.1866 57.6606 55.1866Z" fill="white"/>
<path d="M11.7074 3.48535L11.7123 62.9353C11.7124 63.4283 11.9874 63.8363 12.3164 63.8363L51.4044 63.833C51.7334 63.833 52.0124 63.425 52.0123 62.932L52.0093 26.592L52.0073 3.48199C52.0073 3.21499 51.9413 3.00999 51.8453 2.867L51.8273 2.85C51.8273 2.835 51.8193 2.833 51.8043 2.82401C51.764 2.75136 51.7052 2.69063 51.6339 2.64797C51.5626 2.60531 51.4813 2.58222 51.3983 2.58104L12.3113 2.5843C11.9823 2.58433 11.7073 2.99435 11.7074 3.48535" fill="#A2C3CB"/>
<path d="M23.0612 13.1545L40.5842 13.153C40.7252 13.153 40.8572 13.125 40.8572 13.091L40.857 10.572L40.8569 9.12702C40.8569 9.09102 40.7239 9.06503 40.5839 9.06504L23.0609 9.06651C23.0028 9.0666 22.9448 9.0723 22.8879 9.08352L22.8819 9.08852L22.8729 9.08852C22.8319 9.09753 22.7979 9.10953 22.7979 9.12953L22.7982 13.0935C22.7982 13.1265 22.9202 13.1545 23.0612 13.1545" fill="white"/>
<path d="M23.0619 20.5825L40.5849 20.581C40.7259 20.581 40.8579 20.556 40.8579 20.523L40.8577 17.998L40.8576 16.555C40.8576 16.521 40.7246 16.495 40.5846 16.495L23.0616 16.4965C23.0035 16.4945 22.9454 16.4996 22.8886 16.5115L22.8826 16.5155L22.8736 16.5155C22.8326 16.5245 22.7986 16.5415 22.7986 16.5565L22.7989 20.5245C22.7989 20.5565 22.9209 20.5825 23.0619 20.5825" fill="white"/>
<path d="M29.7835 16.6429L29.7843 26.8279C29.7843 26.9069 29.8093 26.9819 29.8443 26.9819L33.8143 26.9816C33.8443 26.9816 33.8783 26.9066 33.8783 26.8276L33.8778 20.6016L33.8775 16.6426C33.8782 16.6079 33.8703 16.5735 33.8545 16.5426L33.8545 16.5316L33.8264 16.4926L29.8434 16.4929C29.8094 16.4929 29.7835 16.5599 29.7835 16.6429" fill="white"/>
<path d="M26.4393 63.8632L37.5223 63.8622C37.6033 63.8622 37.6873 63.8062 37.6873 63.7362L37.6869 58.6752L37.6866 55.7752C37.6866 55.7072 37.6026 55.6532 37.5216 55.6532L26.4386 55.6542C26.3979 55.6526 26.3579 55.6653 26.3256 55.6902L26.3196 55.6952L26.3146 55.6952C26.2936 55.7182 26.2656 55.7462 26.2656 55.7762L26.2663 63.7362C26.2663 63.8082 26.3473 63.8632 26.4393 63.8632" fill="white"/>
<path d="M27.819 59.9131L29.744 59.9129C29.744 59.9129 29.774 59.8949 29.774 59.8789L29.7739 58.4959L29.7738 57.7019C29.7738 57.6819 29.7568 57.6679 29.7568 57.6679L27.8188 57.6681C27.8188 57.6681 27.8018 57.6721 27.7928 57.6791L27.7928 57.6811C27.7928 57.6871 27.7888 57.6941 27.7888 57.6941L27.789 59.8801C27.789 59.8951 27.802 59.9131 27.819 59.9131" fill="#86A7AC"/>
<path d="M13.8759 34.7942L19.2669 34.7938C19.3099 34.7937 19.3479 34.7447 19.3479 34.6977L19.3475 30.8277L19.3473 28.6057C19.3473 28.5517 19.3093 28.5117 19.2663 28.5118L13.8753 28.5122C13.8644 28.5129 13.8538 28.516 13.8441 28.5212C13.8344 28.5263 13.826 28.5335 13.8193 28.5422L13.8193 28.5462C13.8061 28.5635 13.7988 28.5845 13.7983 28.6062L13.7989 34.6972C13.7989 34.7452 13.8339 34.7942 13.8759 34.7942Z" fill="#86A7AC"/>
<path d="M13.8768 45.0482L19.2678 45.0478C19.3108 45.0478 19.3488 44.9988 19.3488 44.9518L19.3485 41.0828L19.3483 38.8608C19.3483 38.8068 19.3103 38.7658 19.2673 38.7658L13.8763 38.7662C13.8654 38.767 13.8547 38.77 13.8451 38.7752C13.8354 38.7804 13.827 38.7875 13.8203 38.7962L13.8203 38.8032C13.8203 38.8032 13.7993 38.8372 13.7993 38.8612L13.7998 44.9522C13.7998 44.9992 13.8348 45.0482 13.8768 45.0482Z" fill="#86A7AC"/>
<path d="M22.8699 34.7935L28.2569 34.7931C28.2999 34.7931 28.3419 34.7441 28.3419 34.6971L28.3416 30.8271L28.3414 28.6051C28.3414 28.5511 28.2994 28.5111 28.2564 28.5111L22.8704 28.5115C22.8581 28.5111 22.8459 28.5135 22.8347 28.5188C22.8236 28.524 22.8139 28.5318 22.8064 28.5415L22.8064 28.5455C22.7974 28.5655 22.7864 28.5815 22.7864 28.6055L22.7869 34.6965C22.7869 34.7445 22.8229 34.7935 22.8699 34.7935Z" fill="#86A7AC"/>
<path d="M22.8706 45.0476L28.2576 45.0471C28.3006 45.0471 28.3426 44.9981 28.3426 44.9511L28.3423 41.0821L28.3421 38.8601C28.3421 38.8061 28.3001 38.7651 28.2571 38.7651L22.8711 38.7656C22.8588 38.7651 22.8466 38.7676 22.8355 38.7728C22.8243 38.778 22.8146 38.7858 22.8071 38.7956L22.8071 38.8026C22.8071 38.8026 22.7871 38.8366 22.7871 38.8606L22.7876 44.9516C22.7876 44.9986 22.8236 45.0476 22.8706 45.0476Z" fill="#86A7AC"/>
<path d="M44.3829 34.7918L49.7699 34.7913C49.8129 34.7913 49.8559 34.7423 49.8559 34.6953L49.8556 30.8253L49.8554 28.6033C49.8554 28.5493 49.8124 28.5093 49.7694 28.5093L44.3824 28.5098C44.3707 28.5099 44.3593 28.5127 44.3489 28.5179C44.3385 28.5231 44.3295 28.5306 44.3224 28.5398L44.3224 28.5438C44.3114 28.5638 44.2974 28.5798 44.2974 28.6038L44.2979 34.6948C44.2979 34.7428 44.3359 34.7918 44.3829 34.7918Z" fill="#86A7AC"/>
<path d="M44.3836 45.0457L49.7706 45.0452C49.8136 45.0452 49.8566 44.9962 49.8566 44.9492L49.8563 41.0802L49.8561 38.8582C49.8561 38.8042 49.8131 38.7632 49.7701 38.7632L44.3831 38.7637C44.3715 38.7638 44.36 38.7666 44.3497 38.7718C44.3393 38.777 44.3302 38.7845 44.3231 38.7937L44.3231 38.8007C44.3121 38.8177 44.2981 38.8347 44.2981 38.8587L44.2986 44.9497C44.2986 44.9967 44.3366 45.0457 44.3836 45.0457Z" fill="#86A7AC"/>
<path d="M35.4628 34.7925L40.8478 34.792C40.8928 34.792 40.9328 34.743 40.9328 34.696L40.9325 30.826L40.9323 28.604C40.9323 28.55 40.8923 28.51 40.8473 28.51L35.4623 28.5105C35.4363 28.5105 35.4103 28.5215 35.3983 28.5405L35.3983 28.5445C35.3893 28.5645 35.3733 28.5805 35.3733 28.6045L35.3738 34.6955C35.3738 34.7435 35.4108 34.7925 35.4628 34.7925Z" fill="#86A7AC"/>
<path d="M35.4638 45.0465L40.8488 45.0461C40.8938 45.0461 40.9338 44.9971 40.9338 44.9501L40.9335 41.0811L40.9333 38.8591C40.9333 38.8051 40.8933 38.7641 40.8483 38.7641L35.4633 38.7645C35.4373 38.7645 35.4113 38.7755 35.3993 38.7945L35.3993 38.8015C35.3993 38.8015 35.3743 38.8355 35.3743 38.8595L35.3748 44.9505C35.3748 44.9975 35.4118 45.0465 35.4638 45.0465Z" fill="#86A7AC"/>
<path d="M34.1249 59.9126L36.0529 59.9124C36.0529 59.9124 36.0829 59.8944 36.0829 59.8784L36.0828 58.4954L36.0827 57.7014C36.082 57.6885 36.0763 57.6763 36.0667 57.6674L34.1247 57.6676L34.1037 57.6786L34.1037 57.6806L34.0947 57.6936L34.0949 59.8796C34.0949 59.8946 34.1099 59.9126 34.1249 59.9126" fill="#86A7AC"/>
</g>
<defs>
<clipPath id="clip0">
<rect y="0.00537109" width="64" height="64" fill="white"/>
</clipPath>
</defs>
</svg>
