<svg width="21" height="19" viewBox="0 0 21 19" fill="none" xmlns="http://www.w3.org/2000/svg">
<path d="M19.6998 6.66616C19.5829 6.66663 19.4676 6.64041 19.3624 6.58949L10.4998 2.06616L1.63709 6.55882C1.44799 6.64829 1.2311 6.65897 1.03412 6.58852C0.837147 6.51807 0.676226 6.37225 0.58676 6.18316C0.497293 5.99406 0.486611 5.77716 0.557062 5.58019C0.627513 5.38321 0.773327 5.22229 0.962426 5.13282L10.4998 0.410156L20.0371 5.13282C20.2381 5.17979 20.4126 5.30406 20.5227 5.47871C20.6327 5.65337 20.6696 5.86436 20.6252 6.06598C20.5809 6.26761 20.4589 6.44366 20.2857 6.55599C20.1124 6.66832 19.9019 6.7079 19.6998 6.66616ZM6.66643 14.3328H2.06643V18.9328H6.66643V14.3328ZM12.7998 14.3328H8.19976V18.9328H12.7998V14.3328ZM18.9331 14.3328H14.3331V18.9328H18.9331V14.3328ZM15.8664 8.19949H11.2664V12.7995H15.8664V8.19949ZM9.73309 8.19949H5.13309V12.7995H9.73309V8.19949Z" fill="#1976D2"/>
</svg>
