<svg width="156" height="156" viewBox="0 0 156 156" fill="none" xmlns="http://www.w3.org/2000/svg">
<g opacity="0.5">
<path d="M88.7247 133.33C88.7247 130.405 86.531 128.211 83.606 128.211C83.1185 128.211 82.3872 128.211 81.8997 128.455C81.1685 127.236 79.9497 126.261 78.4872 126.261C77.5122 126.261 76.781 126.505 76.0497 126.993V126.261C76.0497 124.068 74.3435 122.361 72.1497 122.361C70.1997 122.361 68.7372 123.824 68.4935 125.53C68.006 125.043 67.5185 125.043 66.7872 125.043C65.3247 125.043 64.106 126.261 64.106 127.724V143.08H84.581C86.7747 143.08 88.481 141.374 88.481 139.18C88.481 138.205 87.9935 137.23 87.506 136.499C88.2372 135.524 88.7247 134.305 88.7247 133.33Z" fill="#83BF4F"/>
<path d="M88.7251 138.939C88.7251 137.964 88.2376 136.989 87.7501 136.257C88.4814 135.282 88.7251 134.307 88.7251 133.089C88.7251 130.164 86.5314 127.97 83.6064 127.97C83.1189 127.97 82.3876 127.97 81.9001 128.214C81.4126 127.482 80.9251 126.751 79.9501 126.264C78.4876 126.751 77.7564 128.214 77.7564 129.676C77.7564 130.164 77.7564 130.407 78.0001 130.651C77.7564 130.407 77.2689 130.407 76.7814 130.407C75.3189 130.407 74.1001 131.626 74.1001 133.089C74.1001 134.064 74.5876 134.795 75.5626 135.282C75.0751 136.014 74.5876 136.989 74.5876 137.964C74.5876 140.401 76.5376 142.351 78.9751 142.351H84.8251C87.0189 142.839 88.7251 141.132 88.7251 138.939Z" fill="#699635"/>
<path d="M73.6125 139.67C73.6125 141.132 72.3938 139.182 70.9313 139.182C69.4688 139.182 68.25 141.132 68.25 139.67C68.25 138.207 69.4688 136.988 70.9313 136.988C72.3938 136.988 73.6125 138.207 73.6125 139.67Z" fill="#699635"/>
<path d="M68.0063 135.282C68.0063 136.013 67.5188 135.282 66.7876 135.282C66.0563 135.282 65.5688 136.013 65.5688 135.282C65.5688 134.551 66.0563 134.063 66.7876 134.063C67.2751 133.82 68.0063 134.551 68.0063 135.282Z" fill="#699635"/>
<path d="M70.1997 131.383C70.1997 132.114 69.7122 131.139 68.981 131.139C68.2497 131.139 67.7622 132.114 67.7622 131.383C67.7622 130.652 68.2497 130.164 68.981 130.164C69.7122 130.164 70.1997 130.652 70.1997 131.383Z" fill="#83BF4F"/>
<path d="M80.9247 137.718C80.9247 138.693 80.1935 137.23 79.2185 137.23C78.2435 137.23 77.5122 138.693 77.5122 137.718C77.5122 136.743 78.2435 136.012 79.2185 136.012C80.1935 136.012 80.9247 136.743 80.9247 137.718Z" fill="#83BF4F"/>
<path d="M85.8 132.845C85.8 134.308 84.5812 132.114 83.1187 132.114C81.6562 132.114 80.4375 134.308 80.4375 132.845C80.4375 131.383 81.6562 130.164 83.1187 130.164C84.5812 130.408 85.8 131.627 85.8 132.845Z" fill="#83BF4F"/>
<path d="M85.8003 138.938C85.8003 139.669 85.3128 138.938 84.5815 138.938C83.8503 138.938 83.3628 139.669 83.3628 138.938C83.3628 138.206 83.8503 137.719 84.5815 137.719C85.3128 137.719 85.8003 138.206 85.8003 138.938Z" fill="#83BF4F"/>
<path d="M74.3436 128.7C74.3436 129.675 73.6124 128.213 72.6374 128.213C71.6624 128.213 70.9312 129.675 70.9312 128.7C70.9312 127.725 71.6624 126.994 72.6374 126.994C73.6124 126.994 74.3436 127.725 74.3436 128.7Z" fill="#83BF4F"/>
<path d="M4.875 142.105H151.125V151.124H4.875V142.105Z" fill="#83BF4F"/>
<path d="M129.918 29.25H135.768V40.4625H129.918V29.25Z" fill="#D0D0D0"/>
<path d="M136.012 29.25H139.912V40.4625H136.012V29.25Z" fill="#94989B"/>
<path d="M127.969 25.3496H137.962V29.2496H127.969V25.3496Z" fill="#D0D0D0"/>
<path d="M137.962 25.3496H141.862V29.2496H137.962V25.3496Z" fill="#94989B"/>
<path d="M84.8247 97.0117H148.687V142.105H84.8247V97.0117Z" fill="#F9F3D9"/>
<path d="M91.6494 46.0684H141.862V87.9934H91.6494V46.0684Z" fill="#F9F3D9"/>
<path d="M151.125 97.0129H82.3872L91.6497 87.9941H141.862L151.125 97.0129Z" fill="#ED4C5C"/>
<path d="M96.2812 112.857H112.369V142.107H96.2812V112.857Z" fill="#89664C"/>
<path d="M93.8438 108.225H114.319V112.856H93.8438V108.225Z" fill="#DBB471"/>
<path d="M108.713 128.943C109.52 128.943 110.175 128.288 110.175 127.48C110.175 126.672 109.52 126.018 108.713 126.018C107.905 126.018 107.25 126.672 107.25 127.48C107.25 128.288 107.905 128.943 108.713 128.943Z" fill="#F9F3D9"/>
<path d="M116.756 23.1562L82.3872 46.0687H151.125L116.756 23.1562Z" fill="#ED4C5C"/>
<path d="M123.094 110.42H141.863V129.189H123.094V110.42Z" fill="#D6EEF0"/>
<path d="M120.656 108.225V131.625H144.056V108.225H120.656ZM141.862 110.418V118.706H133.575V110.418H141.862ZM131.381 110.418V118.706H123.094V110.418H131.381ZM123.094 129.187V120.9H131.381V129.187H123.094ZM133.575 129.187V120.9H141.862V129.187H133.575Z" fill="#89664C"/>
<path d="M107.494 57.2812H126.262V76.05H107.494V57.2812Z" fill="#D6EEF0"/>
<path d="M105.056 55.0879V78.4879H128.456V55.0879H105.056ZM126.262 57.2816V65.5691H117.975V57.2816H126.262ZM115.537 57.2816V65.5691H107.25V57.2816H115.537ZM107.494 76.0504V67.7629H115.781V76.0504H107.494ZM117.975 76.0504V67.7629H126.262V76.0504H117.975Z" fill="#89664C"/>
<path d="M52.4062 29.25H58.2562V40.4625H52.4062V29.25Z" fill="#D0D0D0"/>
<path d="M58.5 29.25H62.4V40.4625H58.5V29.25Z" fill="#94989B"/>
<path d="M50.4565 25.3496H60.4503V29.2496H50.4565V25.3496Z" fill="#D0D0D0"/>
<path d="M60.4497 25.3496H64.3497V29.2496H60.4497V25.3496Z" fill="#94989B"/>
<path d="M7.3125 97.0117H71.175V142.105H7.3125V97.0117Z" fill="#F9F3D9"/>
<path d="M14.1372 46.0684H64.3497V87.9934H14.1372V46.0684Z" fill="#F9F3D9"/>
<path d="M18.769 112.857H34.8565V142.107H18.769V112.857Z" fill="#89664C"/>
<path d="M16.3315 108.225H36.8065V112.856H16.3315V108.225Z" fill="#DBB471"/>
<path d="M31.2003 128.943C32.008 128.943 32.6628 128.288 32.6628 127.48C32.6628 126.672 32.008 126.018 31.2003 126.018C30.3926 126.018 29.7378 126.672 29.7378 127.48C29.7378 128.288 30.3926 128.943 31.2003 128.943Z" fill="#F9F3D9"/>
<path d="M39.2438 23.1562L4.875 46.0687H73.6125L39.2438 23.1562Z" fill="#ED4C5C"/>
<path d="M29.7378 57.2812H48.5065V76.05H29.7378V57.2812Z" fill="#D6EEF0"/>
<path d="M27.5435 55.0879V78.4879H50.9435V55.0879H27.5435ZM48.506 57.2816V65.5691H40.2185V57.2816H48.506ZM38.0247 57.2816V65.5691H29.7372V57.2816H38.0247ZM29.7372 76.0504V67.7629H38.0247V76.0504H29.7372ZM40.4622 76.0504V67.7629H48.7497V76.0504H40.4622Z" fill="#89664C"/>
<path d="M45.5815 110.42H64.3503V129.189H45.5815V110.42Z" fill="#D6EEF0"/>
<path d="M43.144 108.225V131.625H66.544V108.225H43.144ZM64.3503 110.418V118.706H56.0628V110.418H64.3503ZM53.6253 110.418V118.706H45.3378V110.418H53.6253ZM45.5815 129.187V120.9H53.6253V129.187H45.5815ZM56.0628 129.187V120.9H64.3503V129.187H56.0628Z" fill="#89664C"/>
<path d="M73.6125 97.0129H4.875L14.1375 87.9941H64.35L73.6125 97.0129Z" fill="#ED4C5C"/>
</g>
</svg>
