<svg width="366" height="400" viewBox="0 0 366 400" fill="none" xmlns="http://www.w3.org/2000/svg">
<path d="M295.507 28.5111V334.635C295.504 338.282 294.052 341.778 291.472 344.355C288.891 346.933 285.393 348.382 281.745 348.383H157.417C155.61 348.386 153.819 348.032 152.149 347.343C150.478 346.653 148.96 345.641 147.682 344.364C146.403 343.087 145.389 341.57 144.698 339.9C144.007 338.231 143.652 336.442 143.654 334.635V28.5111C143.654 26.7044 144.01 24.9154 144.702 23.2462C145.393 21.5771 146.407 20.0604 147.685 18.7829C148.963 17.5054 150.48 16.4921 152.15 15.8008C153.82 15.1095 155.61 14.7538 157.417 14.7539H176.023V17.1389C176.022 20.143 177.216 23.0242 179.34 25.1489C181.465 27.2736 184.347 28.4677 187.352 28.4686H250.586C253.005 28.4737 255.361 27.6986 257.304 26.2583C257.697 25.9727 258.07 25.6603 258.419 25.3233C259.526 24.2668 260.407 22.9966 261.008 21.5897C261.609 20.1829 261.918 18.6686 261.916 17.1389V14.7539H281.745C283.552 14.7534 285.342 15.1088 287.012 15.8C288.682 16.4911 290.2 17.5045 291.478 18.782C292.756 20.0596 293.77 21.5764 294.461 23.2458C295.152 24.9151 295.508 26.7043 295.507 28.5111Z" fill="#F2F2F2"/>
<path d="M223.096 233.028C237.969 233.028 250.026 220.976 250.026 206.109C250.026 191.242 237.969 179.189 223.096 179.189C208.223 179.189 196.166 191.242 196.166 206.109C196.166 220.976 208.223 233.028 223.096 233.028Z" fill="#6C63FF"/>
<path d="M290.785 366.48H146.888C143.647 366.49 140.471 365.575 137.732 363.844C135.536 362.477 133.721 360.578 132.454 358.324C131.188 356.069 130.511 353.531 130.486 350.945V15.5452C130.486 6.97356 137.844 9.00779e-06 146.888 9.00779e-06H180.706V3.08519C180.706 9.6695 186.376 15.0263 193.346 15.0263H241.02C243.703 15.0412 246.325 14.2252 248.525 12.6904C250.084 11.614 251.364 10.1808 252.258 8.51009C253.151 6.83933 253.632 4.9794 253.661 3.08519V0H290.785C299.828 0 307.186 6.97356 307.186 15.5452V350.945C307.173 353.223 306.647 355.47 305.647 357.517C304.648 359.565 303.2 361.361 301.411 362.773C298.396 365.186 294.646 366.494 290.785 366.48ZM146.888 0.944535C138.365 0.944535 131.431 7.49448 131.431 15.5452V350.945C131.456 353.372 132.093 355.754 133.283 357.869C134.474 359.985 136.179 361.766 138.241 363.048C140.828 364.682 143.827 365.545 146.888 365.535H290.785C294.43 365.55 297.97 364.316 300.817 362.039C302.496 360.715 303.855 359.031 304.794 357.11C305.733 355.19 306.228 353.083 306.241 350.945V15.5452C306.241 7.49448 299.307 0.944544 290.785 0.944544H254.606V3.08519C254.577 5.13201 254.059 7.14226 253.095 8.94819C252.13 10.7541 250.748 12.3033 249.063 13.4665C246.705 15.1115 243.896 15.9864 241.02 15.9709H193.346C185.855 15.9709 179.761 10.1904 179.761 3.08519V0.944535H146.888Z" fill="#3F3D56"/>
<path d="M264.179 251.146H181.084V161.717H264.179V251.146ZM182.149 250.082H263.113V162.782H182.149V250.082Z" fill="#3F3D56"/>
<path d="M246.061 84.7246H191.508V85.7895H246.061V84.7246Z" fill="#3F3D56"/>
<path d="M246.061 99.2188H191.508V100.284H246.061V99.2188Z" fill="#3F3D56"/>
<path d="M246.061 113.715H191.508V114.78H246.061V113.715Z" fill="#3F3D56"/>
<path d="M33.8108 365.661L33.3037 365.471C33.1923 365.429 22.1024 361.182 16.9074 351.552C11.7122 341.921 14.2561 330.325 14.2824 330.21L14.4021 329.682L14.9089 329.872C15.0204 329.914 26.11 334.161 31.3052 343.791C36.5004 353.422 33.9566 365.017 33.9303 365.133L33.8108 365.661ZM17.7393 351.103C22.1315 359.246 30.8951 363.42 33.1155 364.373C33.5376 361.994 34.8616 352.374 30.4733 344.239C26.0856 336.106 17.3185 331.925 15.0972 330.97C14.6748 333.35 13.3513 342.969 17.7393 351.103Z" fill="#3F3D56"/>
<path d="M20.8772 348.173C30.2133 353.787 33.8089 364.939 33.8089 364.939C33.8089 364.939 22.2677 366.988 12.9317 361.374C3.59562 355.759 0 344.607 0 344.607C0 344.607 11.5411 342.558 20.8772 348.173Z" fill="#6C63FF"/>
<path d="M334.383 364.704L335.248 378.974L340.007 384.163L349.957 376.812L343.468 362.109L334.383 364.704Z" fill="#A0616A"/>
<path d="M346.064 378.108C346.064 378.108 346.256 375.225 346.593 369.748C346.593 369.748 361.205 366.865 360.34 376.81C359.475 386.756 352.12 390.216 352.12 390.216C352.12 390.216 348.66 389.783 349.092 393.243C349.525 396.702 336.547 404.054 330.49 397.135L334.214 375.297C334.214 375.297 338.277 378.108 339.575 376.81C340.873 375.513 346.064 378.108 346.064 378.108Z" fill="#2F2E41"/>
<path d="M321.613 95.084L333.726 120.597L311.948 126.538L307.77 103.3L321.613 95.084Z" fill="#A0616A"/>
<path d="M309.069 109.355C318.387 109.355 325.94 101.804 325.94 92.4898C325.94 83.1756 318.387 75.625 309.069 75.625C299.751 75.625 292.197 83.1756 292.197 92.4898C292.197 101.804 299.751 109.355 309.069 109.355Z" fill="#A0616A"/>
<path d="M320.113 99.7254C318.581 99.634 317.085 100.152 315.564 100.353C310.121 101.076 304.458 97.1277 303.257 91.7722C303.16 91.059 302.948 90.3665 302.627 89.722C301.789 88.3549 299.882 88.0942 298.309 88.4086C296.736 88.723 295.245 89.4588 293.644 89.5428C291.171 89.6725 288.797 88.1506 287.479 86.0549C286.161 83.9592 285.787 81.3805 285.965 78.9115L287.151 80.1552C287.633 79.1365 287.819 78.003 287.688 76.8839C288.316 76.7166 288.977 76.7134 289.606 76.8745C290.236 77.0356 290.814 77.3556 291.285 77.8039C292.33 77.9151 291.541 75.8657 292.318 75.1575C292.643 74.8609 293.142 74.9169 293.582 74.9211C295.806 74.9426 297.605 73.2423 299.357 71.8735C302.394 69.5072 305.944 67.8883 309.723 67.1474C312.234 66.6578 314.904 66.5792 317.286 67.5139C319.241 68.2815 320.878 69.6797 322.393 71.1354C326.122 74.7192 329.423 78.93 330.974 83.8625C332.235 87.9026 332.271 92.2256 331.077 96.286C330.452 98.3947 328.568 105.616 325.811 105.785C322.346 105.996 324.426 99.9826 320.113 99.7254Z" fill="#2F2E41"/>
<path d="M298.902 364.704L298.037 378.974L293.278 384.163L283.328 376.812L289.817 362.109L298.902 364.704Z" fill="#A0616A"/>
<path d="M304.31 118.003C304.31 118.003 306.473 102.003 327.238 107.192C348.003 112.381 350.166 117.138 350.166 117.138C350.166 117.138 350.598 121.462 351.896 121.894C353.194 122.327 356.655 124.489 354.924 125.786C353.194 127.084 362.711 140.056 362.711 140.056C362.711 140.056 368.335 143.516 364.874 159.948C361.413 176.381 357.52 200.164 357.52 200.164C357.52 200.164 358.818 207.948 357.087 212.272C355.357 216.597 358.818 219.624 358.818 221.353C358.818 223.083 357.953 231.732 357.953 231.732C357.953 231.732 299.118 229.569 290.899 231.732C282.679 233.894 304.31 118.003 304.31 118.003Z" fill="#575A89"/>
<path d="M356.005 228.056C356.005 228.056 359.466 236.272 356.005 249.677C352.544 263.082 351.679 296.812 351.679 296.812C351.679 296.812 351.679 362.109 348.651 365.568C345.622 369.028 346.488 374.649 346.488 374.649H333.509C333.509 374.649 333.942 367.73 332.212 363.838C330.481 359.947 330.914 318.001 330.914 318.001L323.559 259.19L308.851 314.974C308.851 314.974 303.227 356.487 301.064 358.217C298.901 359.947 301.064 366.865 301.064 366.865C296.618 367.531 292.075 366.775 288.086 364.703V357.784C288.086 357.784 281.597 355.19 283.76 345.676C285.923 336.163 285.058 232.812 291.547 228.056C298.036 223.299 356.005 228.056 356.005 228.056Z" fill="#2F2E41"/>
<path d="M287.221 378.108C287.221 378.108 287.029 375.225 286.692 369.748C286.692 369.748 272.08 366.865 272.945 376.81C273.81 386.756 281.165 390.216 281.165 390.216C281.165 390.216 284.626 389.783 284.193 393.243C283.76 396.702 296.738 404.054 302.795 397.135L299.071 375.297C299.071 375.297 295.008 378.108 293.71 376.81C292.412 375.513 287.221 378.108 287.221 378.108Z" fill="#2F2E41"/>
<path d="M281.382 229.568L280.084 235.622C280.084 235.622 264.51 260.271 277.489 262.865C290.467 265.46 289.601 239.082 289.601 239.082L290.899 233.46L281.382 229.568Z" fill="#A0616A"/>
<path d="M296.739 121.678C296.739 121.678 305.824 115.624 310.15 122.975C314.476 130.326 318.802 147.191 318.802 147.191L313.178 188.272L292.413 235.839L279.867 231.083C279.867 231.083 282.03 225.029 281.165 222.434C280.3 219.839 284.626 213.353 284.626 213.353L288.952 179.623C288.952 179.623 290.682 122.11 296.739 121.678Z" fill="#575A89"/>
<path opacity="0.1" d="M312.962 187.191L298.686 238.651L292.197 236.056L312.962 187.191Z" fill="black"/>
<path opacity="0.1" d="M346.501 133.439C350.021 133.454 353.528 133.032 356.943 132.181L356.731 131.343C348.651 133.387 339.515 132.884 329.577 129.847C320.734 127.144 312.381 122.816 304.302 118.631L303.904 119.399C312.017 123.602 320.406 127.948 329.324 130.674C334.881 132.44 340.67 133.372 346.501 133.439Z" fill="black"/>
<path d="M208.45 236.807H126.242V325.121H208.45V236.807Z" fill="#6C63FF"/>
<path d="M111.273 94.918C105.734 81.8542 91.634 79.387 91.634 79.387C91.634 79.387 78.0581 75.7667 66.7204 93.0082C56.1527 109.079 42.5251 124.135 59.8076 130.55L64.3728 120.966L64.9205 131.995C67.4336 132.519 69.9735 132.904 72.5288 133.15C91.6985 135.096 109.769 138.333 110.104 131.408C110.548 122.202 116.602 107.488 111.273 94.918Z" fill="#2F2E41"/>
<path d="M52.7871 199.535L51.5536 230.977C51.5536 230.977 38.6017 256.254 49.0866 255.637C59.5714 255.021 58.3379 230.977 58.3379 230.977L62.0384 201.385L52.7871 199.535Z" fill="#FFB8B8"/>
<path d="M123.714 193.986L127.415 225.428C127.415 225.428 138.517 242.074 129.882 247.622C121.247 253.171 121.247 227.894 121.247 227.894L111.996 195.836L123.714 193.986Z" fill="#FFB8B8"/>
<path d="M110.762 252.556L99.6609 295.711C99.6609 295.711 94.7268 312.973 87.9425 321.604L85.4755 326.536L75.6074 325.303L82.3917 297.561L86.709 246.391L110.762 252.556Z" fill="#FFB8B8"/>
<path opacity="0.1" d="M110.762 252.556L99.6609 295.711C99.6609 295.711 94.7268 312.973 87.9425 321.604L85.4755 326.536L75.6074 325.303L82.3917 297.561L86.709 246.391L110.762 252.556Z" fill="black"/>
<path d="M73.1671 318.42L90.034 322.324L83.0825 338.704C83.0825 338.704 85.9078 348.511 83.2165 353.704C80.5251 358.897 80.9135 368.32 80.9135 368.32L77.258 367.744C77.258 367.744 68.3828 384.446 57.8962 379.675C47.4095 374.903 58.5633 363.553 58.5633 363.553C58.5633 363.553 67.6305 345.633 68.7819 338.325C69.9334 331.017 73.1671 318.42 73.1671 318.42Z" fill="#2F2E41"/>
<path opacity="0.1" d="M73.1671 318.42L90.034 322.324L83.0825 338.704C83.0825 338.704 85.9078 348.511 83.2165 353.704C80.5251 358.897 80.9135 368.32 80.9135 368.32L77.258 367.744C77.258 367.744 68.3828 384.446 57.8962 379.675C47.4095 374.903 58.5633 363.553 58.5633 363.553C58.5633 363.553 67.6305 345.633 68.7819 338.325C69.9334 331.017 73.1671 318.42 73.1671 318.42Z" fill="black"/>
<path d="M58.9551 243.307L68.2064 289.545C68.2064 289.545 65.1226 312.355 68.8232 326.535L72.5237 340.098H84.8588V290.161C84.8588 290.161 85.4756 249.472 83.6253 246.389C81.775 243.307 58.9551 243.307 58.9551 243.307Z" fill="#FFB8B8"/>
<path d="M87.3258 335.166L70.0566 336.399L74.3739 353.661C74.3739 353.661 70.0566 362.909 71.9069 368.457C73.7572 374.006 71.9069 383.253 71.9069 383.253H75.6074C75.6074 383.253 81.775 401.132 92.8766 398.05C103.978 394.967 94.7268 382.02 94.7268 382.02C94.7268 382.02 88.5593 362.909 88.5593 355.511C88.5593 348.113 87.3258 335.166 87.3258 335.166Z" fill="#2F2E41"/>
<path d="M91.6426 121.856C100.839 121.856 108.295 114.403 108.295 105.21C108.295 96.017 100.839 88.5645 91.6426 88.5645C82.4458 88.5645 74.9902 96.017 74.9902 105.21C74.9902 114.403 82.4458 121.856 91.6426 121.856Z" fill="#FFB8B8"/>
<path d="M80.2342 111.684C80.2342 111.684 81.4678 132.645 77.7672 133.878C74.0667 135.111 96.8867 133.878 96.8867 133.878C96.8867 133.878 93.8029 120.931 96.8867 117.232C99.9704 113.533 80.2342 111.684 80.2342 111.684Z" fill="#FFB8B8"/>
<path d="M97.1932 130.487C97.1932 130.487 81.1576 129.254 78.0738 130.487C74.99 131.72 66.3555 137.886 66.3555 137.886L70.6727 176.725L105.828 184.123L111.379 176.109L116.929 164.395L114.462 149.599L113.846 140.968L97.1932 130.487Z" fill="#D0CDE1"/>
<path d="M63.273 140.352C63.273 140.352 55.2552 142.201 54.6385 148.366C54.0217 154.531 54.0217 169.944 54.6385 172.41C55.2552 174.876 54.6385 176.109 54.0217 176.725C53.405 177.342 52.1714 176.109 53.4049 177.958C54.6385 179.808 54.6385 179.808 54.0217 181.657C53.405 183.507 51.5547 181.041 52.7882 184.123C54.0217 187.206 54.6385 187.822 54.0217 188.439C53.405 189.055 51.5547 203.235 51.5547 203.235L62.0395 205.085L72.5244 168.711L63.273 140.352Z" fill="#D0CDE1"/>
<path d="M111.38 140.352C112.551 140.417 113.684 140.794 114.66 141.445C115.636 142.095 116.42 142.995 116.931 144.051C118.781 147.75 123.715 171.793 123.098 173.643C122.481 175.492 121.248 173.026 122.481 176.725C123.715 180.424 122.481 179.808 123.098 182.274C123.715 184.74 120.631 182.274 123.098 184.74C125.565 187.206 126.799 187.822 125.565 189.055C124.332 190.288 122.481 187.822 124.332 190.288C126.182 192.755 126.182 196.454 126.182 196.454L111.38 199.536L107.062 165.012L111.38 140.352Z" fill="#D0CDE1"/>
<path d="M61.3402 139.37L64.37 137.856C64.6764 137.703 65.0101 137.612 65.3518 137.588C65.6935 137.565 66.0365 137.609 66.3609 137.719C66.6854 137.828 66.9849 138.001 67.2422 138.227C67.4995 138.453 67.7094 138.728 67.8599 139.036L81.7735 167.477L97.1924 177.341L108.294 172.409C108.294 172.409 116.312 160.079 113.845 153.913C112.172 149.734 110.213 143.302 109.124 139.594C109.06 139.376 109.065 139.143 109.138 138.928C109.212 138.712 109.349 138.525 109.533 138.39C109.716 138.256 109.937 138.181 110.164 138.176C110.392 138.172 110.615 138.237 110.804 138.363L112.906 139.764C113.579 140.213 114.048 140.908 114.212 141.7L118.779 163.778L112.611 176.724V189.054L116.929 255.637C116.929 255.637 100.893 253.171 84.8573 250.088C68.8216 247.006 48.4688 244.54 48.4688 244.54C48.4688 244.54 58.9536 190.287 67.5882 181.04C67.5882 181.04 67.5881 174.258 68.8217 173.642C70.0552 173.025 71.2887 168.71 71.2887 168.71L60.117 142.712C59.8558 142.104 59.8369 141.419 60.0643 140.798C60.2917 140.177 60.7482 139.666 61.3402 139.37Z" fill="#2F2E41"/>
<path d="M108.14 90.172L94.0097 82.7734L74.4961 85.8002L70.459 103.624L80.5087 103.238L83.3165 96.6893V103.13L87.9537 102.952L90.6453 92.5262L92.3272 103.624L108.813 103.288L108.14 90.172Z" fill="#2F2E41"/>
<path d="M74.6823 108.446C75.7042 108.446 76.5326 106.997 76.5326 105.209C76.5326 103.422 75.7042 101.973 74.6823 101.973C73.6604 101.973 72.832 103.422 72.832 105.209C72.832 106.997 73.6604 108.446 74.6823 108.446Z" fill="#FFB8B8"/>
<path d="M236.325 206.322H222.882V192.885H222.365V206.322H208.922V206.839H222.365V220.276H222.882V206.839H236.325V206.322Z" fill="#2F2E41"/>
<path d="M194.563 263.242H140.01V264.307H194.563V263.242Z" fill="#F2F2F2"/>
<path d="M194.563 277.736H140.01V278.801H194.563V277.736Z" fill="#F2F2F2"/>
<path d="M194.563 292.232H140.01V293.297H194.563V292.232Z" fill="#F2F2F2"/>
</svg>
