<svg width="154" height="115" viewBox="0 0 154 115" fill="none" xmlns="http://www.w3.org/2000/svg">
<path d="M77.0007 67.3327C86.2073 67.3327 94.5407 63.5993 100.574 57.566C106.601 51.5393 110.334 43.206 110.334 33.9993C110.334 24.7927 106.601 16.4593 100.574 10.4327C94.5407 4.39935 86.2073 0.666016 77.0007 0.666016C67.794 0.666016 59.4607 4.39935 53.4273 10.4327C47.4007 16.4593 43.6673 24.7927 43.6673 33.9993C43.6673 43.206 47.4007 51.5393 53.4273 57.566C56.5194 60.6667 60.1938 63.1258 64.2393 64.8019C68.2848 66.478 72.6217 67.3381 77.0007 67.3327ZM130.334 73.9993C132.524 74.0037 134.693 73.5756 136.717 72.7396C138.741 71.9036 140.58 70.6761 142.129 69.1276C143.677 67.5791 144.905 65.74 145.741 63.7159C146.577 61.6919 147.005 59.5226 147.001 57.3327C147.001 52.7327 145.141 48.566 142.121 45.546C140.574 43.9961 138.737 42.7671 136.714 41.9296C134.692 41.0921 132.523 40.6627 130.334 40.666C128.144 40.6616 125.975 41.0897 123.951 41.9257C121.927 42.7618 120.088 43.9893 118.539 45.5378C116.991 47.0863 115.763 48.9254 114.927 50.9494C114.091 52.9735 113.663 55.1427 113.667 57.3327C113.664 59.5224 114.093 61.6912 114.929 63.7149C115.765 65.7386 116.993 67.5773 118.541 69.1256C120.089 70.674 121.928 71.9015 123.952 72.7378C125.975 73.5742 128.144 74.0029 130.334 73.9993ZM130.334 77.9327C121.461 77.9327 114.787 80.6394 110.887 84.386C103.454 78.2727 91.7007 73.9993 77.0007 73.9993C61.894 73.9993 50.3673 78.3193 43.054 84.426C39.0807 80.6593 32.334 77.9327 23.6673 77.9327C9.08065 77.9327 0.333984 85.1993 0.333984 92.4793C0.333984 96.1127 9.08065 99.7593 23.6673 99.7593C27.694 99.7593 31.3073 99.4193 34.4873 98.8727L34.2207 100.673C34.2207 107.339 50.2607 114.006 77.0007 114.006C102.081 114.006 119.781 107.339 119.781 100.673L119.647 98.9727C122.734 99.4594 126.281 99.7593 130.334 99.7593C144.007 99.7593 153.667 96.1127 153.667 92.4793C153.667 85.1993 144.514 77.9327 130.334 77.9327ZM23.6673 73.9993C28.2673 73.9993 32.434 72.1393 35.454 69.1193C37.0039 67.5731 38.2329 65.7358 39.0704 63.7131C39.9079 61.6903 40.3373 59.522 40.334 57.3327C40.3384 55.1427 39.9103 52.9735 39.0743 50.9494C38.2382 48.9254 37.0107 47.0863 35.4622 45.5378C33.9137 43.9893 32.0746 42.7618 30.0506 41.9257C28.0265 41.0897 25.8573 40.6616 23.6673 40.666C21.4776 40.6625 19.3088 41.0912 17.2851 41.9275C15.2614 42.7639 13.4227 43.9914 11.8744 45.5397C10.326 47.0881 9.09851 48.9268 8.26217 50.9505C7.42584 52.9741 6.99714 55.143 7.00065 57.3327C6.99626 59.5226 7.42436 61.6919 8.26038 63.7159C9.0964 65.74 10.3239 67.5791 11.8724 69.1276C13.4209 70.6761 15.26 71.9036 17.2841 72.7396C19.3081 73.5756 21.4774 74.0037 23.6673 73.9993Z" fill="#4BF3C1"/>
</svg>
