<svg width="356" height="345" viewBox="0 0 356 345" fill="none" xmlns="http://www.w3.org/2000/svg">
<g clip-path="url(#clip0)">
<g opacity="0.5">
<path opacity="0.5" d="M53.1755 108.539C82.3342 108.539 105.972 84.875 105.972 55.6837C105.972 26.4924 82.3342 2.82812 53.1755 2.82812C24.0167 2.82812 0.378906 26.4924 0.378906 55.6837C0.378906 84.875 24.0167 108.539 53.1755 108.539Z" fill="url(#paint0_linear)"/>
</g>
<path d="M53.1746 107.135C81.7169 107.135 104.855 83.9706 104.855 55.3964C104.855 26.8222 81.7169 3.6582 53.1746 3.6582C24.6323 3.6582 1.49414 26.8222 1.49414 55.3964C1.49414 83.9706 24.6323 107.135 53.1746 107.135Z" fill="white"/>
<path d="M53.3207 107.281C63.4198 107.297 73.3003 104.338 81.7304 98.7703C79.826 88.3533 72.5779 87.7559 72.5779 87.7559H32.6194C32.6194 87.7559 25.7857 88.3168 23.6445 97.9037C32.3324 104.022 42.6989 107.297 53.3207 107.281Z" fill="#6C63FF"/>
<path d="M52.7781 77.1913C65.4314 77.1913 75.6889 66.9223 75.6889 54.2548C75.6889 41.5874 65.4314 31.3184 52.7781 31.3184C40.1247 31.3184 29.8672 41.5874 29.8672 54.2548C29.8672 66.9223 40.1247 77.1913 52.7781 77.1913Z" fill="#333333"/>
<path opacity="0.1" d="M44.7285 75.0566H60.7146V87.8589C60.7146 89.9806 59.8728 92.0153 58.3742 93.5156C56.8756 95.0158 54.8431 95.8586 52.7239 95.8586C50.6046 95.8586 48.5721 95.0158 47.0735 93.5156C45.575 92.0153 44.7331 89.9806 44.7331 87.8589V75.0566H44.7285Z" fill="black"/>
<path d="M46.254 74.4648H59.1878C59.5926 74.4648 59.9808 74.6258 60.267 74.9123C60.5532 75.1989 60.714 75.5875 60.714 75.9927V87.2671C60.714 89.3888 59.8721 91.4235 58.3735 92.9238C56.875 94.424 54.8425 95.2668 52.7232 95.2668C50.6039 95.2668 48.5714 94.424 47.0729 92.9238C45.5743 91.4235 44.7324 89.3888 44.7324 87.2671V75.9927C44.7324 75.5883 44.8926 75.2004 45.1778 74.914C45.463 74.6276 45.8501 74.4661 46.254 74.4648Z" fill="#BE7C5E"/>
<path opacity="0.1" d="M44.7598 81.1018C49.9117 83.0295 55.583 83.0456 60.7459 81.1474V79.1816H44.7598V81.1018Z" fill="black"/>
<path d="M52.7781 82.1737C65.4314 82.1737 75.6889 71.9047 75.6889 59.2372C75.6889 46.5698 65.4314 36.3008 52.7781 36.3008C40.1247 36.3008 29.8672 46.5698 29.8672 59.2372C29.8672 71.9047 40.1247 82.1737 52.7781 82.1737Z" fill="#BE7C5E"/>
<path d="M38.8971 49.777C39.1659 48.7873 39.503 47.6973 40.3914 47.1819C41.093 46.7715 41.9631 46.8353 42.7741 46.8764C49.1066 47.223 55.3844 45.7772 61.5438 44.2675C65.0653 43.4056 68.833 42.3566 71.1108 39.5152C73.3887 36.6738 70.4184 27.7436 66.9514 26.6901C64.6736 25.9923 62.0312 27.2921 59.8718 26.2705C58.9105 25.8144 58.2044 24.9615 57.3752 24.2956C55.676 22.9274 53.4937 22.3755 51.3799 21.8556C48.9107 21.2444 46.241 20.647 43.8948 21.6276C42.0725 22.3847 40.7422 23.9855 39.0156 24.9342C35.7309 26.7585 31.7264 25.9102 27.9633 25.9011C26.6923 25.9011 25.1752 26.1565 24.6695 27.324C24.3278 28.1176 24.6012 29.0207 24.6376 29.8827C24.747 32.6192 22.4919 34.7491 20.6012 36.7239C18.7106 38.6988 16.9247 41.5174 18.1183 43.9711C18.5739 44.9061 19.4076 45.613 19.8814 46.5389C20.6969 48.1443 20.2869 50.0826 20.583 51.8568C20.8795 53.203 21.382 54.4953 22.0727 55.6879C23.4759 58.4244 30.5237 73.1559 33.7628 69.4114C35.33 67.5871 35.5851 62.3148 36.2183 59.9432C37.093 56.5347 37.986 53.146 38.8971 49.777Z" fill="#333333"/>
<path d="M36.4778 62.4021C37.6553 62.4021 38.6099 60.6113 38.6099 58.4022C38.6099 56.1931 37.6553 54.4023 36.4778 54.4023C35.3003 54.4023 34.3457 56.1931 34.3457 58.4022C34.3457 60.6113 35.3003 62.4021 36.4778 62.4021Z" fill="#BE7C5E"/>
<g opacity="0.5">
<path opacity="0.5" d="M175.433 223.576C204.592 223.576 228.23 199.912 228.23 170.721C228.23 141.529 204.592 117.865 175.433 117.865C146.275 117.865 122.637 141.529 122.637 170.721C122.637 199.912 146.275 223.576 175.433 223.576Z" fill="url(#paint1_linear)"/>
</g>
<path d="M175.534 222.121C204.076 222.121 227.214 198.957 227.214 170.383C227.214 141.808 204.076 118.645 175.534 118.645C146.992 118.645 123.854 141.808 123.854 170.383C123.854 198.957 146.992 222.121 175.534 222.121Z" fill="#FFFCFC"/>
<path d="M175.579 222.328C185.672 222.341 195.546 219.381 203.971 213.817C202.066 203.4 194.818 202.803 194.818 202.803H154.873C154.873 202.803 148.04 203.364 145.898 212.951C154.588 219.069 164.956 222.345 175.579 222.328Z" fill="#6C63FF"/>
<path d="M175.031 194.269C188.809 194.269 199.979 183.087 199.979 169.293C199.979 155.5 188.809 144.318 175.031 144.318C161.253 144.318 150.084 155.5 150.084 169.293C150.084 183.087 161.253 194.269 175.031 194.269Z" fill="#F55F44"/>
<path opacity="0.1" d="M166.982 190.096H182.969V202.898C182.969 205.02 182.127 207.054 180.628 208.555C179.13 210.055 177.097 210.898 174.978 210.898C172.858 210.898 170.826 210.055 169.327 208.555C167.829 207.054 166.987 205.02 166.987 202.898V190.096H166.982Z" fill="black"/>
<path d="M168.508 189.502H181.442C181.642 189.502 181.841 189.541 182.026 189.618C182.211 189.695 182.379 189.808 182.521 189.949C182.663 190.091 182.775 190.26 182.852 190.445C182.928 190.631 182.968 190.829 182.968 191.03V202.304C182.968 203.355 182.761 204.395 182.36 205.366C181.958 206.336 181.369 207.218 180.627 207.961C179.885 208.704 179.005 209.293 178.035 209.695C177.066 210.097 176.026 210.304 174.977 210.304C173.928 210.304 172.889 210.097 171.919 209.695C170.95 209.293 170.069 208.704 169.327 207.961C168.585 207.218 167.996 206.336 167.595 205.366C167.193 204.395 166.986 203.355 166.986 202.304V191.03C166.986 190.625 167.147 190.236 167.433 189.949C167.72 189.663 168.108 189.502 168.513 189.502H168.508Z" fill="#FDA57D"/>
<path opacity="0.1" d="M167.014 196.139C172.166 198.067 177.837 198.083 183 196.184V194.219H167.014V196.139Z" fill="black"/>
<path d="M175.032 197.211C187.685 197.211 197.943 186.942 197.943 174.274C197.943 161.607 187.685 151.338 175.032 151.338C162.379 151.338 152.121 161.607 152.121 174.274C152.121 186.942 162.379 197.211 175.032 197.211Z" fill="#FDA57D"/>
<path d="M175 153.12C180.093 153.12 184.221 148.988 184.221 143.889C184.221 138.791 180.093 134.658 175 134.658C169.908 134.658 165.779 138.791 165.779 143.889C165.779 148.988 169.908 153.12 175 153.12Z" fill="#F55F44"/>
<path d="M175 140.861C178.344 140.861 181.055 138.147 181.055 134.8C181.055 131.452 178.344 128.738 175 128.738C171.656 128.738 168.945 131.452 168.945 134.8C168.945 138.147 171.656 140.861 175 140.861Z" fill="#F55F44"/>
<path d="M171 148.952C168.837 147.98 167.13 146.212 166.235 144.014C165.34 141.816 165.325 139.357 166.194 137.148C166.13 137.276 166.066 137.408 166.007 137.541C165.511 138.647 165.238 139.84 165.203 141.052C165.168 142.264 165.372 143.471 165.803 144.604C166.233 145.737 166.883 146.774 167.714 147.656C168.545 148.538 169.542 149.247 170.647 149.743C171.752 150.239 172.944 150.513 174.154 150.548C175.365 150.583 176.571 150.379 177.702 149.948C178.834 149.516 179.87 148.866 180.751 148.034C181.632 147.202 182.34 146.204 182.836 145.098C182.895 144.966 182.95 144.833 183.004 144.697C181.934 146.815 180.089 148.44 177.854 149.232C175.618 150.025 173.164 149.924 171 148.952Z" fill="#F55F44"/>
<path opacity="0.1" d="M158.717 153.413C158.717 153.413 168.37 173.024 195.618 161.622L189.277 151.666L178.038 147.625L158.717 153.413Z" fill="black"/>
<path d="M158.717 153.122C158.717 153.122 168.37 172.733 195.618 161.331L189.277 151.375L178.038 147.334L158.717 153.122Z" fill="#F55F44"/>
<path d="M166.156 145.978C172.097 145.51 178.065 145.51 184.006 145.978C184.006 145.978 170.821 147.205 166.156 145.978Z" fill="#333333"/>
<path d="M176.384 128.369C175.926 128.352 175.468 128.388 175.018 128.474H175.368C176.859 128.522 178.28 129.12 179.358 130.152C180.436 131.185 181.095 132.58 181.208 134.069C181.321 135.558 180.88 137.037 179.97 138.221C179.061 139.405 177.746 140.21 176.28 140.483C177.884 140.497 179.429 139.873 180.574 138.748C181.718 137.622 182.37 136.087 182.384 134.481C182.399 132.874 181.775 131.328 180.651 130.182C179.527 129.036 177.993 128.384 176.389 128.369H176.384Z" fill="#F55F44"/>
<path d="M152.116 178.252C153.294 178.252 154.249 176.461 154.249 174.252C154.249 172.043 153.294 170.252 152.116 170.252C150.939 170.252 149.984 172.043 149.984 174.252C149.984 176.461 150.939 178.252 152.116 178.252Z" fill="#FDA57D"/>
<path d="M197.943 178.252C199.12 178.252 200.075 176.461 200.075 174.252C200.075 172.043 199.12 170.252 197.943 170.252C196.765 170.252 195.811 172.043 195.811 174.252C195.811 176.461 196.765 178.252 197.943 178.252Z" fill="#FDA57D"/>
<path d="M157.273 153.7L161.743 151.393L162.749 155.091L160.011 156.957L157.273 153.7Z" fill="#F55F44"/>
<g opacity="0.5">
<path opacity="0.5" d="M175.383 105.944C204.541 105.944 228.179 82.2793 228.179 53.088C228.179 23.8967 204.541 0.232422 175.383 0.232422C146.224 0.232422 122.586 23.8967 122.586 53.088C122.586 82.2793 146.224 105.944 175.383 105.944Z" fill="url(#paint2_linear)"/>
</g>
<path d="M175.384 104.539C203.926 104.539 227.064 81.3748 227.064 52.8006C227.064 24.2265 203.926 1.0625 175.384 1.0625C146.841 1.0625 123.703 24.2265 123.703 52.8006C123.703 81.3748 146.841 104.539 175.384 104.539Z" fill="#FFFCFC"/>
<path d="M155.223 53.2617C155.223 53.2617 149.364 82.1592 146.166 80.5583C146.166 80.5583 177.008 107.23 204.243 80.5583C204.243 80.5583 199.446 60.1942 192.521 53.2617H155.223Z" fill="#333333"/>
<path d="M175.528 104.695C185.627 104.712 195.508 101.752 203.938 96.1844C202.034 85.7674 194.786 85.1699 194.786 85.1699H154.822C154.822 85.1699 147.989 85.7309 145.848 95.3178C154.537 101.437 164.905 104.712 175.528 104.695Z" fill="#6C63FF"/>
<path d="M174.981 74.5975C187.635 74.5975 197.892 64.3285 197.892 51.6611C197.892 38.9936 187.635 28.7246 174.981 28.7246C162.328 28.7246 152.07 38.9936 152.07 51.6611C152.07 64.3285 162.328 74.5975 174.981 74.5975Z" fill="#333333"/>
<path opacity="0.1" d="M166.932 72.4629H182.918V85.2652C182.918 87.3844 182.078 89.4171 180.582 90.917C179.087 92.4168 177.058 93.2612 174.941 93.2649C172.821 93.2649 170.789 92.422 169.29 90.9218C167.792 89.4216 166.95 87.3868 166.95 85.2652V72.4629H166.932Z" fill="black"/>
<path d="M168.457 71.8691H181.391C181.796 71.8691 182.184 72.0301 182.47 72.3166C182.756 72.6032 182.917 72.9918 182.917 73.397V84.6714C182.917 86.7907 182.077 88.8234 180.582 90.3232C179.086 91.8231 177.057 92.6675 174.94 92.6711C172.821 92.6711 170.788 91.8283 169.29 90.3281C167.791 88.8278 166.949 86.7931 166.949 84.6714V73.3925C166.95 72.9912 167.109 72.6065 167.391 72.3214C167.674 72.0364 168.056 71.8739 168.457 71.8691Z" fill="#BE7C5E"/>
<path opacity="0.1" d="M166.963 78.5061C172.115 80.4338 177.786 80.4499 182.949 78.5517V76.5859H166.963V78.5061Z" fill="black"/>
<path d="M174.981 79.5721C187.635 79.5721 197.892 69.3031 197.892 56.6357C197.892 43.9682 187.635 33.6992 174.981 33.6992C162.328 33.6992 152.07 43.9682 152.07 56.6357C152.07 69.3031 162.328 79.5721 174.981 79.5721Z" fill="#BE7C5E"/>
<path d="M153.082 47.9246H196.772C196.772 47.9246 193.041 30.265 176.526 31.3915C160.011 32.5181 153.082 47.9246 153.082 47.9246Z" fill="#333333"/>
<path d="M152.544 59.6599C153.722 59.6599 154.676 57.8691 154.676 55.66C154.676 53.451 153.722 51.6602 152.544 51.6602C151.367 51.6602 150.412 53.451 150.412 55.66C150.412 57.8691 151.367 59.6599 152.544 59.6599Z" fill="#BE7C5E"/>
<path d="M197.3 59.6599C198.478 59.6599 199.432 57.8691 199.432 55.66C199.432 53.451 198.478 51.6602 197.3 51.6602C196.123 51.6602 195.168 53.451 195.168 55.66C195.168 57.8691 196.123 59.6599 197.3 59.6599Z" fill="#BE7C5E"/>
<path opacity="0.1" d="M153.082 48.5183H196.772C196.772 48.5183 193.041 30.8588 176.526 31.9853C160.011 33.1118 153.082 48.5183 153.082 48.5183Z" fill="black"/>
<g opacity="0.5">
<path opacity="0.5" d="M301.24 105.711C330.399 105.711 354.037 82.0469 354.037 52.8555C354.037 23.6642 330.399 0 301.24 0C272.081 0 248.443 23.6642 248.443 52.8555C248.443 82.0469 272.081 105.711 301.24 105.711Z" fill="url(#paint3_linear)"/>
</g>
<path d="M301.341 104.252C329.883 104.252 353.021 81.0877 353.021 52.5135C353.021 23.9393 329.883 0.775391 301.341 0.775391C272.798 0.775391 249.66 23.9393 249.66 52.5135C249.66 81.0877 272.798 104.252 301.341 104.252Z" fill="#FFFCFC"/>
<path d="M301.385 104.461C311.484 104.478 321.365 101.518 329.795 95.9506C327.886 85.5291 320.642 84.9316 320.642 84.9316H280.684C280.684 84.9316 273.85 85.4926 271.709 95.0795C280.396 101.199 290.763 104.476 301.385 104.461Z" fill="#6C63FF"/>
<path d="M300.844 76.3995C314.622 76.3995 325.791 65.2178 325.791 51.4244C325.791 37.631 314.622 26.4492 300.844 26.4492C287.066 26.4492 275.896 37.631 275.896 51.4244C275.896 65.2178 287.066 76.3995 300.844 76.3995Z" fill="#72351C"/>
<path opacity="0.1" d="M292.789 72.2266H308.775V85.0288C308.777 86.0805 308.572 87.1222 308.171 88.0944C307.77 89.0665 307.182 89.95 306.44 90.6943C305.697 91.4386 304.816 92.0291 303.846 92.432C302.875 92.8349 301.835 93.0422 300.784 93.0422C298.665 93.0422 296.633 92.1994 295.134 90.6992C293.635 89.1989 292.794 87.1642 292.794 85.0425V72.2266H292.789Z" fill="black"/>
<path d="M294.301 71.6328H307.235C307.639 71.6328 308.028 71.7938 308.314 72.0803C308.6 72.3669 308.761 72.7555 308.761 73.1607V84.4351C308.761 86.5567 307.919 88.5915 306.42 90.0917C304.922 91.592 302.889 92.4348 300.77 92.4348C298.651 92.4348 296.618 91.592 295.12 90.0917C293.621 88.5915 292.779 86.5567 292.779 84.4351V73.1607C292.779 72.7555 292.94 72.3669 293.226 72.0803C293.513 71.7938 293.901 71.6328 294.305 71.6328H294.301Z" fill="#FDA57D"/>
<path opacity="0.1" d="M292.807 78.2678C297.959 80.1955 303.63 80.2117 308.793 78.3134V76.3477H292.807V78.2678Z" fill="black"/>
<path d="M300.844 79.3397C313.498 79.3397 323.755 69.0707 323.755 56.4032C323.755 43.7358 313.498 33.4668 300.844 33.4668C288.191 33.4668 277.934 43.7358 277.934 56.4032C277.934 69.0707 288.191 79.3397 300.844 79.3397Z" fill="#FDA57D"/>
<path opacity="0.1" d="M284.525 35.5436C284.525 35.5436 294.179 55.1552 321.427 43.7531L315.085 33.7968L303.846 29.7559L284.525 35.5436Z" fill="black"/>
<path d="M284.525 35.2565C284.525 35.2565 294.179 54.8681 321.427 43.466L315.085 33.5097L303.846 29.4688L284.525 35.2565Z" fill="#72351C"/>
<path d="M284.439 33.9283C285.09 31.911 286.215 30.0795 287.719 28.5876C292.225 24.1271 299.614 23.1876 303.404 18.0977C303.61 18.4579 303.739 18.8573 303.781 19.2702C303.823 19.6831 303.778 20.1003 303.65 20.4948C303.521 20.8894 303.311 21.2525 303.033 21.5607C302.756 21.869 302.416 22.1155 302.038 22.2845C305.682 22.2617 309.878 21.9424 311.928 18.9505C312.436 20.1328 312.598 21.435 312.395 22.7057C312.193 23.9765 311.634 25.1636 310.785 26.1293C314.001 26.2752 317.436 28.4599 317.646 31.6798C317.782 33.8234 316.443 35.853 314.68 37.0844C312.917 38.3158 310.794 38.8677 308.698 39.3238C302.584 40.692 280.448 46.352 284.439 33.9283Z" fill="#72351C"/>
<path d="M323.755 56.6055H323.149L311.332 67.1456C299.942 61.8094 291.587 67.1456 291.587 67.1456L279.196 57.0479L277.947 57.2029C278.116 63.223 280.644 68.935 284.984 73.1055C289.323 77.2761 295.128 79.5704 301.143 79.4931C307.158 79.4159 312.902 76.9732 317.133 72.6927C321.365 68.4121 323.745 62.637 323.76 56.6146L323.755 56.6055ZM300.813 71.1774C296.357 71.1774 292.744 70.2652 292.744 69.1569C292.744 68.0486 296.357 67.1364 300.813 67.1364C305.268 67.1364 308.881 68.0486 308.881 69.1569C308.881 70.2652 305.268 71.1774 300.808 71.1774H300.813Z" fill="#72351C"/>
<path d="M277.923 60.3806C279.101 60.3806 280.055 58.5898 280.055 56.3807C280.055 54.1717 279.101 52.3809 277.923 52.3809C276.746 52.3809 275.791 54.1717 275.791 56.3807C275.791 58.5898 276.746 60.3806 277.923 60.3806Z" fill="#FDA57D"/>
<path d="M323.749 60.3806C324.927 60.3806 325.881 58.5898 325.881 56.3807C325.881 54.1717 324.927 52.3809 323.749 52.3809C322.572 52.3809 321.617 54.1717 321.617 56.3807C321.617 58.5898 322.572 60.3806 323.749 60.3806Z" fill="#FDA57D"/>
<g opacity="0.5">
<path opacity="0.5" d="M52.7966 220.115C81.9553 220.115 105.593 196.451 105.593 167.26C105.593 138.069 81.9553 114.404 52.7966 114.404C23.6378 114.404 0 138.069 0 167.26C0 196.451 23.6378 220.115 52.7966 220.115Z" fill="url(#paint4_linear)"/>
</g>
<path d="M52.8972 218.66C81.4396 218.66 104.578 195.496 104.578 166.922C104.578 138.348 81.4396 115.184 52.8972 115.184C24.3549 115.184 1.2168 138.348 1.2168 166.922C1.2168 195.496 24.3549 218.66 52.8972 218.66Z" fill="#FFFCFC"/>
<path d="M52.9431 218.865C63.0406 218.881 72.9194 215.921 81.3482 210.354C79.4439 199.937 72.1957 199.34 72.1957 199.34H32.219C32.219 199.34 25.3853 199.901 23.2441 209.488C31.9383 215.61 42.3135 218.886 52.9431 218.865Z" fill="#6C63FF"/>
<path d="M52.3965 190.808C66.1745 190.808 77.3438 179.626 77.3438 165.833C77.3438 152.039 66.1745 140.857 52.3965 140.857C38.6185 140.857 27.4492 152.039 27.4492 165.833C27.4492 179.626 38.6185 190.808 52.3965 190.808Z" fill="#333333"/>
<path opacity="0.1" d="M44.3457 186.635H60.3318V199.437C60.3318 201.559 59.4899 203.593 57.9914 205.094C56.4928 206.594 54.4603 207.437 52.341 207.437C50.2218 207.437 48.1893 206.594 46.6907 205.094C45.1921 203.593 44.3503 201.559 44.3503 199.437V186.635H44.3457Z" fill="black"/>
<path d="M45.8719 186.042H58.8057C59.2104 186.042 59.5986 186.203 59.8848 186.489C60.171 186.776 60.3318 187.164 60.3318 187.57V198.853C60.3318 200.975 59.4899 203.009 57.9914 204.51C56.4928 206.01 54.4603 206.853 52.341 206.853C51.2913 206.853 50.2517 206.647 49.2817 206.245C48.3117 205.843 47.4303 205.254 46.6878 204.511C45.9453 203.768 45.3563 202.886 44.9544 201.915C44.5525 200.945 44.3457 199.904 44.3457 198.853V187.565C44.3457 187.16 44.5065 186.771 44.7927 186.485C45.0789 186.198 45.4671 186.037 45.8719 186.037V186.042Z" fill="#FDB797"/>
<path opacity="0.1" d="M44.377 192.676C49.5289 194.604 55.2002 194.62 60.3631 192.722V190.742H44.377V192.676Z" fill="black"/>
<path d="M52.3952 193.748C65.0486 193.748 75.3061 183.479 75.3061 170.811C75.3061 158.144 65.0486 147.875 52.3952 147.875C39.7419 147.875 29.4844 158.144 29.4844 170.811C29.4844 183.479 39.7419 193.748 52.3952 193.748Z" fill="#FDB797"/>
<path opacity="0.1" d="M36.082 149.946C36.082 149.946 45.7357 169.558 72.9836 158.155L66.642 148.199L55.403 144.158L36.082 149.946Z" fill="black"/>
<path d="M36.082 149.659C36.082 149.659 45.7357 169.27 72.9836 157.868L66.642 147.912L55.403 143.871L36.082 149.659Z" fill="#333333"/>
<path d="M35.9956 148.327C36.6465 146.309 37.7713 144.478 39.2757 142.986C43.7814 138.526 51.1708 137.586 54.9612 132.496C55.1672 132.856 55.2954 133.256 55.3376 133.669C55.3798 134.082 55.3351 134.499 55.2063 134.893C55.0775 135.288 54.8675 135.651 54.5899 135.959C54.3123 136.267 53.9732 136.514 53.5945 136.683C57.2391 136.66 61.4349 136.341 63.485 133.349C63.9924 134.531 64.1543 135.833 63.9519 137.104C63.7495 138.375 63.191 139.562 62.3415 140.528C65.5579 140.674 68.9929 142.858 69.2025 146.078C69.3391 148.222 67.9998 150.251 66.2367 151.483C64.4736 152.714 62.3461 153.275 60.2504 153.74C54.1366 155.1 32.0048 160.76 35.9956 148.327Z" fill="#333333"/>
<path d="M29.4758 174.791C30.6534 174.791 31.6079 173 31.6079 170.791C31.6079 168.582 30.6534 166.791 29.4758 166.791C28.2983 166.791 27.3438 168.582 27.3438 170.791C27.3438 173 28.2983 174.791 29.4758 174.791Z" fill="#FDB797"/>
<path d="M75.302 174.791C76.4795 174.791 77.4341 173 77.4341 170.791C77.4341 168.582 76.4795 166.791 75.302 166.791C74.1245 166.791 73.1699 168.582 73.1699 170.791C73.1699 173 74.1245 174.791 75.302 174.791Z" fill="#FDB797"/>
<g opacity="0.5">
<path opacity="0.5" d="M303.209 225.977C332.367 225.977 356.005 202.312 356.005 173.121C356.005 143.93 332.367 120.266 303.209 120.266C274.05 120.266 250.412 143.93 250.412 173.121C250.412 202.312 274.05 225.977 303.209 225.977Z" fill="url(#paint5_linear)"/>
</g>
<path d="M303.208 224.572C331.75 224.572 354.888 201.408 354.888 172.834C354.888 144.26 331.75 121.096 303.208 121.096C274.665 121.096 251.527 144.26 251.527 172.834C251.527 201.408 274.665 224.572 303.208 224.572Z" fill="#FFFCFC"/>
<path d="M303.355 224.726C313.454 224.743 323.334 221.783 331.764 216.216C329.86 205.799 322.612 205.201 322.612 205.201H282.649C282.649 205.201 275.815 205.762 273.674 215.349C282.363 221.468 292.731 224.743 303.355 224.726Z" fill="#6C63FF"/>
<path opacity="0.1" d="M294.758 192.494H310.744V205.296C310.744 207.418 309.902 209.453 308.403 210.953C306.905 212.453 304.872 213.296 302.753 213.296C301.703 213.297 300.664 213.09 299.694 212.688C298.724 212.287 297.842 211.698 297.1 210.955C296.357 210.212 295.768 209.33 295.367 208.359C294.965 207.388 294.758 206.347 294.758 205.296V192.494Z" fill="black"/>
<path d="M296.284 191.902H309.218C309.623 191.902 310.011 192.063 310.297 192.35C310.583 192.636 310.744 193.025 310.744 193.43V204.705C310.744 206.826 309.902 208.861 308.403 210.361C306.905 211.862 304.872 212.704 302.753 212.704C301.703 212.705 300.664 212.498 299.694 212.097C298.724 211.695 297.842 211.106 297.1 210.363C296.357 209.62 295.768 208.738 295.367 207.767C294.965 206.796 294.758 205.756 294.758 204.705V193.43C294.758 193.025 294.919 192.636 295.205 192.35C295.491 192.063 295.879 191.902 296.284 191.902Z" fill="#FDB797"/>
<path opacity="0.1" d="M294.789 198.537C299.941 200.465 305.612 200.481 310.775 198.583V196.617H294.789V198.537Z" fill="black"/>
<path d="M302.807 199.609C315.461 199.609 325.718 189.34 325.718 176.673C325.718 164.005 315.461 153.736 302.807 153.736C290.154 153.736 279.896 164.005 279.896 176.673C279.896 189.34 290.154 199.609 302.807 199.609Z" fill="#FDB797"/>
<path d="M280.37 179.693C281.548 179.693 282.502 177.902 282.502 175.693C282.502 173.484 281.548 171.693 280.37 171.693C279.193 171.693 278.238 173.484 278.238 175.693C278.238 177.902 279.193 179.693 280.37 179.693Z" fill="#FDB797"/>
<path d="M325.126 179.693C326.304 179.693 327.258 177.902 327.258 175.693C327.258 173.484 326.304 171.693 325.126 171.693C323.949 171.693 322.994 173.484 322.994 175.693C322.994 177.902 323.949 179.693 325.126 179.693Z" fill="#FDB797"/>
<path d="M296.665 176.783H290.829C289.735 176.783 288.848 177.671 288.848 178.767V179.707C288.848 180.802 289.735 181.691 290.829 181.691H296.665C297.76 181.691 298.647 180.802 298.647 179.707V178.767C298.647 177.671 297.76 176.783 296.665 176.783Z" stroke="#333333" stroke-width="2" stroke-miterlimit="10"/>
<path d="M308.952 181.686H314.788C315.882 181.686 316.77 180.797 316.77 179.702V178.762C316.77 177.666 315.882 176.778 314.788 176.778H308.952C307.857 176.778 306.97 177.666 306.97 178.762V179.702C306.97 180.797 307.857 181.686 308.952 181.686Z" stroke="#333333" stroke-width="2" stroke-miterlimit="10"/>
<path d="M298.273 177.258C298.273 177.258 301.38 175.57 307.157 177.258" stroke="#333333" stroke-width="2" stroke-miterlimit="10"/>
<path d="M318.646 160.049L324.268 173.125C324.268 173.125 331.143 164.45 318.646 160.049Z" fill="#858585"/>
<path d="M316.77 179.237L325.161 171.734" stroke="#333333" stroke-width="2" stroke-linecap="round" stroke-linejoin="round"/>
<path d="M286.975 160.049L281.353 173.125C281.353 173.125 274.479 164.45 286.975 160.049Z" fill="#858585"/>
<path d="M288.849 179.237L280.344 171.734" stroke="#333333" stroke-width="2" stroke-linecap="round" stroke-linejoin="round"/>
<g opacity="0.5">
<path opacity="0.5" d="M53.1755 338.94C82.3342 338.94 105.972 315.275 105.972 286.084C105.972 256.893 82.3342 233.229 53.1755 233.229C24.0167 233.229 0.378906 256.893 0.378906 286.084C0.378906 315.275 24.0167 338.94 53.1755 338.94Z" fill="url(#paint6_linear)"/>
</g>
<path d="M53.1746 337.535C81.7169 337.535 104.855 314.371 104.855 285.797C104.855 257.223 81.7169 234.059 53.1746 234.059C24.6323 234.059 1.49414 257.223 1.49414 285.797C1.49414 314.371 24.6323 337.535 53.1746 337.535Z" fill="#FFFCFC"/>
<path d="M81.7612 290.448C81.7612 309.503 69.3422 330.716 54.0212 330.716C38.7002 330.716 26.2949 309.503 26.2949 290.448C26.2949 271.393 38.7139 261.715 54.0349 261.715C69.3559 261.715 81.7612 271.397 81.7612 290.448Z" fill="#FDD835"/>
<path d="M53.3207 337.693C63.4198 337.71 73.3003 334.75 81.7304 329.182C79.826 318.765 72.5779 318.168 72.5779 318.168H32.6194C32.6194 318.168 25.7857 318.729 23.6445 328.316C32.3324 334.434 42.6989 337.709 53.3207 337.693Z" fill="#6C63FF"/>
<path opacity="0.1" d="M44.7285 305.457H60.7146V318.259C60.7146 320.381 59.8728 322.416 58.3742 323.916C56.8756 325.416 54.8431 326.259 52.7239 326.259C50.6046 326.259 48.5721 325.416 47.0735 323.916C45.575 322.416 44.7331 320.381 44.7331 318.259V305.457H44.7285Z" fill="black"/>
<path d="M46.254 304.865H59.1878C59.5926 304.865 59.9808 305.026 60.267 305.313C60.5532 305.599 60.714 305.988 60.714 306.393V317.668C60.714 319.789 59.8721 321.824 58.3735 323.324C56.875 324.824 54.8425 325.667 52.7232 325.667C50.6039 325.667 48.5714 324.824 47.0729 323.324C45.5743 321.824 44.7324 319.789 44.7324 317.668V306.393C44.7324 305.989 44.8926 305.601 45.1778 305.314C45.463 305.028 45.8501 304.866 46.254 304.865Z" fill="#FDB797"/>
<path opacity="0.1" d="M44.7598 311.5C49.9117 313.428 55.583 313.444 60.7459 311.546V309.58H44.7598V311.5Z" fill="black"/>
<path d="M52.7781 312.572C65.4314 312.572 75.6889 302.303 75.6889 289.636C75.6889 276.968 65.4314 266.699 52.7781 266.699C40.1247 266.699 29.8672 276.968 29.8672 289.636C29.8672 302.303 40.1247 312.572 52.7781 312.572Z" fill="#FDB797"/>
<path d="M30.3411 292.654C31.5186 292.654 32.4732 290.863 32.4732 288.654C32.4732 286.445 31.5186 284.654 30.3411 284.654C29.1636 284.654 28.209 286.445 28.209 288.654C28.209 290.863 29.1636 292.654 30.3411 292.654Z" fill="#FDB797"/>
<path d="M75.0969 292.654C76.2745 292.654 77.229 290.863 77.229 288.654C77.229 286.445 76.2745 284.654 75.0969 284.654C73.9194 284.654 72.9648 286.445 72.9648 288.654C72.9648 290.863 73.9194 292.654 75.0969 292.654Z" fill="#FDB797"/>
<path opacity="0.1" d="M32.4785 277.193C32.4785 277.193 45.4305 294.939 75.134 288.878C75.134 288.878 78.4506 284.837 70.3778 272.432C62.305 260.026 39.8269 262.047 32.4785 277.193Z" fill="black"/>
<path d="M32.4785 276.906C32.4785 276.906 45.4305 294.652 75.134 288.591C75.134 288.591 78.4506 284.55 70.3778 272.145C62.305 259.739 39.8269 261.76 32.4785 276.906Z" fill="#FDD835"/>
<g opacity="0.5">
<path opacity="0.5" d="M178.599 345C207.758 345 231.396 321.336 231.396 292.145C231.396 262.953 207.758 239.289 178.599 239.289C149.441 239.289 125.803 262.953 125.803 292.145C125.803 321.336 149.441 345 178.599 345Z" fill="url(#paint7_linear)"/>
</g>
<path d="M178.704 343.545C207.246 343.545 230.384 320.381 230.384 291.806C230.384 263.232 207.246 240.068 178.704 240.068C150.162 240.068 127.023 263.232 127.023 291.806C127.023 320.381 150.162 343.545 178.704 343.545Z" fill="#FFFCFC"/>
<path d="M207.137 296.906C207.137 314.119 194.787 322.589 178.746 322.589C162.705 322.589 149.061 314.119 149.061 296.906C149.061 279.694 162.063 265.742 178.099 265.742C194.135 265.742 207.137 279.68 207.137 296.906Z" fill="#333333"/>
<path d="M178.745 343.75C188.845 343.767 198.727 340.807 207.159 335.239C205.254 324.822 198.006 324.225 198.006 324.225H158.043C158.043 324.225 151.21 324.786 149.068 334.372C157.756 340.49 168.123 343.766 178.745 343.75Z" fill="#6C63FF"/>
<path opacity="0.1" d="M170.152 311.506H186.138V324.308C186.14 325.361 185.934 326.405 185.532 327.378C185.13 328.351 184.541 329.236 183.796 329.98C183.052 330.725 182.169 331.315 181.196 331.716C180.224 332.118 179.182 332.324 178.129 332.322C176.01 332.322 173.978 331.479 172.479 329.978C170.981 328.478 170.139 326.443 170.139 324.322V311.506H170.152Z" fill="black"/>
<path d="M171.674 310.926H184.608C185.013 310.926 185.401 311.087 185.687 311.374C185.973 311.66 186.134 312.049 186.134 312.454V323.729C186.134 324.78 185.927 325.822 185.524 326.793C185.122 327.765 184.532 328.647 183.789 329.39C183.045 330.133 182.163 330.722 181.192 331.123C180.221 331.525 179.18 331.73 178.129 331.728C176.01 331.728 173.978 330.886 172.479 329.385C170.981 327.885 170.139 325.85 170.139 323.729V312.45C170.139 312.045 170.299 311.656 170.586 311.369C170.872 311.083 171.26 310.922 171.665 310.922L171.674 310.926Z" fill="#FDA57D"/>
<path opacity="0.1" d="M170.184 317.563C175.336 319.49 181.007 319.507 186.17 317.608V315.643H170.184V317.563Z" fill="black"/>
<path d="M178.204 318.629C190.857 318.629 201.115 308.36 201.115 295.692C201.115 283.025 190.857 272.756 178.204 272.756C165.551 272.756 155.293 283.025 155.293 295.692C155.293 308.36 165.551 318.629 178.204 318.629Z" fill="#FDA57D"/>
<path opacity="0.1" d="M151.799 297.194C151.799 297.194 166.067 295.461 176.855 281.614C176.855 281.614 191.124 297.34 201.065 295.607C201.065 295.607 206.828 289.545 201.065 283.489C195.302 277.432 190.833 269.783 183.197 270.791C175.562 271.799 166.19 272.233 162.159 275.84C158.127 279.448 151.799 297.194 151.799 297.194Z" fill="black"/>
<path d="M151.799 296.907C151.799 296.907 166.067 295.174 176.855 281.327C176.855 281.327 191.124 297.053 201.065 295.32C201.065 295.32 206.828 289.258 201.065 283.202C195.302 277.145 190.833 269.496 183.197 270.504C175.562 271.512 166.209 271.927 162.177 275.576C158.145 279.225 151.799 296.907 151.799 296.907Z" fill="#333333"/>
<path d="M155.282 299.676C156.46 299.676 157.415 297.885 157.415 295.676C157.415 293.467 156.46 291.676 155.282 291.676C154.105 291.676 153.15 293.467 153.15 295.676C153.15 297.885 154.105 299.676 155.282 299.676Z" fill="#FDA57D"/>
<path d="M201.109 299.676C202.286 299.676 203.241 297.885 203.241 295.676C203.241 293.467 202.286 291.676 201.109 291.676C199.931 291.676 198.977 293.467 198.977 295.676C198.977 297.885 199.931 299.676 201.109 299.676Z" fill="#FDA57D"/>
</g>
<defs>
<linearGradient id="paint0_linear" x1="53.1755" y1="108.539" x2="53.1755" y2="2.83269" gradientUnits="userSpaceOnUse">
<stop stop-color="#808080" stop-opacity="0.25"/>
<stop offset="0.54" stop-color="#808080" stop-opacity="0.12"/>
<stop offset="1" stop-color="#808080" stop-opacity="0.1"/>
</linearGradient>
<linearGradient id="paint1_linear" x1="40784.5" y1="51938.5" x2="40784.5" y2="27437.8" gradientUnits="userSpaceOnUse">
<stop stop-color="#808080" stop-opacity="0.25"/>
<stop offset="0.54" stop-color="#808080" stop-opacity="0.12"/>
<stop offset="1" stop-color="#808080" stop-opacity="0.1"/>
</linearGradient>
<linearGradient id="paint2_linear" x1="40772.8" y1="24555.9" x2="40772.8" y2="54.1451" gradientUnits="userSpaceOnUse">
<stop stop-color="#808080" stop-opacity="0.25"/>
<stop offset="0.54" stop-color="#808080" stop-opacity="0.12"/>
<stop offset="1" stop-color="#808080" stop-opacity="0.1"/>
</linearGradient>
<linearGradient id="paint3_linear" x1="70069.8" y1="24500.7" x2="70069.8" y2="0" gradientUnits="userSpaceOnUse">
<stop stop-color="#808080" stop-opacity="0.25"/>
<stop offset="0.54" stop-color="#808080" stop-opacity="0.12"/>
<stop offset="1" stop-color="#808080" stop-opacity="0.1"/>
</linearGradient>
<linearGradient id="paint4_linear" x1="12237.2" y1="51132.7" x2="12237.2" y2="26632" gradientUnits="userSpaceOnUse">
<stop stop-color="#808080" stop-opacity="0.25"/>
<stop offset="0.54" stop-color="#808080" stop-opacity="0.12"/>
<stop offset="1" stop-color="#808080" stop-opacity="0.1"/>
</linearGradient>
<linearGradient id="paint5_linear" x1="70528" y1="52496.9" x2="70528" y2="27996.3" gradientUnits="userSpaceOnUse">
<stop stop-color="#808080" stop-opacity="0.25"/>
<stop offset="0.54" stop-color="#808080" stop-opacity="0.12"/>
<stop offset="1" stop-color="#808080" stop-opacity="0.1"/>
</linearGradient>
<linearGradient id="paint6_linear" x1="12325.2" y1="78792.4" x2="12325.2" y2="54291.8" gradientUnits="userSpaceOnUse">
<stop stop-color="#808080" stop-opacity="0.25"/>
<stop offset="0.54" stop-color="#808080" stop-opacity="0.12"/>
<stop offset="1" stop-color="#808080" stop-opacity="0.1"/>
</linearGradient>
<linearGradient id="paint7_linear" x1="41521.5" y1="80203.4" x2="41521.5" y2="55702.7" gradientUnits="userSpaceOnUse">
<stop stop-color="#808080" stop-opacity="0.25"/>
<stop offset="0.54" stop-color="#808080" stop-opacity="0.12"/>
<stop offset="1" stop-color="#808080" stop-opacity="0.1"/>
</linearGradient>
<clipPath id="clip0">
<rect width="356" height="345" fill="white"/>
</clipPath>
</defs>
</svg>
