<svg width="275" height="172" viewBox="0 0 275 172" fill="none" xmlns="http://www.w3.org/2000/svg">
<ellipse cx="137.5" cy="146.5" rx="137.5" ry="6.5" fill="#C4C4C4" fill-opacity="0.21"/>
<path d="M189.333 146.917H74.6663C66.783 146.917 60.333 140.467 60.333 132.583V57.6917C60.333 53.0333 62.483 48.7333 66.4247 45.8667L132 0L197.575 45.8667C201.516 48.375 203.666 53.0333 203.666 57.6917V132.583C203.666 140.467 197.216 146.917 189.333 146.917Z" fill="#78909C"/>
<path d="M89 39.416H175V118.249H89V39.416Z" fill="white"/>
<path d="M189.333 146.916H74.6663C66.783 146.916 60.333 140.466 60.333 132.583V60.916L132 107.499L203.666 60.916V132.583C203.666 140.466 197.216 146.916 189.333 146.916Z" fill="#CFD8DC"/>
<path d="M124.833 50.166H139.166V93.166H124.833V50.166Z" fill="#788B92"/>
<path d="M110.5 64.5H153.5V78.8333H110.5V64.5Z" fill="#788B92"/>
</svg>
