<svg width="172" height="172" viewBox="0 0 172 172" fill="none" xmlns="http://www.w3.org/2000/svg">
<path d="M143.333 146.917H28.6663C20.783 146.917 14.333 140.467 14.333 132.583V57.6917C14.333 53.0333 16.483 48.7333 20.4247 45.8667L85.9997 0L151.575 45.8667C155.516 48.375 157.666 53.0333 157.666 57.6917V132.583C157.666 140.467 151.216 146.917 143.333 146.917Z" fill="#78909C"/>
<path d="M43 39.416H129V118.249H43V39.416Z" fill="white"/>
<path d="M143.333 146.916H28.6663C20.783 146.916 14.333 140.466 14.333 132.583V60.916L85.9997 107.499L157.666 60.916V132.583C157.666 140.466 151.216 146.916 143.333 146.916Z" fill="#CFD8DC"/>
<path d="M78.833 50.166H93.1663V93.166H78.833V50.166Z" fill="#788B92"/>
<path d="M64.5 64.5H107.5V78.8333H64.5V64.5Z" fill="#788B92"/>
</svg>
